M48
METRIC,0000.00
T01C0.4
T02C0.9
T03C4.05
%
T03
X+000306Y+006198
T02
X+001975Y+001705
X+001721Y+001705
X+001467Y+001705
X+001213Y+001705
X+000959Y+001705
X+000705Y+001705
X+000451Y+001705
X+000197Y+001705
X+002477Y+001705
X+002223Y+001705
X+002493Y+001455
X+002493Y+001201
X+002493Y+000947
X+002493Y+000693
X+000200Y+001206
X+000454Y+001206
X+000708Y+001206
X+000962Y+001206
X+001216Y+001206
X+001470Y+001206
X+001724Y+001206
X+000200Y+000952
X+000454Y+000952
X+000708Y+000952
X+000962Y+000952
X+001216Y+000952
X+001470Y+000952
X+001724Y+000952
X+001724Y+000698
X+001470Y+000698
X+001216Y+000698
X+000962Y+000698
X+000708Y+000698
X+000454Y+000698
X+000200Y+000698
X+000200Y+000444
X+000454Y+000444
X+000708Y+000444
X+000962Y+000444
X+001216Y+000444
X+001470Y+000444
X+001724Y+000444
X+001724Y+000190
X+001470Y+000190
X+001216Y+000190
X+000962Y+000190
X+000708Y+000190
X+000454Y+000190
X+000200Y+000190
X+000200Y+001460
X+000454Y+001460
X+000708Y+001460
X+000962Y+001460
X+001216Y+001460
X+001470Y+001460
X+001724Y+001460
X+001978Y+001206
X+002232Y+001206
X+001978Y+000952
X+002232Y+000952
X+002232Y+000698
X+001978Y+000698
X+001978Y+000444
X+002232Y+000444
X+002232Y+000190
X+001978Y+000190
X+001978Y+001460
X+002232Y+001460
T01
X+002210Y+001990
X+001000Y+005100
X+001000Y+005300
X+002330Y+001990
X+002000Y+003800
X+001200Y+005100
X+000800Y+005300
X+001400Y+006100
X+001200Y+005500
X+001600Y+005500
X+002200Y+005300
X+002200Y+006000
X+002700Y+005300
X+002600Y+005700
X+002370Y+003960
X+000600Y+005500
X+000600Y+005300
X+000600Y+005900
X+000800Y+005700
X+000800Y+006100
X+000800Y+006300
X+001400Y+006300
X+001400Y+005500
X+001600Y+005700
X+002600Y+005300
X+002200Y+006200
X+002700Y+005500
X+000600Y+005700
X+000800Y+005500
X+001000Y+005500
X+000800Y+005900
X+001000Y+005700
X+001000Y+005900
X+001000Y+006100
X+001000Y+006300
X+001200Y+006300
X+001400Y+005700
X+001600Y+005900
X+002600Y+005500
X+002200Y+006400
X+002700Y+005900
X+000980Y+003480
X+001600Y+004900
X+001800Y+004900
X+002400Y+004900
X+002700Y+006100
X+002400Y+005100
X+002200Y+005100
X+001400Y+005900
X+002400Y+006000
X+001200Y+005900
X+001400Y+004900
X+002200Y+004900
X+002700Y+006400
X+002400Y+005300
X+002000Y+005100
X+001800Y+005100
X+001200Y+005700
X+002000Y+005800
X+002000Y+005500
X+002080Y+002920
X+002080Y+002820
X+001200Y+004900
X+002000Y+004900
X+002400Y+005500
X+001600Y+005100
X+001400Y+005100
X+001200Y+006100
X+002200Y+005500
X+002200Y+005800
X+002700Y+005700
T02
X+000188Y+005244
X+000442Y+005244
X+000188Y+004990
X+000442Y+004990
X+000188Y+004736
X+000442Y+004736
X+000188Y+004482
X+000442Y+004482
X+000188Y+004228
X+000442Y+004228
X+000188Y+003974
X+000442Y+003974
X+000188Y+003720
X+000442Y+003720
X+000188Y+003466
X+000442Y+003466
X+000188Y+003212
X+000442Y+003212
X+000188Y+002958
X+000442Y+002958
X+000188Y+002704
X+000442Y+002704
X+000188Y+002450
X+000442Y+002450
X+000188Y+002196
X+000442Y+002196
T01
X+000972Y+004320
X+002292Y+004340
X+002410Y+003590
X+002380Y+002810
X+000990Y+002630
X+001810Y+002000
X+001520Y+003510
X+001850Y+003480
X+002710Y+001080
X+002400Y+003780
X+002710Y+001290
X+002300Y+004600
X+002190Y+002480
X+001610Y+002570
X+001532Y+004650
X+002070Y+003450
X+002030Y+004600
X+002380Y+003470
X+002380Y+003340
T00
M30
