G04 DipTrace 3.0.0.2*
G04 Top.gbr*
%MOMM*%
G04 #@! TF.FileFunction,Copper,L1,Top*
G04 #@! TF.Part,Single*
G04 #@! TA.AperFunction,Conductor*
%ADD10C,0.254*%
%ADD14C,0.381*%
%ADD15C,0.508*%
G04 #@! TA.AperFunction,CopperBalancing*
%ADD16C,0.635*%
G04 #@! TA.AperFunction,Conductor*
%ADD17C,0.1778*%
G04 #@! TA.AperFunction,ViaPad*
%ADD18C,0.8*%
G04 #@! TA.AperFunction,CopperBalancing*
%ADD19C,0.33*%
%ADD21R,1.52X4.06*%
%ADD22R,0.85X4.06*%
%ADD23R,1.05X1.1*%
%ADD24R,1.1X2.25*%
%ADD26R,1.3X1.5*%
G04 #@! TA.AperFunction,ComponentPad*
%ADD27R,1.5X1.5*%
%ADD28C,1.5*%
%ADD29C,1.5*%
%ADD30R,1.0X1.1*%
%ADD31R,1.1X1.0*%
%ADD32R,2.274X1.01*%
%ADD33R,1.01X2.274*%
%FSLAX35Y35*%
G04*
G71*
G90*
G75*
G01*
G04 Top*
%LPD*%
X972000Y4320000D2*
D14*
X932000D1*
X902000Y4350000D1*
X734000D1*
X728000Y4356000D1*
X2581000Y4102000D2*
X2340000D1*
X2292000Y4150000D1*
Y4340000D1*
X2477000Y1705000D2*
D15*
Y2403000D1*
X2220000Y2660000D1*
Y4020000D1*
X2290000Y4090000D1*
X2569000D1*
X2581000Y4102000D1*
X1525000Y6253000D2*
D10*
X1660000D1*
D14*
Y5830000D1*
D10*
X1400000Y5570000D1*
Y5283000D1*
X1400500Y5282500D1*
X2032000Y6252000D2*
X1900000D1*
D14*
Y5950000D1*
D10*
X1940000Y5910000D1*
X2180000D1*
X2370000Y6100000D1*
Y6253000D1*
X2373000Y6256000D1*
X2581000Y3975000D2*
X2385000D1*
X2370000Y3960000D1*
X2581000Y3594000D2*
D17*
X2414000D1*
X2410000Y3590000D1*
X2581000Y2705000D2*
X2415000D1*
X2400000Y2720000D1*
Y2790000D1*
X2380000Y2810000D1*
X728000Y2705000D2*
X915000D1*
X990000Y2630000D1*
X1800000Y2190000D2*
Y1990000D1*
X1810000Y2000000D1*
X2523000Y6406000D2*
D14*
X2694000D1*
X2700000Y6400000D1*
X2730000D1*
X2740000Y6390000D1*
Y6140000D1*
X2700000Y6100000D1*
X728000Y4229000D2*
D17*
X1421000D1*
X1520000Y4130000D1*
Y3510000D1*
X1850000Y3480000D2*
X1610000D1*
X1530000Y3400000D1*
X1450000D1*
X1420000Y3430000D1*
Y4030000D1*
X1350000Y4100000D1*
X730000D1*
X728000Y4102000D1*
X2493000Y947000D2*
X2577000D1*
X2710000Y1080000D1*
X2400000Y3780000D2*
X2468000Y3848000D1*
X2581000D1*
X2197000Y5678000D2*
D18*
G03X2520000Y5860000I29195J325805D01*
G01*
X2523000Y6106000D1*
X2493000Y1455000D2*
D17*
X2625000D1*
X2740000Y1570000D1*
Y4310000D1*
X2700000Y4350000D1*
X2587000D1*
X2581000Y4356000D1*
X2493000Y1201000D2*
X2621000D1*
X2710000Y1290000D1*
X2300000Y4600000D2*
X2410000Y4490000D1*
Y4280000D1*
X2460000Y4230000D1*
X2580000D1*
X2581000Y4229000D1*
X1781000Y5849000D2*
D18*
Y6250000D1*
X1779000Y6252000D1*
X1781500Y5282500D2*
Y5678500D1*
X1781000Y5679000D1*
X2026000D1*
X2027000Y5678000D1*
X197000Y1705000D2*
D17*
Y1867000D1*
X320000Y1990000D1*
X1010000D1*
X1150000Y2130000D1*
Y2730000D1*
X1050000Y2830000D1*
X730000D1*
X728000Y2832000D1*
X451000Y1705000D2*
Y1831000D1*
X560000Y1940000D1*
X1050000D1*
X1210000Y2100000D1*
Y2850000D1*
X1100000Y2960000D1*
X729000D1*
X728000Y2959000D1*
X705000Y1705000D2*
Y1765000D1*
X820000Y1880000D1*
X1070000D1*
X1270000Y2080000D1*
Y2920000D1*
X1100000Y3090000D1*
X732000D1*
X728000Y3086000D1*
X959000Y1705000D2*
X975000D1*
X1330000Y2060000D1*
Y3000000D1*
X1120000Y3210000D1*
X731000D1*
X728000Y3213000D1*
Y3594000D2*
X1166000D1*
X1210000Y3550000D1*
Y3250000D1*
X1410000Y3050000D1*
Y1902000D1*
X1213000Y1705000D1*
X1467000D2*
Y3073000D1*
X1260000Y3280000D1*
Y3640000D1*
X1170000Y3730000D1*
X737000D1*
X728000Y3721000D1*
Y3848000D2*
X1222000D1*
X1300000Y3770000D1*
Y3330000D1*
X1410000Y3220000D1*
X1720000D1*
X1930000Y3010000D1*
Y1914000D1*
X1721000Y1705000D1*
X1975000D2*
X2000000D1*
Y3020000D1*
X1730000Y3290000D1*
X1440000D1*
X1360000Y3370000D1*
Y3880000D1*
X1260000Y3980000D1*
X733000D1*
X728000Y3975000D1*
X2190000Y2480000D2*
Y2460000D1*
X2330000Y2320000D1*
Y2190000D1*
X2493000Y693000D2*
X2477000D1*
X2370000Y800000D1*
Y1550000D1*
X2410000Y1590000D1*
X2650000D1*
X2680000Y1620000D1*
Y2510000D1*
X2620000Y2570000D1*
X2450000D1*
X2300000Y2720000D1*
Y3590000D1*
X2420000Y3710000D1*
X2570000D1*
X2581000Y3721000D1*
X1610000Y2190000D2*
Y2570000D1*
X1532000Y4650000D2*
X1472000D1*
X1432000Y4610000D1*
X728000D1*
X2070000Y3450000D2*
Y4560000D1*
X2030000Y4600000D1*
X2380000Y3470000D2*
X2410000D1*
X2420000Y3460000D1*
X2574000D1*
X2581000Y3467000D1*
Y3340000D2*
X2380000D1*
D18*
X972000Y4320000D3*
X2292000Y4340000D3*
X2410000Y3590000D3*
X2380000Y2810000D3*
X990000Y2630000D3*
X1810000Y2000000D3*
X1520000Y3510000D3*
X1850000Y3480000D3*
X2710000Y1080000D3*
X2400000Y3780000D3*
X2710000Y1290000D3*
X2300000Y4600000D3*
X2190000Y2480000D3*
X1610000Y2570000D3*
X1532000Y4650000D3*
X2070000Y3450000D3*
X2030000Y4600000D3*
X2380000Y3470000D3*
Y3340000D3*
X2210000Y1990000D3*
X1000000Y5100000D3*
Y5300000D3*
X2330000Y1990000D3*
X2000000Y3800000D3*
X1200000Y5100000D3*
X800000Y5300000D3*
X1400000Y6100000D3*
X1200000Y5500000D3*
X1600000D3*
X2200000Y5300000D3*
Y6000000D3*
X2700000Y5300000D3*
X2600000Y5700000D3*
X2370000Y3960000D3*
X600000Y5500000D3*
Y5300000D3*
Y5900000D3*
X800000Y5700000D3*
Y6100000D3*
Y6300000D3*
X1400000D3*
Y5500000D3*
X1600000Y5700000D3*
X2600000Y5300000D3*
X2200000Y6200000D3*
X2700000Y5500000D3*
X600000Y5700000D3*
X800000Y5500000D3*
X1000000D3*
X800000Y5900000D3*
X1000000Y5700000D3*
Y5900000D3*
Y6100000D3*
Y6300000D3*
X1200000D3*
X1400000Y5700000D3*
X1600000Y5900000D3*
X2600000Y5500000D3*
X2200000Y6400000D3*
X2700000Y5900000D3*
X980000Y3480000D3*
X1600000Y4900000D3*
X1800000D3*
X2400000D3*
X2700000Y6100000D3*
X2400000Y5100000D3*
X2200000D3*
X1400000Y5900000D3*
X2400000Y6000000D3*
X1200000Y5900000D3*
X1400000Y4900000D3*
X2200000D3*
X2700000Y6400000D3*
X2400000Y5300000D3*
X2000000Y5100000D3*
X1800000D3*
X1200000Y5700000D3*
X2000000Y5800000D3*
Y5500000D3*
X2080000Y2920000D3*
Y2820000D3*
X1200000Y4900000D3*
X2000000D3*
X2400000Y5500000D3*
X1600000Y5100000D3*
X1400000D3*
X1200000Y6100000D3*
X2200000Y5500000D3*
Y5800000D3*
X2700000Y5700000D3*
X599660Y6364483D2*
D16*
X1390633D1*
X2166450D2*
X2259540D1*
X627937Y6301317D2*
X1390633D1*
X2166450D2*
X2259540D1*
X641953Y6238150D2*
X1390633D1*
X2166450D2*
X2259540D1*
X2486430D2*
X2559553D1*
X643690Y6174983D2*
X1390633D1*
X2166450D2*
X2259540D1*
X633023Y6111817D2*
X1390633D1*
X2166450D2*
X2259540D1*
X608963Y6048650D2*
X1390633D1*
X2166450D2*
X2414817D1*
X2631163D2*
X2721280D1*
X567540Y5985483D2*
X1608913D1*
X1951143D2*
X2425857D1*
X2617150D2*
X2721280D1*
X78700Y5922317D2*
X114557D1*
X497467D2*
X1675390D1*
X1886650D2*
X2425113D1*
X2616407D2*
X2721280D1*
X78700Y5859150D2*
X1675390D1*
X1886650D2*
X2407750D1*
X2615660D2*
X2721280D1*
X78700Y5795983D2*
X1675390D1*
X1886650D2*
X2334080D1*
X2592470D2*
X2721280D1*
X78700Y5732817D2*
X1675390D1*
X2548440D2*
X2721280D1*
X78700Y5669650D2*
X1675390D1*
X2479733D2*
X2721280D1*
X78700Y5606483D2*
X1675390D1*
X2356823D2*
X2721280D1*
X78700Y5543317D2*
X1685933D1*
X1877103D2*
X2721280D1*
X78700Y5480150D2*
X1685933D1*
X1877103D2*
X2721280D1*
X78700Y5416983D2*
X1164537D1*
X2144373D2*
X2721280D1*
X321477Y5353817D2*
X371780D1*
X512223D2*
X1164537D1*
X2144373D2*
X2721280D1*
X566547Y5290650D2*
X1164537D1*
X2144373D2*
X2721280D1*
X574360Y5227483D2*
X1164537D1*
X2144373D2*
X2721280D1*
X900170Y5164317D2*
X1164537D1*
X2144373D2*
X2408863D1*
X255990Y5101150D2*
X346850D1*
X915300D2*
X2393610D1*
X915300Y5037983D2*
X2393610D1*
X915300Y4974817D2*
X2393610D1*
X294440Y4911650D2*
X316937D1*
X915300D2*
X2393610D1*
X281540Y4848483D2*
X376493D1*
X915300D2*
X2393610D1*
X915300Y4785317D2*
X2393610D1*
X915300Y4722150D2*
X1468397D1*
X1595570D2*
X2393610D1*
X314033Y4658983D2*
X334517D1*
X1629923D2*
X1952953D1*
X2107040D2*
X2222953D1*
X279803Y4595817D2*
X379097D1*
X504907D2*
X555830D1*
X1612807D2*
X1931623D1*
X2128373D2*
X2201620D1*
X900170Y4532650D2*
X1960893D1*
X2137303D2*
X2230890D1*
X900170Y4469483D2*
X2002687D1*
X2137303D2*
X2338047D1*
X1010427Y4406317D2*
X2002687D1*
X2137303D2*
X2221837D1*
X277943Y4343150D2*
X352060D1*
X1067477D2*
X2002687D1*
X2137303D2*
X2193683D1*
X1460757Y4279983D2*
X2002687D1*
X2137303D2*
X2214520D1*
X1525743Y4216817D2*
X2002687D1*
X2137303D2*
X2214520D1*
X1582547Y4153650D2*
X2002687D1*
X2137303D2*
X2214520D1*
X276083Y4090483D2*
X353920D1*
X1587260D2*
X2002687D1*
X2137303D2*
X2174583D1*
X1587260Y4027317D2*
X2002687D1*
X1587260Y3964150D2*
X2002687D1*
X2303743D2*
X2408863D1*
X1587260Y3900983D2*
X2002687D1*
X2303743D2*
X2408863D1*
X274100Y3837817D2*
X355903D1*
X1587260D2*
X2002687D1*
X1587260Y3774650D2*
X2002687D1*
X1587260Y3711483D2*
X2002687D1*
X2303743D2*
X2329023D1*
X1587260Y3648317D2*
X2002687D1*
X272113Y3585150D2*
X357890D1*
X1587260D2*
X2002687D1*
X900170Y3521983D2*
X1142710D1*
X1938247D2*
X2002687D1*
X900170Y3458817D2*
X1142710D1*
X1945933D2*
X1972053D1*
X915300Y3395650D2*
X1142710D1*
X1618140D2*
X1806730D1*
X1893223D2*
X1989293D1*
X270007Y3332483D2*
X359997D1*
X915300D2*
X1142710D1*
X1779990D2*
X2136260D1*
X1843243Y3269317D2*
X2136260D1*
X1906370Y3206150D2*
X2136260D1*
X2367243D2*
X2393713D1*
X1489530Y3142983D2*
X1704537D1*
X1969500D2*
X2136260D1*
X2367243D2*
X2393713D1*
X267897Y3079817D2*
X362107D1*
X1533930D2*
X1767663D1*
X2032750D2*
X2136260D1*
X2367243D2*
X2393713D1*
X1534300Y3016650D2*
X1830790D1*
X2067230D2*
X2136260D1*
X2367243D2*
X2393713D1*
X1534300Y2953483D2*
X1862667D1*
X2067230D2*
X2136260D1*
X2367243D2*
X2393713D1*
X1534300Y2890317D2*
X1862667D1*
X2067230D2*
X2136260D1*
X2367243D2*
X2393713D1*
X265667Y2827150D2*
X364340D1*
X1534300D2*
X1862667D1*
X2067230D2*
X2136260D1*
X2367243D2*
X2393713D1*
X900170Y2763983D2*
X1023523D1*
X1534300D2*
X1862667D1*
X2067230D2*
X2136260D1*
X2367243D2*
X2393713D1*
X900170Y2700817D2*
X1082683D1*
X1534300D2*
X1862667D1*
X2067230D2*
X2136260D1*
X900170Y2637650D2*
X1082683D1*
X1678790D2*
X1862667D1*
X2067230D2*
X2139487D1*
X263310Y2574483D2*
X366693D1*
X517310D2*
X1082683D1*
X1708307D2*
X1862667D1*
X2067230D2*
X2189717D1*
X576717Y2511317D2*
X1082683D1*
X1687347D2*
X1862667D1*
X2067230D2*
X2097067D1*
X590607Y2448150D2*
X1082683D1*
X1677300D2*
X1862667D1*
X2067230D2*
X2097237D1*
X2294317D2*
X2315950D1*
X2546207D2*
X2612760D1*
X574857Y2384983D2*
X1082683D1*
X1677300D2*
X1862667D1*
X2067230D2*
X2172477D1*
X2357570D2*
X2379117D1*
X2560843D2*
X2612760D1*
X256117Y2321817D2*
X369177D1*
X514830D2*
X1082683D1*
X1677300D2*
X1862667D1*
X2067230D2*
X2235727D1*
X2560843D2*
X2612760D1*
X576097Y2258650D2*
X1082683D1*
X2560843D2*
X2612760D1*
X590607Y2195483D2*
X1082683D1*
X2560843D2*
X2612760D1*
X575600Y2132317D2*
X1059863D1*
X2560843D2*
X2612760D1*
X78700Y2069150D2*
X371160D1*
X512843D2*
X996610D1*
X2560843D2*
X2612760D1*
X78700Y2005983D2*
X243417D1*
X1534300D2*
X1862667D1*
X2067230D2*
X2393237D1*
X2560843D2*
X2612760D1*
X78700Y1942817D2*
X180287D1*
X1305353D2*
X1342760D1*
X1534300D2*
X1862667D1*
X2067230D2*
X2393237D1*
X2560843D2*
X2612760D1*
X78700Y1879650D2*
X131050D1*
X302127D2*
X407127D1*
X1242103D2*
X1295133D1*
X1534300D2*
X1803133D1*
X2067230D2*
X2393237D1*
X2560843D2*
X2612760D1*
X78700Y1816483D2*
X129687D1*
X264300D2*
X383687D1*
X528967D2*
X637687D1*
X1534300D2*
X1653687D1*
X2108407D2*
X2155733D1*
X2290347D2*
X2343630D1*
X303617Y1626983D2*
X344263D1*
X557617D2*
X598263D1*
X811617D2*
X852263D1*
X1065617D2*
X1106263D1*
X1319617D2*
X1360263D1*
X1573617D2*
X1614263D1*
X303617Y1563817D2*
X350443D1*
X557617D2*
X604443D1*
X811617D2*
X858443D1*
X1065617D2*
X1112443D1*
X1319617D2*
X1366443D1*
X1573617D2*
X1620443D1*
X1827617D2*
X1874443D1*
X2081617D2*
X2128443D1*
X2699997Y1437483D2*
X2721307D1*
X2626450Y1374317D2*
X2666777D1*
X302253Y1311150D2*
X351813D1*
X556253D2*
X605813D1*
X810253D2*
X859813D1*
X1064253D2*
X1113813D1*
X1318253D2*
X1367813D1*
X1572253D2*
X1621813D1*
X1826253D2*
X1875813D1*
X2080253D2*
X2129813D1*
X2562703D2*
X2614000D1*
X2697270Y1184817D2*
X2721367D1*
X2598547Y1121650D2*
X2621630D1*
X300763Y1058483D2*
X353300D1*
X554763D2*
X607300D1*
X808763D2*
X861300D1*
X1062763D2*
X1115300D1*
X1316763D2*
X1369300D1*
X1570763D2*
X1623300D1*
X1824763D2*
X1877300D1*
X2078763D2*
X2131300D1*
X2560347D2*
X2595857D1*
X2654603Y932150D2*
X2721280D1*
X2599663Y868983D2*
X2721280D1*
X299150Y805817D2*
X354790D1*
X553150D2*
X608790D1*
X807150D2*
X862790D1*
X1061150D2*
X1116790D1*
X1315150D2*
X1370790D1*
X1569150D2*
X1624790D1*
X1823150D2*
X1878790D1*
X2077150D2*
X2132790D1*
X2557867D2*
X2721280D1*
X2616280Y742650D2*
X2721280D1*
X2625707Y679483D2*
X2721280D1*
X2354840Y616317D2*
X2385300D1*
X2600653D2*
X2721280D1*
X297663Y553150D2*
X356400D1*
X551663D2*
X610400D1*
X805663D2*
X864400D1*
X1059663D2*
X1118400D1*
X1313663D2*
X1372400D1*
X1567663D2*
X1626400D1*
X1821663D2*
X1880400D1*
X2075663D2*
X2134400D1*
X2329663D2*
X2721280D1*
X2372947Y489983D2*
X2721280D1*
X2379643Y426817D2*
X2721280D1*
X2355833Y363650D2*
X2721280D1*
X296050Y300483D2*
X358013D1*
X550050D2*
X612013D1*
X804050D2*
X866013D1*
X1058050D2*
X1120013D1*
X1312050D2*
X1374013D1*
X1566050D2*
X1628013D1*
X1820050D2*
X1882013D1*
X2074050D2*
X2136013D1*
X2328050D2*
X2721280D1*
X2372577Y237317D2*
X2721280D1*
X2379770Y174150D2*
X2721280D1*
X2356700Y110983D2*
X2721280D1*
X1615243Y5997930D2*
X1396930D1*
Y6427670D1*
X545953Y6427650D1*
X574660Y6393193D1*
X589147Y6371513D1*
X601890Y6348763D1*
X612803Y6325083D1*
X621830Y6300620D1*
X628907Y6275523D1*
X633993Y6249950D1*
X637060Y6224053D1*
X638083Y6198000D1*
X637060Y6171947D1*
X633993Y6146050D1*
X628907Y6120477D1*
X621830Y6095380D1*
X612803Y6070917D1*
X601890Y6047237D1*
X589147Y6024487D1*
X574660Y6002807D1*
X558517Y5982330D1*
X540820Y5963180D1*
X521670Y5945483D1*
X501193Y5929340D1*
X479513Y5914853D1*
X456763Y5902110D1*
X433083Y5891197D1*
X408620Y5882170D1*
X383523Y5875093D1*
X357950Y5870007D1*
X332053Y5866940D1*
X306000Y5865917D1*
X279947Y5866940D1*
X254050Y5870007D1*
X228477Y5875093D1*
X203380Y5882170D1*
X178917Y5891197D1*
X155237Y5902110D1*
X132487Y5914853D1*
X110807Y5929340D1*
X90330Y5945483D1*
X72303Y5962143D1*
X72350Y5371093D1*
X315070Y5371070D1*
X315650Y5257523D1*
X319090Y5276240D1*
X325283Y5294237D1*
X334093Y5311107D1*
X345327Y5326470D1*
X358730Y5339983D1*
X374000Y5351343D1*
X390793Y5360297D1*
X408740Y5366640D1*
X427430Y5370233D1*
X446447Y5370993D1*
X465363Y5368903D1*
X483757Y5364013D1*
X501213Y5356430D1*
X517340Y5346327D1*
X531780Y5333927D1*
X544203Y5319507D1*
X554333Y5303397D1*
X561943Y5285953D1*
X566867Y5267567D1*
X568983Y5248653D1*
X568437Y5231320D1*
X566853Y5220553D1*
X893770Y5220570D1*
Y5108777D1*
X908990Y5108790D1*
Y4670863D1*
X1406780Y4670960D1*
X1436170Y4699317D1*
X1448670Y4706320D1*
X1458850Y4709490D1*
X1477883Y4724487D1*
X1490200Y4732033D1*
X1503550Y4737563D1*
X1517597Y4740937D1*
X1532000Y4742070D1*
X1546403Y4740937D1*
X1560450Y4737563D1*
X1573800Y4732033D1*
X1586117Y4724487D1*
X1597103Y4715103D1*
X1606487Y4704117D1*
X1614033Y4691800D1*
X1619563Y4678450D1*
X1622937Y4664403D1*
X1624070Y4650000D1*
X1622937Y4635597D1*
X1619563Y4621550D1*
X1614033Y4608200D1*
X1606487Y4595883D1*
X1597103Y4584897D1*
X1586117Y4575513D1*
X1573800Y4567967D1*
X1560450Y4562437D1*
X1546403Y4559063D1*
X1532000Y4557930D1*
X1517597Y4559063D1*
X1503550Y4562437D1*
X1490200Y4567967D1*
X1481333Y4573207D1*
X1467830Y4560683D1*
X1455330Y4553680D1*
X1441537Y4549790D1*
X1432000Y4549040D1*
X893863D1*
X893770Y4420990D1*
X913127Y4420243D1*
X929217Y4415707D1*
X940013Y4410070D1*
X950507Y4409527D1*
X964777Y4411787D1*
X979223D1*
X993493Y4409527D1*
X1007233Y4405060D1*
X1020107Y4398503D1*
X1031793Y4390010D1*
X1042010Y4379793D1*
X1050503Y4368107D1*
X1057060Y4355233D1*
X1061527Y4341493D1*
X1063787Y4327223D1*
Y4312777D1*
X1061527Y4298507D1*
X1058967Y4289933D1*
X1425783Y4289773D1*
X1439837Y4286977D1*
X1452853Y4280977D1*
X1464677Y4271487D1*
X1566353Y4169590D1*
X1574317Y4157677D1*
X1579277Y4144230D1*
X1580927Y4129160D1*
X1580960Y3578963D1*
X1594487Y3564117D1*
X1602033Y3551800D1*
X1606673Y3540863D1*
X1781027Y3540960D1*
X1795883Y3554487D1*
X1808200Y3562033D1*
X1821550Y3567563D1*
X1835597Y3570937D1*
X1850000Y3572070D1*
X1864403Y3570937D1*
X1878450Y3567563D1*
X1891800Y3562033D1*
X1904117Y3554487D1*
X1915103Y3545103D1*
X1924487Y3534117D1*
X1932033Y3521800D1*
X1937563Y3508450D1*
X1940937Y3494403D1*
X1942070Y3480000D1*
X1940937Y3465597D1*
X1937563Y3451550D1*
X1932033Y3438200D1*
X1924487Y3425883D1*
X1915103Y3414897D1*
X1904117Y3405513D1*
X1891800Y3397967D1*
X1878450Y3392437D1*
X1864403Y3389063D1*
X1850000Y3387930D1*
X1835597Y3389063D1*
X1821550Y3392437D1*
X1808200Y3397967D1*
X1795883Y3405513D1*
X1781043Y3419063D1*
X1635317Y3419040D1*
X1568723Y3352963D1*
X1567000Y3350960D1*
X1739537Y3350210D1*
X1753330Y3346320D1*
X1765830Y3339317D1*
X1773107Y3333107D1*
X2049317Y3055830D1*
X2056320Y3043330D1*
X2060210Y3029537D1*
X2060960Y3020000D1*
X2061030Y2317070D1*
X2246790D1*
X2174553Y2389237D1*
X2154767Y2394940D1*
X2141893Y2401497D1*
X2130207Y2409990D1*
X2119990Y2420207D1*
X2111497Y2431893D1*
X2104940Y2444767D1*
X2100473Y2458507D1*
X2098213Y2472777D1*
Y2487223D1*
X2100473Y2501493D1*
X2104940Y2515233D1*
X2111497Y2528107D1*
X2119990Y2539793D1*
X2130207Y2550010D1*
X2141893Y2558503D1*
X2154767Y2565060D1*
X2168507Y2569527D1*
X2182777Y2571787D1*
X2198877Y2571590D1*
X2161090Y2609687D1*
X2150973Y2624830D1*
X2144670Y2641913D1*
X2142530Y2660000D1*
X2142563Y2660830D1*
X2142530Y3393350D1*
X2129793Y3379990D1*
X2118107Y3371497D1*
X2105233Y3364940D1*
X2091493Y3360473D1*
X2077223Y3358213D1*
X2062777D1*
X2048507Y3360473D1*
X2034767Y3364940D1*
X2021893Y3371497D1*
X2010207Y3379990D1*
X1999990Y3390207D1*
X1991497Y3401893D1*
X1984940Y3414767D1*
X1980473Y3428507D1*
X1978213Y3442777D1*
Y3457223D1*
X1980473Y3471493D1*
X1984940Y3485233D1*
X1991497Y3498107D1*
X1999990Y3509793D1*
X2009063Y3518957D1*
X2008507Y4510473D1*
X1994767Y4514940D1*
X1981893Y4521497D1*
X1970207Y4529990D1*
X1959990Y4540207D1*
X1951497Y4551893D1*
X1944940Y4564767D1*
X1940473Y4578507D1*
X1938213Y4592777D1*
Y4607223D1*
X1940473Y4621493D1*
X1944940Y4635233D1*
X1951497Y4648107D1*
X1959990Y4659793D1*
X1970207Y4670010D1*
X1981893Y4678503D1*
X1994767Y4685060D1*
X2008507Y4689527D1*
X2022777Y4691787D1*
X2037223D1*
X2051493Y4689527D1*
X2065233Y4685060D1*
X2078107Y4678503D1*
X2089793Y4670010D1*
X2100010Y4659793D1*
X2108503Y4648107D1*
X2115060Y4635233D1*
X2119527Y4621493D1*
X2121787Y4607223D1*
X2121977Y4591853D1*
X2127977Y4578837D1*
X2130773Y4564783D1*
X2130960Y3519070D1*
X2142547Y3506580D1*
X2142770Y4026077D1*
X2146320Y4043940D1*
X2153947Y4060477D1*
X2165220Y4074780D1*
X2165830Y4075343D1*
X2222843Y4133397D1*
X2220880Y4150000D1*
Y4281590D1*
X2209967Y4298200D1*
X2204437Y4311550D1*
X2201063Y4325597D1*
X2199930Y4340000D1*
X2201063Y4354403D1*
X2204437Y4368450D1*
X2209967Y4381800D1*
X2217513Y4394117D1*
X2226897Y4405103D1*
X2237883Y4414487D1*
X2250200Y4422033D1*
X2263550Y4427563D1*
X2277597Y4430937D1*
X2292000Y4432070D1*
X2306403Y4430937D1*
X2320450Y4427563D1*
X2333800Y4422033D1*
X2349067Y4412160D1*
X2349040Y4464920D1*
X2305770Y4508020D1*
X2285597Y4509063D1*
X2271550Y4512437D1*
X2258200Y4517967D1*
X2245883Y4525513D1*
X2234897Y4534897D1*
X2225513Y4545883D1*
X2217967Y4558200D1*
X2212437Y4571550D1*
X2209063Y4585597D1*
X2207930Y4600000D1*
X2209063Y4614403D1*
X2212437Y4628450D1*
X2217967Y4641800D1*
X2225513Y4654117D1*
X2234897Y4665103D1*
X2245883Y4674487D1*
X2258200Y4682033D1*
X2271550Y4687563D1*
X2285597Y4690937D1*
X2300000Y4692070D1*
X2314403Y4690937D1*
X2328450Y4687563D1*
X2341800Y4682033D1*
X2354117Y4674487D1*
X2365103Y4665103D1*
X2374487Y4654117D1*
X2382033Y4641800D1*
X2387563Y4628450D1*
X2390937Y4614403D1*
X2391847Y4594327D1*
X2400133Y4600790D1*
X2400010Y4854790D1*
Y5108790D1*
X2415267D1*
X2415230Y5220570D1*
X2727697D1*
X2727650Y6091330D1*
X2624767Y6091430D1*
X2624790Y6001710D1*
X2611023D1*
X2608923Y5851910D1*
X2606563Y5838100D1*
X2602070Y5824827D1*
X2575567Y5777537D1*
X2568930Y5767603D1*
X2537747Y5727540D1*
X2498080Y5688427D1*
X2453547Y5654953D1*
X2404943Y5627727D1*
X2353143Y5607233D1*
X2307373Y5595667D1*
X2301290Y5586790D1*
Y5578710D1*
X1922710D1*
Y5589747D1*
X1880273Y5589710D1*
X1880290Y5574710D1*
X1870740D1*
X1870790Y5448190D1*
X2138070Y5448270D1*
Y5116730D1*
X1805930D1*
Y5119533D1*
X1757143Y5119510D1*
X1757070Y5116730D1*
X1645277D1*
X1645290Y5101510D1*
X1409710D1*
Y5116763D1*
X1170930Y5116730D1*
Y5448270D1*
X1409723D1*
X1409710Y5463490D1*
X1645290D1*
Y5448237D1*
X1692250Y5448270D1*
X1692210Y5574823D1*
X1681710Y5574710D1*
Y5953290D1*
X1691757D1*
X1667750Y5975250D1*
X1615250D1*
Y5997947D1*
X2160070Y6427670D2*
Y5996930D1*
X1944740D1*
X1944750Y5975250D1*
X1870213D1*
X1870290Y5953213D1*
X1880290Y5953290D1*
Y5768283D1*
X1922760Y5768290D1*
X1922710Y5777290D1*
X2297830D1*
X2328947Y5789533D1*
X2356630Y5805167D1*
X2381980Y5824357D1*
X2404540Y5846757D1*
X2423907Y5871970D1*
X2431103Y5892837D1*
X2432430Y6001597D1*
X2421210Y6001710D1*
Y6091380D1*
X2265930Y6091430D1*
Y6420570D1*
X2418453D1*
X2418430Y6427690D1*
X2159993Y6427650D1*
X2480120Y6210290D2*
X2565947D1*
X2565930Y6298920D1*
X2480057Y6298930D1*
X2480070Y6210300D1*
X1869073Y2062930D2*
X1528013D1*
X1527960Y1816520D1*
X1541690Y1807803D1*
X1556853Y1794853D1*
X1569803Y1779690D1*
X1580220Y1762690D1*
X1587850Y1744267D1*
X1592507Y1724877D1*
X1593960Y1707767D1*
X1595493Y1724877D1*
X1600150Y1744267D1*
X1607780Y1762690D1*
X1618197Y1779690D1*
X1631147Y1794853D1*
X1646310Y1807803D1*
X1663310Y1818220D1*
X1681733Y1825850D1*
X1701123Y1830507D1*
X1721000Y1832070D1*
X1740877Y1830507D1*
X1756703Y1826857D1*
X1868987Y1939200D1*
X1869040Y2062953D1*
X1670903Y2317070D2*
X1869090D1*
X1869040Y2984693D1*
X1694750Y3159040D1*
X1467117D1*
X1516317Y3108830D1*
X1523320Y3096330D1*
X1527210Y3082537D1*
X1527960Y3073000D1*
X1527967Y2611800D1*
X1535513Y2624117D1*
X1544897Y2635103D1*
X1555883Y2644487D1*
X1568200Y2652033D1*
X1581550Y2657563D1*
X1595597Y2660937D1*
X1610000Y2662070D1*
X1624403Y2660937D1*
X1638450Y2657563D1*
X1651800Y2652033D1*
X1664117Y2644487D1*
X1675103Y2635103D1*
X1684487Y2624117D1*
X1692033Y2611800D1*
X1697563Y2598450D1*
X1700937Y2584403D1*
X1702070Y2570000D1*
X1700937Y2555597D1*
X1697563Y2541550D1*
X1692033Y2528200D1*
X1684487Y2515883D1*
X1670937Y2501043D1*
X1670960Y2317117D1*
X1689280Y2317070D1*
X2257070Y2062930D2*
X2060940D1*
X2060960Y1831980D1*
X2102070Y1832070D1*
Y1744137D1*
X2108937Y1761003D1*
X2118583Y1777413D1*
X2130567Y1792197D1*
X2144627Y1805023D1*
X2160447Y1815607D1*
X2177667Y1823710D1*
X2195907Y1829147D1*
X2214753Y1831803D1*
X2233783Y1831610D1*
X2252573Y1828580D1*
X2270700Y1822777D1*
X2287753Y1814333D1*
X2303357Y1803433D1*
X2317160Y1790330D1*
X2328847Y1775307D1*
X2338160Y1758710D1*
X2344890Y1740910D1*
X2348887Y1722300D1*
X2349930Y1710520D1*
Y1832070D1*
X2399663D1*
X2399530Y2062807D1*
X2212930Y2063053D1*
X2102070Y1666003D2*
Y1577930D1*
X2057547D1*
X2070410Y1568197D1*
X2086197Y1552410D1*
X2099323Y1534347D1*
X2105220Y1524597D1*
X2116883Y1543637D1*
X2131387Y1560613D1*
X2148363Y1575117D1*
X2167403Y1586780D1*
X2171643Y1588737D1*
X2153573Y1598573D1*
X2138457Y1610137D1*
X2125237Y1623827D1*
X2114210Y1639340D1*
X2105623Y1656323D1*
X2102073Y1666087D1*
X1898300Y1577930D2*
X1847930D1*
X1847677Y1695030D1*
X1844560Y1675337D1*
X1838397Y1656373D1*
X1829343Y1638607D1*
X1817623Y1622473D1*
X1803527Y1608377D1*
X1787393Y1596657D1*
X1778453Y1591460D1*
X1798347Y1581323D1*
X1816410Y1568197D1*
X1832197Y1552410D1*
X1845323Y1534347D1*
X1851220Y1524597D1*
X1862883Y1543637D1*
X1877387Y1560613D1*
X1894363Y1575117D1*
X1898610Y1577953D1*
X1666673Y1590230D2*
X1646310Y1602197D1*
X1631147Y1615147D1*
X1618197Y1630310D1*
X1607780Y1647310D1*
X1600150Y1665733D1*
X1595493Y1685123D1*
X1594040Y1702233D1*
X1592507Y1685123D1*
X1587850Y1665733D1*
X1580220Y1647310D1*
X1569803Y1630310D1*
X1556853Y1615147D1*
X1541690Y1602197D1*
X1524453Y1591460D1*
X1544347Y1581323D1*
X1562410Y1568197D1*
X1578197Y1552410D1*
X1591323Y1534347D1*
X1597220Y1524597D1*
X1608883Y1543637D1*
X1623387Y1560613D1*
X1640363Y1575117D1*
X1659403Y1586780D1*
X1666653Y1590127D1*
X1412673Y1590230D2*
X1392310Y1602197D1*
X1377147Y1615147D1*
X1364197Y1630310D1*
X1353780Y1647310D1*
X1346150Y1665733D1*
X1341493Y1685123D1*
X1340040Y1702233D1*
X1338507Y1685123D1*
X1333850Y1665733D1*
X1326220Y1647310D1*
X1315803Y1630310D1*
X1302853Y1615147D1*
X1287690Y1602197D1*
X1270453Y1591460D1*
X1290347Y1581323D1*
X1308410Y1568197D1*
X1324197Y1552410D1*
X1337323Y1534347D1*
X1343220Y1524597D1*
X1354883Y1543637D1*
X1369387Y1560613D1*
X1386363Y1575117D1*
X1405403Y1586780D1*
X1412653Y1590127D1*
X1158673Y1590230D2*
X1138310Y1602197D1*
X1123147Y1615147D1*
X1110197Y1630310D1*
X1099780Y1647310D1*
X1092150Y1665733D1*
X1087493Y1685123D1*
X1086040Y1702233D1*
X1084507Y1685123D1*
X1079850Y1665733D1*
X1072220Y1647310D1*
X1061803Y1630310D1*
X1048853Y1615147D1*
X1033690Y1602197D1*
X1016453Y1591460D1*
X1036347Y1581323D1*
X1054410Y1568197D1*
X1070197Y1552410D1*
X1083323Y1534347D1*
X1089220Y1524597D1*
X1100883Y1543637D1*
X1115387Y1560613D1*
X1132363Y1575117D1*
X1151403Y1586780D1*
X1158653Y1590127D1*
X1185057Y1828900D2*
X1203030Y1831677D1*
X1222970D1*
X1242663Y1828560D1*
X1248703Y1826857D1*
X1349060Y1927273D1*
X1349040Y1992910D1*
X1185170Y1828957D1*
X904673Y1590230D2*
X884310Y1602197D1*
X869147Y1615147D1*
X856197Y1630310D1*
X845780Y1647310D1*
X838150Y1665733D1*
X833493Y1685123D1*
X832040Y1702233D1*
X830507Y1685123D1*
X825850Y1665733D1*
X818220Y1647310D1*
X807803Y1630310D1*
X794853Y1615147D1*
X779690Y1602197D1*
X762453Y1591460D1*
X782347Y1581323D1*
X800410Y1568197D1*
X816197Y1552410D1*
X829323Y1534347D1*
X835220Y1524597D1*
X846883Y1543637D1*
X861387Y1560613D1*
X878363Y1575117D1*
X897403Y1586780D1*
X904653Y1590127D1*
X650673Y1590230D2*
X630310Y1602197D1*
X615147Y1615147D1*
X602197Y1630310D1*
X591780Y1647310D1*
X584150Y1665733D1*
X579493Y1685123D1*
X578040Y1702233D1*
X576507Y1685123D1*
X571850Y1665733D1*
X564220Y1647310D1*
X553803Y1630310D1*
X540853Y1615147D1*
X525690Y1602197D1*
X508453Y1591460D1*
X528347Y1581323D1*
X546410Y1568197D1*
X562197Y1552410D1*
X575323Y1534347D1*
X581220Y1524597D1*
X592883Y1543637D1*
X607387Y1560613D1*
X624363Y1575117D1*
X643403Y1586780D1*
X650653Y1590127D1*
X578040Y1707767D2*
X579493Y1724877D1*
X584150Y1744267D1*
X591780Y1762690D1*
X602197Y1779690D1*
X615147Y1794853D1*
X630310Y1807803D1*
X647310Y1818220D1*
X665733Y1825850D1*
X684347Y1830557D1*
X732500Y1879040D1*
X585283D1*
X518653Y1812440D1*
X533527Y1801623D1*
X547623Y1787527D1*
X559343Y1771393D1*
X568397Y1753627D1*
X574560Y1734663D1*
X577677Y1714970D1*
X577960Y1707767D1*
X396673Y1590230D2*
X376310Y1602197D1*
X361147Y1615147D1*
X348197Y1630310D1*
X337780Y1647310D1*
X330150Y1665733D1*
X325493Y1685123D1*
X324040Y1702233D1*
X322507Y1685123D1*
X317850Y1665733D1*
X310220Y1647310D1*
X299803Y1630310D1*
X286853Y1615147D1*
X271690Y1602197D1*
X254453Y1591460D1*
X274347Y1581323D1*
X292410Y1568197D1*
X308197Y1552410D1*
X321323Y1534347D1*
X327220Y1524597D1*
X338883Y1543637D1*
X353387Y1560613D1*
X370363Y1575117D1*
X389403Y1586780D1*
X396653Y1590127D1*
X324040Y1707767D2*
X325493Y1724877D1*
X330150Y1744267D1*
X337780Y1762690D1*
X348197Y1779690D1*
X361147Y1794853D1*
X376310Y1807803D1*
X390080Y1816410D1*
X390790Y1840537D1*
X394680Y1854330D1*
X401683Y1866830D1*
X407893Y1874107D1*
X462880Y1929093D1*
X345110Y1929040D1*
X257957Y1841747D1*
X257960Y1816523D1*
X271690Y1807803D1*
X286853Y1794853D1*
X299803Y1779690D1*
X310220Y1762690D1*
X317850Y1744267D1*
X322507Y1724877D1*
X323960Y1707767D1*
X72323Y1729043D2*
X76150Y1744267D1*
X83780Y1762690D1*
X94197Y1779690D1*
X107147Y1794853D1*
X122310Y1807803D1*
X136080Y1816410D1*
X136790Y1876537D1*
X140680Y1890330D1*
X147683Y1902830D1*
X153893Y1910107D1*
X284170Y2039317D1*
X296670Y2046320D1*
X310463Y2050210D1*
X320000Y2050960D1*
X984890D1*
X1089057Y2155267D1*
X1089040Y2704730D1*
X1024723Y2769067D1*
X893853Y2769040D1*
X893770Y2602430D1*
X562230D1*
Y2627903D1*
X550197Y2611590D1*
X534410Y2595803D1*
X516347Y2582677D1*
X506597Y2576780D1*
X525637Y2565117D1*
X542613Y2550613D1*
X557117Y2533637D1*
X568780Y2514597D1*
X577327Y2493970D1*
X582537Y2472260D1*
X584290Y2450000D1*
X582537Y2427740D1*
X577327Y2406030D1*
X568780Y2385403D1*
X557117Y2366363D1*
X542613Y2349387D1*
X525637Y2334883D1*
X506163Y2323017D1*
X525637Y2311117D1*
X542613Y2296613D1*
X557117Y2279637D1*
X568780Y2260597D1*
X577327Y2239970D1*
X582537Y2218260D1*
X584290Y2196000D1*
X582537Y2173740D1*
X577327Y2152030D1*
X568780Y2131403D1*
X557117Y2112363D1*
X542613Y2095387D1*
X525637Y2080883D1*
X506597Y2069220D1*
X485970Y2060673D1*
X464260Y2055463D1*
X442000Y2053710D1*
X419740Y2055463D1*
X398030Y2060673D1*
X377403Y2069220D1*
X358363Y2080883D1*
X341387Y2095387D1*
X326883Y2112363D1*
X315220Y2131403D1*
X306930Y2151333D1*
X296343Y2129607D1*
X284623Y2113473D1*
X270527Y2099377D1*
X254393Y2087657D1*
X236627Y2078603D1*
X217663Y2072440D1*
X197970Y2069323D1*
X178030D1*
X158337Y2072440D1*
X139373Y2078603D1*
X121607Y2087657D1*
X105473Y2099377D1*
X91377Y2113473D1*
X79657Y2129607D1*
X72317Y2143657D1*
X72350Y1729767D1*
X2554447Y1832070D2*
X2604070D1*
Y1650870D1*
X2619040Y1651750D1*
Y2484817D1*
X2594713Y2509077D1*
X2480473Y2509040D1*
X2535910Y2453313D1*
X2546027Y2438170D1*
X2552330Y2421087D1*
X2554470Y2403000D1*
X2554437Y2402170D1*
X2554470Y1832120D1*
X2620070Y1394173D2*
Y1327930D1*
X2502970Y1327677D1*
X2522663Y1324560D1*
X2541627Y1318397D1*
X2559393Y1309343D1*
X2575527Y1297623D1*
X2589623Y1283527D1*
X2601280Y1267490D1*
X2617930Y1290000D1*
X2619063Y1304403D1*
X2622437Y1318450D1*
X2627967Y1331800D1*
X2635513Y1344117D1*
X2644897Y1355103D1*
X2655883Y1364487D1*
X2668200Y1372033D1*
X2681550Y1377563D1*
X2695597Y1380937D1*
X2710000Y1382070D1*
X2727700Y1380280D1*
X2727650Y1471460D1*
X2660830Y1405683D1*
X2648330Y1398680D1*
X2634537Y1394790D1*
X2620163Y1394040D1*
X2604410Y1140080D2*
X2595803Y1126310D1*
X2582853Y1111147D1*
X2567690Y1098197D1*
X2550690Y1087780D1*
X2532267Y1080150D1*
X2512877Y1075493D1*
X2495767Y1074040D1*
X2512877Y1072507D1*
X2532267Y1067850D1*
X2550690Y1060220D1*
X2567690Y1049803D1*
X2581737Y1037883D1*
X2618173Y1074383D1*
X2619063Y1094403D1*
X2622437Y1108450D1*
X2627967Y1121800D1*
X2635513Y1134117D1*
X2644330Y1144680D1*
X2630537Y1140790D1*
X2604503Y1140040D1*
X2620160Y1140073D1*
X2608880Y895080D2*
X2601343Y880607D1*
X2589623Y864473D1*
X2575527Y850377D1*
X2559393Y838657D1*
X2541627Y829603D1*
X2522663Y823440D1*
X2502970Y820323D1*
X2495767Y820040D1*
X2512877Y818507D1*
X2532267Y813850D1*
X2550690Y806220D1*
X2567690Y795803D1*
X2582853Y782853D1*
X2595803Y767690D1*
X2606220Y750690D1*
X2613850Y732267D1*
X2618507Y712877D1*
X2620070Y693000D1*
X2618507Y673123D1*
X2613850Y653733D1*
X2606220Y635310D1*
X2595803Y618310D1*
X2582853Y603147D1*
X2567690Y590197D1*
X2550690Y579780D1*
X2532267Y572150D1*
X2512877Y567493D1*
X2493000Y565930D1*
X2473123Y567493D1*
X2453733Y572150D1*
X2435310Y579780D1*
X2418310Y590197D1*
X2403147Y603147D1*
X2390197Y618310D1*
X2379780Y635310D1*
X2372150Y653733D1*
X2369727Y662323D1*
X2363460Y643547D1*
X2353323Y623653D1*
X2340197Y605590D1*
X2324410Y589803D1*
X2306347Y576677D1*
X2296597Y570780D1*
X2315637Y559117D1*
X2332613Y544613D1*
X2347117Y527637D1*
X2358780Y508597D1*
X2367327Y487970D1*
X2372537Y466260D1*
X2374290Y444000D1*
X2372537Y421740D1*
X2367327Y400030D1*
X2358780Y379403D1*
X2347117Y360363D1*
X2332613Y343387D1*
X2315637Y328883D1*
X2296163Y317017D1*
X2315637Y305117D1*
X2332613Y290613D1*
X2347117Y273637D1*
X2358780Y254597D1*
X2367327Y233970D1*
X2372537Y212260D1*
X2374290Y190000D1*
X2372537Y167740D1*
X2367327Y146030D1*
X2358780Y125403D1*
X2347117Y106363D1*
X2332613Y89387D1*
X2315637Y74883D1*
X2311827Y72340D1*
X2727650Y72350D1*
Y989750D1*
X2710000Y987930D1*
X2704327Y988153D1*
X2612830Y897683D1*
X2611913Y897070D1*
X2612830Y897683D1*
X2611913Y897070D1*
X326983Y1141837D2*
X315117Y1122363D1*
X300613Y1105387D1*
X283637Y1090883D1*
X264163Y1079017D1*
X283637Y1067117D1*
X300613Y1052613D1*
X315117Y1035637D1*
X326983Y1016163D1*
X338883Y1035637D1*
X353387Y1052613D1*
X370363Y1067117D1*
X389837Y1078983D1*
X370363Y1090883D1*
X353387Y1105387D1*
X338883Y1122363D1*
X327017Y1141837D1*
X264163Y1332983D2*
X283637Y1321117D1*
X300613Y1306613D1*
X315117Y1289637D1*
X326983Y1270163D1*
X338883Y1289637D1*
X353387Y1306613D1*
X370363Y1321117D1*
X389837Y1332983D1*
X370363Y1344883D1*
X353387Y1359387D1*
X338883Y1376363D1*
X327017Y1395837D1*
X315117Y1376363D1*
X300613Y1359387D1*
X283637Y1344883D1*
X264163Y1333017D1*
X580983Y1141837D2*
X569117Y1122363D1*
X554613Y1105387D1*
X537637Y1090883D1*
X518163Y1079017D1*
X537637Y1067117D1*
X554613Y1052613D1*
X569117Y1035637D1*
X580983Y1016163D1*
X592883Y1035637D1*
X607387Y1052613D1*
X624363Y1067117D1*
X643837Y1078983D1*
X624363Y1090883D1*
X607387Y1105387D1*
X592883Y1122363D1*
X581017Y1141837D1*
X518163Y1332983D2*
X537637Y1321117D1*
X554613Y1306613D1*
X569117Y1289637D1*
X580983Y1270163D1*
X592883Y1289637D1*
X607387Y1306613D1*
X624363Y1321117D1*
X643837Y1332983D1*
X624363Y1344883D1*
X607387Y1359387D1*
X592883Y1376363D1*
X581017Y1395837D1*
X569117Y1376363D1*
X554613Y1359387D1*
X537637Y1344883D1*
X518163Y1333017D1*
X834983Y1141837D2*
X823117Y1122363D1*
X808613Y1105387D1*
X791637Y1090883D1*
X772163Y1079017D1*
X791637Y1067117D1*
X808613Y1052613D1*
X823117Y1035637D1*
X834983Y1016163D1*
X846883Y1035637D1*
X861387Y1052613D1*
X878363Y1067117D1*
X897837Y1078983D1*
X878363Y1090883D1*
X861387Y1105387D1*
X846883Y1122363D1*
X835017Y1141837D1*
X772163Y1332983D2*
X791637Y1321117D1*
X808613Y1306613D1*
X823117Y1289637D1*
X834983Y1270163D1*
X846883Y1289637D1*
X861387Y1306613D1*
X878363Y1321117D1*
X897837Y1332983D1*
X878363Y1344883D1*
X861387Y1359387D1*
X846883Y1376363D1*
X835017Y1395837D1*
X823117Y1376363D1*
X808613Y1359387D1*
X791637Y1344883D1*
X772163Y1333017D1*
X1088983Y1141837D2*
X1077117Y1122363D1*
X1062613Y1105387D1*
X1045637Y1090883D1*
X1026163Y1079017D1*
X1045637Y1067117D1*
X1062613Y1052613D1*
X1077117Y1035637D1*
X1088983Y1016163D1*
X1100883Y1035637D1*
X1115387Y1052613D1*
X1132363Y1067117D1*
X1151837Y1078983D1*
X1132363Y1090883D1*
X1115387Y1105387D1*
X1100883Y1122363D1*
X1089017Y1141837D1*
X1026163Y1332983D2*
X1045637Y1321117D1*
X1062613Y1306613D1*
X1077117Y1289637D1*
X1088983Y1270163D1*
X1100883Y1289637D1*
X1115387Y1306613D1*
X1132363Y1321117D1*
X1151837Y1332983D1*
X1132363Y1344883D1*
X1115387Y1359387D1*
X1100883Y1376363D1*
X1089017Y1395837D1*
X1077117Y1376363D1*
X1062613Y1359387D1*
X1045637Y1344883D1*
X1026163Y1333017D1*
X1342983Y1141837D2*
X1331117Y1122363D1*
X1316613Y1105387D1*
X1299637Y1090883D1*
X1280163Y1079017D1*
X1299637Y1067117D1*
X1316613Y1052613D1*
X1331117Y1035637D1*
X1342983Y1016163D1*
X1354883Y1035637D1*
X1369387Y1052613D1*
X1386363Y1067117D1*
X1405837Y1078983D1*
X1386363Y1090883D1*
X1369387Y1105387D1*
X1354883Y1122363D1*
X1343017Y1141837D1*
X1280163Y1332983D2*
X1299637Y1321117D1*
X1316613Y1306613D1*
X1331117Y1289637D1*
X1342983Y1270163D1*
X1354883Y1289637D1*
X1369387Y1306613D1*
X1386363Y1321117D1*
X1405837Y1332983D1*
X1386363Y1344883D1*
X1369387Y1359387D1*
X1354883Y1376363D1*
X1343017Y1395837D1*
X1331117Y1376363D1*
X1316613Y1359387D1*
X1299637Y1344883D1*
X1280163Y1333017D1*
X1596983Y1141837D2*
X1585117Y1122363D1*
X1570613Y1105387D1*
X1553637Y1090883D1*
X1534163Y1079017D1*
X1553637Y1067117D1*
X1570613Y1052613D1*
X1585117Y1035637D1*
X1596983Y1016163D1*
X1608883Y1035637D1*
X1623387Y1052613D1*
X1640363Y1067117D1*
X1659837Y1078983D1*
X1640363Y1090883D1*
X1623387Y1105387D1*
X1608883Y1122363D1*
X1597017Y1141837D1*
X1534163Y1332983D2*
X1553637Y1321117D1*
X1570613Y1306613D1*
X1585117Y1289637D1*
X1596983Y1270163D1*
X1608883Y1289637D1*
X1623387Y1306613D1*
X1640363Y1321117D1*
X1659837Y1332983D1*
X1640363Y1344883D1*
X1623387Y1359387D1*
X1608883Y1376363D1*
X1597017Y1395837D1*
X1585117Y1376363D1*
X1570613Y1359387D1*
X1553637Y1344883D1*
X1534163Y1333017D1*
X1850983Y1141837D2*
X1839117Y1122363D1*
X1824613Y1105387D1*
X1807637Y1090883D1*
X1788163Y1079017D1*
X1807637Y1067117D1*
X1824613Y1052613D1*
X1839117Y1035637D1*
X1850983Y1016163D1*
X1862883Y1035637D1*
X1877387Y1052613D1*
X1894363Y1067117D1*
X1913837Y1078983D1*
X1894363Y1090883D1*
X1877387Y1105387D1*
X1862883Y1122363D1*
X1851017Y1141837D1*
X1788163Y1332983D2*
X1807637Y1321117D1*
X1824613Y1306613D1*
X1839117Y1289637D1*
X1850983Y1270163D1*
X1862883Y1289637D1*
X1877387Y1306613D1*
X1894363Y1321117D1*
X1913837Y1332983D1*
X1894363Y1344883D1*
X1877387Y1359387D1*
X1862883Y1376363D1*
X1851017Y1395837D1*
X1839117Y1376363D1*
X1824613Y1359387D1*
X1807637Y1344883D1*
X1788163Y1333017D1*
X326983Y887837D2*
X315117Y868363D1*
X300613Y851387D1*
X283637Y836883D1*
X264163Y825017D1*
X283637Y813117D1*
X300613Y798613D1*
X315117Y781637D1*
X326983Y762163D1*
X338883Y781637D1*
X353387Y798613D1*
X370363Y813117D1*
X389837Y824983D1*
X370363Y836883D1*
X353387Y851387D1*
X338883Y868363D1*
X327017Y887837D1*
X580983D2*
X569117Y868363D1*
X554613Y851387D1*
X537637Y836883D1*
X518163Y825017D1*
X537637Y813117D1*
X554613Y798613D1*
X569117Y781637D1*
X580983Y762163D1*
X592883Y781637D1*
X607387Y798613D1*
X624363Y813117D1*
X643837Y824983D1*
X624363Y836883D1*
X607387Y851387D1*
X592883Y868363D1*
X581017Y887837D1*
X834983D2*
X823117Y868363D1*
X808613Y851387D1*
X791637Y836883D1*
X772163Y825017D1*
X791637Y813117D1*
X808613Y798613D1*
X823117Y781637D1*
X834983Y762163D1*
X846883Y781637D1*
X861387Y798613D1*
X878363Y813117D1*
X897837Y824983D1*
X878363Y836883D1*
X861387Y851387D1*
X846883Y868363D1*
X835017Y887837D1*
X1088983D2*
X1077117Y868363D1*
X1062613Y851387D1*
X1045637Y836883D1*
X1026163Y825017D1*
X1045637Y813117D1*
X1062613Y798613D1*
X1077117Y781637D1*
X1088983Y762163D1*
X1100883Y781637D1*
X1115387Y798613D1*
X1132363Y813117D1*
X1151837Y824983D1*
X1132363Y836883D1*
X1115387Y851387D1*
X1100883Y868363D1*
X1089017Y887837D1*
X1342983D2*
X1331117Y868363D1*
X1316613Y851387D1*
X1299637Y836883D1*
X1280163Y825017D1*
X1299637Y813117D1*
X1316613Y798613D1*
X1331117Y781637D1*
X1342983Y762163D1*
X1354883Y781637D1*
X1369387Y798613D1*
X1386363Y813117D1*
X1405837Y824983D1*
X1386363Y836883D1*
X1369387Y851387D1*
X1354883Y868363D1*
X1343017Y887837D1*
X1596983D2*
X1585117Y868363D1*
X1570613Y851387D1*
X1553637Y836883D1*
X1534163Y825017D1*
X1553637Y813117D1*
X1570613Y798613D1*
X1585117Y781637D1*
X1596983Y762163D1*
X1608883Y781637D1*
X1623387Y798613D1*
X1640363Y813117D1*
X1659837Y824983D1*
X1640363Y836883D1*
X1623387Y851387D1*
X1608883Y868363D1*
X1597017Y887837D1*
X1850983D2*
X1839117Y868363D1*
X1824613Y851387D1*
X1807637Y836883D1*
X1788163Y825017D1*
X1807637Y813117D1*
X1824613Y798613D1*
X1839117Y781637D1*
X1850983Y762163D1*
X1862883Y781637D1*
X1877387Y798613D1*
X1894363Y813117D1*
X1913837Y824983D1*
X1894363Y836883D1*
X1877387Y851387D1*
X1862883Y868363D1*
X1851017Y887837D1*
X1850983Y633837D2*
X1839117Y614363D1*
X1824613Y597387D1*
X1807637Y582883D1*
X1788163Y571017D1*
X1807637Y559117D1*
X1824613Y544613D1*
X1839117Y527637D1*
X1850983Y508163D1*
X1862883Y527637D1*
X1877387Y544613D1*
X1894363Y559117D1*
X1913837Y570983D1*
X1894363Y582883D1*
X1877387Y597387D1*
X1862883Y614363D1*
X1851017Y633837D1*
X1659837Y571017D2*
X1640363Y582883D1*
X1623387Y597387D1*
X1608883Y614363D1*
X1597017Y633837D1*
X1585117Y614363D1*
X1570613Y597387D1*
X1553637Y582883D1*
X1534163Y571017D1*
X1553637Y559117D1*
X1570613Y544613D1*
X1585117Y527637D1*
X1596983Y508163D1*
X1608883Y527637D1*
X1623387Y544613D1*
X1640363Y559117D1*
X1659837Y570983D1*
X1405837Y571017D2*
X1386363Y582883D1*
X1369387Y597387D1*
X1354883Y614363D1*
X1343017Y633837D1*
X1331117Y614363D1*
X1316613Y597387D1*
X1299637Y582883D1*
X1280163Y571017D1*
X1299637Y559117D1*
X1316613Y544613D1*
X1331117Y527637D1*
X1342983Y508163D1*
X1354883Y527637D1*
X1369387Y544613D1*
X1386363Y559117D1*
X1405837Y570983D1*
X1151837Y571017D2*
X1132363Y582883D1*
X1115387Y597387D1*
X1100883Y614363D1*
X1089017Y633837D1*
X1077117Y614363D1*
X1062613Y597387D1*
X1045637Y582883D1*
X1026163Y571017D1*
X1045637Y559117D1*
X1062613Y544613D1*
X1077117Y527637D1*
X1088983Y508163D1*
X1100883Y527637D1*
X1115387Y544613D1*
X1132363Y559117D1*
X1151837Y570983D1*
X897837Y571017D2*
X878363Y582883D1*
X861387Y597387D1*
X846883Y614363D1*
X835017Y633837D1*
X823117Y614363D1*
X808613Y597387D1*
X791637Y582883D1*
X772163Y571017D1*
X791637Y559117D1*
X808613Y544613D1*
X823117Y527637D1*
X834983Y508163D1*
X846883Y527637D1*
X861387Y544613D1*
X878363Y559117D1*
X897837Y570983D1*
X643837Y571017D2*
X624363Y582883D1*
X607387Y597387D1*
X592883Y614363D1*
X581017Y633837D1*
X569117Y614363D1*
X554613Y597387D1*
X537637Y582883D1*
X518163Y571017D1*
X537637Y559117D1*
X554613Y544613D1*
X569117Y527637D1*
X580983Y508163D1*
X592883Y527637D1*
X607387Y544613D1*
X624363Y559117D1*
X643837Y570983D1*
X389837Y571017D2*
X370363Y582883D1*
X353387Y597387D1*
X338883Y614363D1*
X327017Y633837D1*
X315117Y614363D1*
X300613Y597387D1*
X283637Y582883D1*
X264163Y571017D1*
X283637Y559117D1*
X300613Y544613D1*
X315117Y527637D1*
X326983Y508163D1*
X338883Y527637D1*
X353387Y544613D1*
X370363Y559117D1*
X389837Y570983D1*
X326983Y379837D2*
X315117Y360363D1*
X300613Y343387D1*
X283637Y328883D1*
X264163Y317017D1*
X283637Y305117D1*
X300613Y290613D1*
X315117Y273637D1*
X326983Y254163D1*
X338883Y273637D1*
X353387Y290613D1*
X370363Y305117D1*
X389837Y316983D1*
X370363Y328883D1*
X353387Y343387D1*
X338883Y360363D1*
X327017Y379837D1*
X580983D2*
X569117Y360363D1*
X554613Y343387D1*
X537637Y328883D1*
X518163Y317017D1*
X537637Y305117D1*
X554613Y290613D1*
X569117Y273637D1*
X580983Y254163D1*
X592883Y273637D1*
X607387Y290613D1*
X624363Y305117D1*
X643837Y316983D1*
X624363Y328883D1*
X607387Y343387D1*
X592883Y360363D1*
X581017Y379837D1*
X834983D2*
X823117Y360363D1*
X808613Y343387D1*
X791637Y328883D1*
X772163Y317017D1*
X791637Y305117D1*
X808613Y290613D1*
X823117Y273637D1*
X834983Y254163D1*
X846883Y273637D1*
X861387Y290613D1*
X878363Y305117D1*
X897837Y316983D1*
X878363Y328883D1*
X861387Y343387D1*
X846883Y360363D1*
X835017Y379837D1*
X1088983D2*
X1077117Y360363D1*
X1062613Y343387D1*
X1045637Y328883D1*
X1026163Y317017D1*
X1045637Y305117D1*
X1062613Y290613D1*
X1077117Y273637D1*
X1088983Y254163D1*
X1100883Y273637D1*
X1115387Y290613D1*
X1132363Y305117D1*
X1151837Y316983D1*
X1132363Y328883D1*
X1115387Y343387D1*
X1100883Y360363D1*
X1089017Y379837D1*
X1342983D2*
X1331117Y360363D1*
X1316613Y343387D1*
X1299637Y328883D1*
X1280163Y317017D1*
X1299637Y305117D1*
X1316613Y290613D1*
X1331117Y273637D1*
X1342983Y254163D1*
X1354883Y273637D1*
X1369387Y290613D1*
X1386363Y305117D1*
X1405837Y316983D1*
X1386363Y328883D1*
X1369387Y343387D1*
X1354883Y360363D1*
X1343017Y379837D1*
X1596983D2*
X1585117Y360363D1*
X1570613Y343387D1*
X1553637Y328883D1*
X1534163Y317017D1*
X1553637Y305117D1*
X1570613Y290613D1*
X1585117Y273637D1*
X1596983Y254163D1*
X1608883Y273637D1*
X1623387Y290613D1*
X1640363Y305117D1*
X1659837Y316983D1*
X1640363Y328883D1*
X1623387Y343387D1*
X1608883Y360363D1*
X1597017Y379837D1*
X1850983D2*
X1839117Y360363D1*
X1824613Y343387D1*
X1807637Y328883D1*
X1788163Y317017D1*
X1807637Y305117D1*
X1824613Y290613D1*
X1839117Y273637D1*
X1850983Y254163D1*
X1862883Y273637D1*
X1877387Y290613D1*
X1894363Y305117D1*
X1913837Y316983D1*
X1894363Y328883D1*
X1877387Y343387D1*
X1862883Y360363D1*
X1851017Y379837D1*
X2104983Y1141837D2*
X2093117Y1122363D1*
X2078613Y1105387D1*
X2061637Y1090883D1*
X2042163Y1079017D1*
X2061637Y1067117D1*
X2078613Y1052613D1*
X2093117Y1035637D1*
X2104983Y1016163D1*
X2116883Y1035637D1*
X2131387Y1052613D1*
X2148363Y1067117D1*
X2167837Y1078983D1*
X2148363Y1090883D1*
X2131387Y1105387D1*
X2116883Y1122363D1*
X2105017Y1141837D1*
X2042163Y1332983D2*
X2061637Y1321117D1*
X2078613Y1306613D1*
X2093117Y1289637D1*
X2104983Y1270163D1*
X2116883Y1289637D1*
X2131387Y1306613D1*
X2148363Y1321117D1*
X2167837Y1332983D1*
X2148363Y1344883D1*
X2131387Y1359387D1*
X2116883Y1376363D1*
X2105017Y1395837D1*
X2093117Y1376363D1*
X2078613Y1359387D1*
X2061637Y1344883D1*
X2042163Y1333017D1*
X2104983Y887837D2*
X2093117Y868363D1*
X2078613Y851387D1*
X2061637Y836883D1*
X2042163Y825017D1*
X2061637Y813117D1*
X2078613Y798613D1*
X2093117Y781637D1*
X2104983Y762163D1*
X2116883Y781637D1*
X2131387Y798613D1*
X2148363Y813117D1*
X2167837Y824983D1*
X2148363Y836883D1*
X2131387Y851387D1*
X2116883Y868363D1*
X2105017Y887837D1*
X2167837Y571017D2*
X2148363Y582883D1*
X2131387Y597387D1*
X2116883Y614363D1*
X2105017Y633837D1*
X2093117Y614363D1*
X2078613Y597387D1*
X2061637Y582883D1*
X2042163Y571017D1*
X2061637Y559117D1*
X2078613Y544613D1*
X2093117Y527637D1*
X2104983Y508163D1*
X2116883Y527637D1*
X2131387Y544613D1*
X2148363Y559117D1*
X2167837Y570983D1*
X2104983Y379837D2*
X2093117Y360363D1*
X2078613Y343387D1*
X2061637Y328883D1*
X2042163Y317017D1*
X2061637Y305117D1*
X2078613Y290613D1*
X2093117Y273637D1*
X2104983Y254163D1*
X2116883Y273637D1*
X2131387Y290613D1*
X2148363Y305117D1*
X2167837Y316983D1*
X2148363Y328883D1*
X2131387Y343387D1*
X2116883Y360363D1*
X2105017Y379837D1*
X2415230Y2690957D2*
Y2714223D1*
X2400010Y2714210D1*
Y3250117D1*
X2380000Y3247930D1*
X2360917Y3249993D1*
X2360960Y2745277D1*
X2415280Y2690930D1*
X2415230Y3881483D2*
Y4012550D1*
X2322070Y4012530D1*
X2297510Y3987950D1*
X2297470Y3673603D1*
X2336787Y3712997D1*
X2325513Y3725883D1*
X2317967Y3738200D1*
X2312437Y3751550D1*
X2309063Y3765597D1*
X2307930Y3780000D1*
X2309063Y3794403D1*
X2312437Y3808450D1*
X2317967Y3821800D1*
X2325513Y3834117D1*
X2334897Y3845103D1*
X2345883Y3854487D1*
X2358200Y3862033D1*
X2371550Y3867563D1*
X2385597Y3870937D1*
X2405673Y3871847D1*
X2415230Y3885130D1*
Y4012453D1*
X562230Y4523180D2*
X562343Y4619210D1*
X547010D1*
Y4664477D1*
X531853Y4646147D1*
X516690Y4633197D1*
X499690Y4622780D1*
X481267Y4615150D1*
X461877Y4610493D1*
X444767Y4609040D1*
X461877Y4607507D1*
X481267Y4602850D1*
X499690Y4595220D1*
X516690Y4584803D1*
X531853Y4571853D1*
X544803Y4556690D1*
X555220Y4539690D1*
X562243Y4522913D1*
X562230Y4619173D1*
X893770Y3532983D2*
Y3457773D1*
X908990Y3457790D1*
Y3270887D1*
X1124783Y3270773D1*
X1138837Y3267977D1*
X1148637Y3263777D1*
X1149040Y3472250D1*
Y3524713D1*
X1140657Y3533133D1*
X893770Y3533040D1*
Y3493370D1*
X315070Y5238043D2*
Y5116930D1*
X197970Y5116677D1*
X217663Y5113560D1*
X236627Y5107397D1*
X254393Y5098343D1*
X270527Y5086623D1*
X284623Y5072527D1*
X296343Y5056393D1*
X305397Y5038627D1*
X306893Y5034570D1*
X315220Y5054597D1*
X326883Y5073637D1*
X341387Y5090613D1*
X358363Y5105117D1*
X377403Y5116780D1*
X397333Y5125070D1*
X377977Y5134237D1*
X362300Y5145030D1*
X348413Y5158047D1*
X336623Y5172987D1*
X327200Y5189523D1*
X320350Y5207280D1*
X316230Y5225860D1*
X315070Y5238177D1*
X306893Y4945430D2*
X301220Y4932310D1*
X290803Y4915310D1*
X277853Y4900147D1*
X262690Y4887197D1*
X245690Y4876780D1*
X232570Y4871107D1*
X252597Y4862780D1*
X271637Y4851117D1*
X288613Y4836613D1*
X303117Y4819637D1*
X314780Y4800597D1*
X323070Y4780667D1*
X333657Y4802393D1*
X345377Y4818527D1*
X359473Y4832623D1*
X375607Y4844343D1*
X393373Y4853397D1*
X397430Y4854893D1*
X377403Y4863220D1*
X358363Y4874883D1*
X341387Y4889387D1*
X326883Y4906363D1*
X315220Y4925403D1*
X306930Y4945333D1*
X323070Y4691333D2*
X314780Y4671403D1*
X303117Y4652363D1*
X288613Y4635387D1*
X271637Y4620883D1*
X252163Y4609017D1*
X271637Y4597117D1*
X288613Y4582613D1*
X303117Y4565637D1*
X314780Y4546597D1*
X323070Y4526667D1*
X333657Y4548393D1*
X345377Y4564527D1*
X359473Y4578623D1*
X375607Y4590343D1*
X393373Y4599397D1*
X412337Y4605560D1*
X432030Y4608677D1*
X439233Y4608960D1*
X422123Y4610493D1*
X402733Y4615150D1*
X384310Y4622780D1*
X367310Y4633197D1*
X352147Y4646147D1*
X339197Y4661310D1*
X328780Y4678310D1*
X323107Y4691430D1*
X323070Y4437333D2*
X314780Y4417403D1*
X303117Y4398363D1*
X288613Y4381387D1*
X271637Y4366883D1*
X252163Y4355017D1*
X271637Y4343117D1*
X288613Y4328613D1*
X303117Y4311637D1*
X314983Y4292163D1*
X326883Y4311637D1*
X341387Y4328613D1*
X358363Y4343117D1*
X377403Y4354780D1*
X397333Y4363070D1*
X375607Y4373657D1*
X359473Y4385377D1*
X345377Y4399473D1*
X333657Y4415607D1*
X324603Y4433373D1*
X323107Y4437430D1*
X314983Y4163837D2*
X303117Y4144363D1*
X288613Y4127387D1*
X271637Y4112883D1*
X252163Y4101017D1*
X271637Y4089117D1*
X288613Y4074613D1*
X303117Y4057637D1*
X314983Y4038163D1*
X326883Y4057637D1*
X341387Y4074613D1*
X358363Y4089117D1*
X377837Y4100983D1*
X358363Y4112883D1*
X341387Y4127387D1*
X326883Y4144363D1*
X315017Y4163837D1*
X314983Y3909837D2*
X303117Y3890363D1*
X288613Y3873387D1*
X271637Y3858883D1*
X252163Y3847017D1*
X271637Y3835117D1*
X288613Y3820613D1*
X303117Y3803637D1*
X314983Y3784163D1*
X326883Y3803637D1*
X341387Y3820613D1*
X358363Y3835117D1*
X377837Y3846983D1*
X358363Y3858883D1*
X341387Y3873387D1*
X326883Y3890363D1*
X315017Y3909837D1*
X314983Y3655837D2*
X303117Y3636363D1*
X288613Y3619387D1*
X271637Y3604883D1*
X252163Y3593017D1*
X271637Y3581117D1*
X288613Y3566613D1*
X303117Y3549637D1*
X314983Y3530163D1*
X326883Y3549637D1*
X341387Y3566613D1*
X358363Y3581117D1*
X377837Y3592983D1*
X358363Y3604883D1*
X341387Y3619387D1*
X326883Y3636363D1*
X315017Y3655837D1*
X314983Y3401837D2*
X303117Y3382363D1*
X288613Y3365387D1*
X271637Y3350883D1*
X252163Y3339017D1*
X271637Y3327117D1*
X288613Y3312613D1*
X303117Y3295637D1*
X314983Y3276163D1*
X326883Y3295637D1*
X341387Y3312613D1*
X358363Y3327117D1*
X377837Y3338983D1*
X358363Y3350883D1*
X341387Y3365387D1*
X326883Y3382363D1*
X315017Y3401837D1*
X314983Y3147837D2*
X303117Y3128363D1*
X288613Y3111387D1*
X271637Y3096883D1*
X252163Y3085017D1*
X271637Y3073117D1*
X288613Y3058613D1*
X303117Y3041637D1*
X314983Y3022163D1*
X326883Y3041637D1*
X341387Y3058613D1*
X358363Y3073117D1*
X377837Y3084983D1*
X358363Y3096883D1*
X341387Y3111387D1*
X326883Y3128363D1*
X315017Y3147837D1*
X314983Y2893837D2*
X303117Y2874363D1*
X288613Y2857387D1*
X271637Y2842883D1*
X252163Y2831017D1*
X271637Y2819117D1*
X288613Y2804613D1*
X303117Y2787637D1*
X314983Y2768163D1*
X326883Y2787637D1*
X341387Y2804613D1*
X358363Y2819117D1*
X377837Y2830983D1*
X358363Y2842883D1*
X341387Y2857387D1*
X326883Y2874363D1*
X315017Y2893837D1*
X314983Y2639837D2*
X303117Y2620363D1*
X288613Y2603387D1*
X271637Y2588883D1*
X252163Y2577017D1*
X271637Y2565117D1*
X288613Y2550613D1*
X303117Y2533637D1*
X314983Y2514163D1*
X326883Y2533637D1*
X341387Y2550613D1*
X358363Y2565117D1*
X377837Y2576983D1*
X358363Y2588883D1*
X341387Y2603387D1*
X326883Y2620363D1*
X315017Y2639837D1*
X314983Y2385837D2*
X303117Y2366363D1*
X288613Y2349387D1*
X271637Y2334883D1*
X252597Y2323220D1*
X232667Y2314930D1*
X254393Y2304343D1*
X270527Y2292623D1*
X284623Y2278527D1*
X296343Y2262393D1*
X305397Y2244627D1*
X306893Y2240570D1*
X315220Y2260597D1*
X326883Y2279637D1*
X341387Y2296613D1*
X358363Y2311117D1*
X377837Y2322983D1*
X358363Y2334883D1*
X341387Y2349387D1*
X326883Y2366363D1*
X315017Y2385837D1*
X2399507Y2370933D2*
X2281640Y2488800D1*
X2281787Y2472777D1*
X2279120Y2457067D1*
X2379317Y2355830D1*
X2386320Y2343330D1*
X2390210Y2329537D1*
X2390960Y2320000D1*
X2399530Y2317057D1*
Y2370883D1*
X2379317Y2355830D1*
X2386320Y2343330D1*
X2390210Y2329537D1*
X2390927Y2319160D1*
X2376353Y2359590D1*
X2379317Y2355830D1*
X1395823Y4168040D2*
X893777D1*
X920500Y4160960D1*
X1359537Y4160210D1*
X1373330Y4156320D1*
X1385830Y4149317D1*
X1393107Y4143107D1*
X1459143Y4077070D1*
X1459040Y4104693D1*
X1395773Y4168013D1*
X1385830Y4149317D1*
X1393107Y4143107D1*
X1525000Y6253000D2*
D19*
Y5998053D1*
X1397053Y6253000D2*
X1525000D1*
X2032000Y6252000D2*
Y5997053D1*
Y6252000D2*
X2159947D1*
X2523000Y6406000D2*
Y6299053D1*
X2418553Y6406000D2*
X2523000D1*
X2673000Y6256000D2*
Y6091553D1*
X2566053Y6256000D2*
X2673000D1*
X2373000Y6420447D2*
Y6091553D1*
X2266053Y6256000D2*
X2479947D1*
X1800000Y2316947D2*
Y2063053D1*
X2140000Y2316947D2*
Y2063053D1*
X2223000Y1831947D2*
Y1705000D1*
X2349947D1*
X2415353Y2705000D2*
X2581000D1*
X2415353Y3975000D2*
X2581000D1*
Y5220447D2*
Y5118000D1*
X2415353D2*
X2581000D1*
X2035500Y5448147D2*
Y5116853D1*
Y5282500D2*
X2137947D1*
X1908500Y5448147D2*
Y5116853D1*
X1654500Y5448147D2*
Y5116853D1*
X1400500Y5448147D2*
Y5116853D1*
X1273500Y5448147D2*
Y5116853D1*
X1171053Y5282500D2*
X1273500D1*
X728000Y5220447D2*
Y5118000D1*
X893647D1*
X728000Y4483000D2*
X893647D1*
X728000Y3467000D2*
X893647D1*
X728000Y2705000D2*
Y2602553D1*
Y2705000D2*
X893647D1*
X188000Y5370947D2*
Y5117053D1*
Y5244000D2*
X314947D1*
X442000Y5370947D2*
Y5244000D1*
X315053D2*
X568947D1*
D21*
X1525000Y6253000D3*
D22*
X1779000Y6252000D3*
D21*
X2032000D3*
D23*
X2523000Y6106000D3*
Y6406000D3*
D24*
X2673000Y6256000D3*
X2373000D3*
D26*
X1800000Y2190000D3*
X1610000D3*
X2140000D3*
X2330000D3*
D27*
X1975000Y1705000D3*
D28*
X1721000D3*
X1467000D3*
X1213000D3*
X959000D3*
X705000D3*
X451000D3*
X197000D3*
D27*
X2477000D3*
D28*
X2223000D3*
D27*
X2493000Y1455000D3*
D28*
Y1201000D3*
Y947000D3*
Y693000D3*
D29*
X200000Y1206000D3*
X454000D3*
X708000D3*
X962000D3*
X1216000D3*
X1470000D3*
X1724000D3*
X200000Y952000D3*
X454000D3*
X708000D3*
X962000D3*
X1216000D3*
X1470000D3*
X1724000D3*
Y698000D3*
X1470000D3*
X1216000D3*
X962000D3*
X708000D3*
X454000D3*
X200000D3*
Y444000D3*
X454000D3*
X708000D3*
X962000D3*
X1216000D3*
X1470000D3*
X1724000D3*
Y190000D3*
X1470000D3*
X1216000D3*
X962000D3*
X708000D3*
X454000D3*
X200000D3*
Y1460000D3*
X454000D3*
X708000D3*
X962000D3*
X1216000D3*
X1470000D3*
X1724000D3*
X1978000Y1206000D3*
X2232000D3*
X1978000Y952000D3*
X2232000D3*
Y698000D3*
X1978000D3*
Y444000D3*
X2232000D3*
Y190000D3*
X1978000D3*
Y1460000D3*
X2232000D3*
D30*
X1781000Y5679000D3*
Y5849000D3*
D31*
X2027000Y5678000D3*
X2197000D3*
D32*
X2581000Y2705000D3*
Y2832000D3*
Y2959000D3*
Y3086000D3*
Y3213000D3*
Y3340000D3*
Y3467000D3*
Y3594000D3*
Y3721000D3*
Y3848000D3*
Y3975000D3*
Y4102000D3*
Y4229000D3*
Y4356000D3*
Y4483000D3*
Y4610000D3*
Y4737000D3*
Y4864000D3*
Y4991000D3*
Y5118000D3*
D33*
X2035500Y5282500D3*
X1908500D3*
X1781500D3*
X1654500D3*
X1527500D3*
X1400500D3*
X1273500D3*
D32*
X728000Y5118000D3*
Y4991000D3*
Y4864000D3*
Y4737000D3*
Y4610000D3*
Y4483000D3*
Y4356000D3*
Y4229000D3*
Y4102000D3*
Y3975000D3*
Y3848000D3*
Y3721000D3*
Y3594000D3*
Y3467000D3*
Y3340000D3*
Y3213000D3*
Y3086000D3*
Y2959000D3*
Y2832000D3*
Y2705000D3*
D27*
X188000Y5244000D3*
D28*
X442000D3*
X188000Y4990000D3*
X442000D3*
X188000Y4736000D3*
X442000D3*
X188000Y4482000D3*
X442000D3*
X188000Y4228000D3*
X442000D3*
X188000Y3974000D3*
X442000D3*
X188000Y3720000D3*
X442000D3*
X188000Y3466000D3*
X442000D3*
X188000Y3212000D3*
X442000D3*
X188000Y2958000D3*
X442000D3*
X188000Y2704000D3*
X442000D3*
X188000Y2450000D3*
X442000D3*
X188000Y2196000D3*
X442000D3*
M02*
