G04 DipTrace 3.0.0.2*
G04 TopDimension.gbr*
%MOMM*%
G04 #@! TF.FileFunction,Drawing,Top*
G04 #@! TF.Part,Single*
%ADD13C,0.038*%
%ADD70C,0.15686*%
%FSLAX35Y35*%
G04*
G71*
G90*
G75*
G01*
G04 TopDimension*
%LPD*%
X188000Y5244000D2*
D13*
X-490000D1*
X306000Y6198000D2*
X-490000D1*
X-440000Y5721000D2*
Y5344000D1*
G36*
Y5244000D2*
X-460000Y5344000D1*
X-420000D1*
X-440000Y5244000D1*
G37*
Y5721000D2*
D13*
Y6098000D1*
G36*
Y6198000D2*
X-420000Y6098000D1*
X-460000D1*
X-440000Y6198000D1*
G37*
X442000Y5244000D2*
D13*
Y5753000D1*
X306000Y6198000D2*
Y5653000D1*
Y5703000D2*
X442000D1*
X156000D2*
X206000D1*
G36*
X306000D2*
X206000Y5683000D1*
Y5723000D1*
X306000Y5703000D1*
G37*
X592000D2*
D13*
X542000D1*
G36*
X442000D2*
X542000Y5723000D1*
Y5683000D1*
X442000Y5703000D1*
G37*
X801435D2*
D13*
X442000D1*
X-539074Y5638040D2*
D70*
X-524474Y5633099D1*
X-514703Y5623440D1*
X-509874Y5608840D1*
Y5604011D1*
X-514703Y5589411D1*
X-524474Y5579753D1*
X-539074Y5574811D1*
X-543903D1*
X-558503Y5579753D1*
X-568161Y5589411D1*
X-572991Y5604011D1*
Y5608840D1*
X-568161Y5623440D1*
X-558503Y5633099D1*
X-539074Y5638040D1*
X-514703D1*
X-490445Y5633099D1*
X-475845Y5623440D1*
X-471015Y5608840D1*
Y5599182D1*
X-475845Y5584582D1*
X-485615Y5579753D1*
X-480786Y5674242D2*
X-475845Y5669413D1*
X-471015Y5674242D1*
X-475845Y5679184D1*
X-480786Y5674242D1*
X-572991Y5768844D2*
Y5720327D1*
X-529303Y5715498D1*
X-534132Y5720327D1*
X-539074Y5734927D1*
Y5749415D1*
X-534132Y5764015D1*
X-524474Y5773786D1*
X-509874Y5778615D1*
X-500215D1*
X-485615Y5773786D1*
X-475845Y5764015D1*
X-471015Y5749415D1*
Y5734927D1*
X-475845Y5720327D1*
X-480786Y5715498D1*
X-490445Y5710556D1*
X-471015Y5858617D2*
X-572991D1*
X-505045Y5809987D1*
Y5882875D1*
X565529Y5816561D2*
X575300Y5821503D1*
X589900Y5835991D1*
Y5734015D1*
X626102Y5743786D2*
X621273Y5738845D1*
X626102Y5734015D1*
X631043Y5738845D1*
X626102Y5743786D1*
X672187Y5835991D2*
X725533D1*
X696445Y5797132D1*
X711045D1*
X720704Y5792303D1*
X725533Y5787474D1*
X730475Y5772874D1*
Y5763215D1*
X725533Y5748615D1*
X715875Y5738845D1*
X701275Y5734015D1*
X686675D1*
X672187Y5738845D1*
X667358Y5743786D1*
X662416Y5753445D1*
X820135Y5821503D2*
X815306Y5831161D1*
X800706Y5835991D1*
X791047D1*
X776447Y5831161D1*
X766676Y5816561D1*
X761847Y5792303D1*
Y5768045D1*
X766676Y5748615D1*
X776447Y5738845D1*
X791047Y5734015D1*
X795876D1*
X810364Y5738845D1*
X820135Y5748615D1*
X824964Y5763215D1*
Y5768045D1*
X820135Y5782645D1*
X810364Y5792303D1*
X795876Y5797132D1*
X791047D1*
X776447Y5792303D1*
X766676Y5782645D1*
X761847Y5768045D1*
M02*
