G04 DipTrace 3.0.0.2*
G04 TopPaste.gbr*
%MOMM*%
G04 #@! TF.FileFunction,Paste,Top*
G04 #@! TF.Part,Single*
%ADD45R,0.81X2.074*%
%ADD47R,2.074X0.81*%
%ADD49R,0.9X0.8*%
%ADD51R,0.8X0.9*%
%ADD59R,1.1X1.3*%
%ADD63R,0.9X2.05*%
%ADD65R,0.85X0.9*%
%ADD67R,0.65X3.86*%
%ADD69R,1.32X3.86*%
%FSLAX35Y35*%
G04*
G71*
G90*
G75*
G01*
G04 TopPaste*
%LPD*%
D69*
X1525000Y6253000D3*
D67*
X1779000Y6252000D3*
D69*
X2032000D3*
D65*
X2523000Y6106000D3*
Y6406000D3*
D63*
X2673000Y6256000D3*
X2373000D3*
D59*
X1800000Y2190000D3*
X1610000D3*
X2140000D3*
X2330000D3*
D51*
X1781000Y5679000D3*
Y5849000D3*
D49*
X2027000Y5678000D3*
X2197000D3*
D47*
X2581000Y2705000D3*
Y2832000D3*
Y2959000D3*
Y3086000D3*
Y3213000D3*
Y3340000D3*
Y3467000D3*
Y3594000D3*
Y3721000D3*
Y3848000D3*
Y3975000D3*
Y4102000D3*
Y4229000D3*
Y4356000D3*
Y4483000D3*
Y4610000D3*
Y4737000D3*
Y4864000D3*
Y4991000D3*
Y5118000D3*
D45*
X2035500Y5282500D3*
X1908500D3*
X1781500D3*
X1654500D3*
X1527500D3*
X1400500D3*
X1273500D3*
D47*
X728000Y5118000D3*
Y4991000D3*
Y4864000D3*
Y4737000D3*
Y4610000D3*
Y4483000D3*
Y4356000D3*
Y4229000D3*
Y4102000D3*
Y3975000D3*
Y3848000D3*
Y3721000D3*
Y3594000D3*
Y3467000D3*
Y3340000D3*
Y3213000D3*
Y3086000D3*
Y2959000D3*
Y2832000D3*
Y2705000D3*
M02*
