G04 DipTrace 3.0.0.1*
G04 BottomSilk.gbr*
%MOIN*%
G04 #@! TF.FileFunction,Legend,Bot*
G04 #@! TF.Part,Single*
%ADD10C,0.01*%
%ADD12C,0.002992*%
%ADD28C,0.015404*%
%ADD57C,0.006176*%
%ADD58C,0.00772*%
%FSLAX26Y26*%
G04*
G70*
G90*
G75*
G01*
G04 BotSilk*
%LPD*%
X823769Y2261170D2*
D10*
X891761D1*
Y2092171D1*
X823769D1*
Y2261170D1*
X1024769Y2263171D2*
X1091769D1*
Y2093163D1*
X1024769D1*
Y2263171D1*
X1392462Y573532D2*
Y624673D1*
X530597Y1569029D2*
X581739D1*
D28*
X1062647Y1231363D3*
X1071848Y1181221D2*
D10*
X1189953D1*
Y1161536D1*
X1071848D1*
Y1181221D1*
D28*
X1066852Y906410D3*
X1076053Y856268D2*
D10*
X1194158D1*
Y836583D1*
X1076053D1*
Y856268D1*
D28*
X744175Y1205284D3*
X753376Y1155142D2*
D10*
X871481D1*
Y1135457D1*
X753376D1*
Y1155142D1*
D28*
X742175Y873284D3*
X751376Y823142D2*
D10*
X869481D1*
Y803457D1*
X751376D1*
Y823142D1*
X876060Y1711969D2*
D12*
X888028D1*
X876523Y1708977D2*
X890558D1*
X877265Y1705985D2*
X892797D1*
X878051Y1702993D2*
X894909D1*
X932908D2*
D3*
X878692Y1700001D2*
X896993D1*
X927266D2*
X932908D1*
X879468Y1697009D2*
X898965D1*
X921585D2*
X941884D1*
X880798Y1694017D2*
X900934D1*
X915475D2*
X936594D1*
X882692Y1691025D2*
X902988D1*
X908972D2*
X932645D1*
X884672Y1688033D2*
X929636D1*
X886477Y1685041D2*
X926924D1*
X883729Y1682049D2*
X930103D1*
X877375Y1679057D2*
X906106D1*
X917948D2*
X920940D1*
X929916D2*
X932908D1*
X822204Y1676065D2*
X855116D1*
X870076D2*
X903614D1*
X920940D2*
D3*
X828562Y1673073D2*
X881383D1*
X893413D2*
X901838D1*
X834172Y1670081D2*
X863076D1*
X892408D2*
X900839D1*
X947868D2*
X962828D1*
X826136Y1667089D2*
X846616D1*
X889900D2*
X900456D1*
X943507D2*
X967555D1*
X820123Y1664097D2*
X833237D1*
X887054D2*
X894012D1*
X899996D2*
X900615D1*
X939773D2*
X948919D1*
X953264D2*
X972674D1*
X816170Y1661105D2*
X822594D1*
X884396D2*
X891020D1*
X899996D2*
X901135D1*
X936832D2*
X944930D1*
X958006D2*
X978739D1*
X813228Y1658113D2*
D3*
X882044D2*
X888028D1*
X899996D2*
X901668D1*
X934757D2*
X941816D1*
X961989D2*
X985335D1*
X898407Y1655121D2*
X901011D1*
X933287D2*
X939255D1*
X965350D2*
X991559D1*
X897004Y1652129D2*
X899996D1*
X932053D2*
X937165D1*
X968054D2*
X997095D1*
X931064Y1649137D2*
X935481D1*
X970218D2*
X1002100D1*
X930467Y1646145D2*
X934259D1*
X971032D2*
X1006806D1*
X930262Y1643153D2*
X933640D1*
X971474D2*
X1011277D1*
X930504Y1640161D2*
X933664D1*
X971663D2*
X1015409D1*
X931165Y1637169D2*
X934223D1*
X971640D2*
X1019097D1*
X931910Y1634177D2*
X934927D1*
X971289D2*
X1022525D1*
X932424Y1631185D2*
X935425D1*
X970584D2*
X1025944D1*
X932699Y1628193D2*
X935694D1*
X969821D2*
X1029333D1*
X932825Y1625201D2*
X935818D1*
X969288D2*
X1017234D1*
X1025110D2*
X1032411D1*
X932865Y1622209D2*
X935869D1*
X968906D2*
X1018284D1*
X1027053D2*
X1035271D1*
X932780Y1619217D2*
X935889D1*
X968398D2*
X1019676D1*
X1028652D2*
X1038403D1*
X932404Y1616225D2*
X935885D1*
X967629D2*
X1041973D1*
X899996Y1613233D2*
X911964D1*
X931665D2*
X935774D1*
X966818D2*
X1045764D1*
X898741Y1610241D2*
X918135D1*
X930775D2*
X935312D1*
X966061D2*
X1049626D1*
X898002Y1607249D2*
X923932D1*
X929916D2*
X934289D1*
X965177D2*
X1053600D1*
X898831Y1604257D2*
X932908D1*
X962757D2*
X1057481D1*
X901326Y1601265D2*
X941884D1*
X959836D2*
X1061046D1*
X904447Y1598273D2*
X1064335D1*
X907606Y1595281D2*
X1067461D1*
X910314Y1592289D2*
X1070508D1*
X912770Y1589297D2*
X1073509D1*
X915250Y1586305D2*
X1076404D1*
X917632Y1583313D2*
X1079017D1*
X919799Y1580321D2*
X1081293D1*
X921978Y1577329D2*
X1083518D1*
X924431Y1574337D2*
X1085977D1*
X927139Y1571345D2*
X1088586D1*
X930002Y1568353D2*
X1091058D1*
X932940Y1565361D2*
X1093176D1*
X935912Y1562369D2*
X1094988D1*
X938896Y1559377D2*
X1096629D1*
X941886Y1556385D2*
X1098181D1*
X944877Y1553393D2*
X1001724D1*
X1007708D2*
X1099690D1*
X947857Y1550401D2*
X1101098D1*
X950732Y1547409D2*
X1102311D1*
X953226Y1544417D2*
X1103365D1*
X954991Y1541425D2*
X1104432D1*
X956171Y1538433D2*
X1105455D1*
X956060Y1535441D2*
X1106419D1*
X955386Y1532449D2*
X1107436D1*
X954203Y1529457D2*
X1108338D1*
X952600Y1526465D2*
X1108915D1*
X950733Y1523473D2*
X1109214D1*
X948834Y1520481D2*
X1109349D1*
X946874Y1517489D2*
X1109404D1*
X944861Y1514497D2*
X965820D1*
X974322D2*
X1109425D1*
X942992Y1511505D2*
X965820D1*
X976467D2*
X1109432D1*
X941284Y1508513D2*
X965820D1*
X978292D2*
X1109435D1*
X939598Y1505521D2*
X965820D1*
X979926D2*
X1109436D1*
X937788Y1502529D2*
X965809D1*
X981375D2*
X1109436D1*
X935939Y1499537D2*
X965692D1*
X982515D2*
X1109425D1*
X934389Y1496545D2*
X965194D1*
X983300D2*
X1109320D1*
X933146Y1493553D2*
X964260D1*
X984023D2*
X1108938D1*
X932001Y1490561D2*
X961725D1*
X984890D2*
X1108222D1*
X931046Y1487569D2*
X957995D1*
X985718D2*
X995740D1*
X1001724D2*
X1107443D1*
X930449Y1484577D2*
X952820D1*
X986263D2*
X1106816D1*
X930142Y1481585D2*
X946659D1*
X986549D2*
X1106157D1*
X930000Y1478593D2*
X939951D1*
X986679D2*
X1105314D1*
X929916Y1475601D2*
X932908D1*
X986733D2*
X1104482D1*
X986753Y1472609D2*
X1103835D1*
X986761Y1469617D2*
X1103181D1*
X986751Y1466625D2*
X1102451D1*
X986647Y1463633D2*
X1101821D1*
X986266Y1460641D2*
X1102423D1*
X985550Y1457649D2*
X1104404D1*
X984783Y1454657D2*
X1106849D1*
X984261Y1451665D2*
X1109583D1*
X983983Y1448673D2*
X1112370D1*
X983856Y1445681D2*
X1114943D1*
X983792Y1442689D2*
X1117205D1*
X983667Y1439697D2*
X1119425D1*
X983278Y1436705D2*
X1121882D1*
X982547Y1433713D2*
X1085500D1*
X1091484D2*
X1124491D1*
X917948Y1430721D2*
X932908D1*
X981674D2*
X1126963D1*
X906797Y1427729D2*
X932783D1*
X980771D2*
X1129057D1*
X813228Y1424737D2*
X831180D1*
X897328D2*
X932282D1*
X979765D2*
X1130646D1*
X813354Y1421745D2*
X854275D1*
X889359D2*
X931067D1*
X978766D2*
X1131801D1*
X813854Y1418753D2*
X876060D1*
X882044D2*
X929085D1*
X977798D2*
X1131384D1*
X815070Y1415761D2*
X926581D1*
X976679D2*
X1129763D1*
X817052Y1412769D2*
X923800D1*
X975384D2*
X1127684D1*
X819556Y1409777D2*
X920892D1*
X973986D2*
X1125000D1*
X822348Y1406785D2*
X917931D1*
X972527D2*
X1121866D1*
X825362Y1403793D2*
X914951D1*
X971037D2*
X1118669D1*
X828704Y1400801D2*
X911974D1*
X969439D2*
X1115540D1*
X832401Y1397809D2*
X909100D1*
X967566D2*
X1112479D1*
X836156Y1394817D2*
X906607D1*
X965352D2*
X1109444D1*
X839669Y1391825D2*
X904842D1*
X963080D2*
X1106335D1*
X842938Y1388833D2*
X903662D1*
X960955D2*
X1102968D1*
X846057Y1385841D2*
X903773D1*
X958791D2*
X1099352D1*
X849101Y1382849D2*
X904447D1*
X956343D2*
X1095868D1*
X852102Y1379857D2*
X905641D1*
X953637D2*
X1092689D1*
X854996Y1376865D2*
X907350D1*
X950763D2*
X1089459D1*
X857679Y1373873D2*
X909599D1*
X947720D2*
X1085989D1*
X860610Y1370881D2*
X912214D1*
X944379D2*
X1082261D1*
X864301Y1367889D2*
X914932D1*
X940791D2*
X1077811D1*
X872942Y1364897D2*
X917398D1*
X937489D2*
X1071651D1*
X883229Y1361905D2*
X919342D1*
X934954D2*
X1019089D1*
X1028652D2*
X1062941D1*
X894012Y1358913D2*
X920940D1*
X932908D2*
X1014866D1*
X1037628D2*
X1052588D1*
X946092Y1355921D2*
X1009952D1*
X888028Y1352929D2*
X899996D1*
X914956D2*
X932908D1*
X959836D2*
X962057D1*
X992748D2*
X1004716D1*
X903643Y1349937D2*
X959711D1*
X876060Y1346945D2*
X882044D1*
X920940D2*
X956844D1*
X968812D2*
X1016684D1*
X1100460D2*
X1124396D1*
X1139356D2*
X1160300D1*
X884871Y1343953D2*
X894012D1*
X971804D2*
X1067548D1*
X1094476D2*
X1163292D1*
X897987Y1340961D2*
X947868D1*
X953852D2*
X982122D1*
X1007708D2*
X1072317D1*
X1121404D2*
X1145340D1*
X914792Y1337969D2*
X987949D1*
X1073532D2*
X1076524D1*
X932908Y1334977D2*
X992748D1*
X974796Y1328993D2*
X977788D1*
X974796Y1326001D2*
X989756D1*
X1007708D2*
X1034636D1*
X876060Y1711969D2*
X876523Y1708977D1*
X877265Y1705985D1*
X878051Y1702993D1*
X878692Y1700001D1*
X879468Y1697009D1*
X880798Y1694017D1*
X882692Y1691025D1*
X884672Y1688033D1*
X886477Y1685041D1*
X883729Y1682049D1*
X877375Y1679057D1*
X870076Y1676065D1*
X888028Y1711969D2*
X890558Y1708977D1*
X892797Y1705985D1*
X894909Y1702993D1*
X896993Y1700001D1*
X898965Y1697009D1*
X900934Y1694017D1*
X902988Y1691025D1*
X932908Y1702993D2*
X927266Y1700001D1*
X921585Y1697009D1*
X915475Y1694017D1*
X908972Y1691025D1*
X932908Y1700001D2*
X941884Y1697009D1*
X936594Y1694017D1*
X932645Y1691025D1*
X929636Y1688033D1*
X926924Y1685041D1*
X930103Y1682049D1*
X932908Y1679057D1*
X908972Y1682049D2*
X906106Y1679057D1*
X903614Y1676065D1*
X901838Y1673073D1*
X900839Y1670081D1*
X900456Y1667089D1*
X900615Y1664097D1*
X901135Y1661105D1*
X901668Y1658113D1*
X901011Y1655121D1*
X899996Y1652129D1*
X914956Y1682049D2*
X917948Y1679057D1*
X920940Y1676065D1*
Y1682049D2*
Y1679057D1*
Y1676065D1*
X926924Y1682049D2*
X929916Y1679057D1*
X822204Y1676065D2*
X828562Y1673073D1*
X834172Y1670081D1*
X826136Y1667089D1*
X820123Y1664097D1*
X816170Y1661105D1*
X813228Y1658113D1*
X855116Y1676065D2*
X899996D2*
X881383Y1673073D1*
X863076Y1670081D1*
X846616Y1667089D1*
X833237Y1664097D1*
X822594Y1661105D1*
X813228Y1658113D1*
X894012Y1676065D2*
X893413Y1673073D1*
X892408Y1670081D1*
X889900Y1667089D1*
X887054Y1664097D1*
X884396Y1661105D1*
X882044Y1658113D1*
X947868Y1670081D2*
X943507Y1667089D1*
X939773Y1664097D1*
X936832Y1661105D1*
X934757Y1658113D1*
X933287Y1655121D1*
X932053Y1652129D1*
X931064Y1649137D1*
X930467Y1646145D1*
X930262Y1643153D1*
X930504Y1640161D1*
X931165Y1637169D1*
X931910Y1634177D1*
X932424Y1631185D1*
X932699Y1628193D1*
X932825Y1625201D1*
X932865Y1622209D1*
X932780Y1619217D1*
X932404Y1616225D1*
X931665Y1613233D1*
X930775Y1610241D1*
X929916Y1607249D1*
X962828Y1670081D2*
X967555Y1667089D1*
X972674Y1664097D1*
X978739Y1661105D1*
X985335Y1658113D1*
X991559Y1655121D1*
X997095Y1652129D1*
X1002100Y1649137D1*
X1006806Y1646145D1*
X1011277Y1643153D1*
X1015409Y1640161D1*
X1019097Y1637169D1*
X1022525Y1634177D1*
X1025944Y1631185D1*
X1029333Y1628193D1*
X1032411Y1625201D1*
X1035271Y1622209D1*
X1038403Y1619217D1*
X1041973Y1616225D1*
X1045764Y1613233D1*
X1049626Y1610241D1*
X1053600Y1607249D1*
X1057481Y1604257D1*
X1061046Y1601265D1*
X1064335Y1598273D1*
X1067461Y1595281D1*
X1070508Y1592289D1*
X1073509Y1589297D1*
X1076404Y1586305D1*
X1079017Y1583313D1*
X1081293Y1580321D1*
X1083518Y1577329D1*
X1085977Y1574337D1*
X1088586Y1571345D1*
X1091058Y1568353D1*
X1093176Y1565361D1*
X1094988Y1562369D1*
X1096629Y1559377D1*
X1098181Y1556385D1*
X1099690Y1553393D1*
X1101098Y1550401D1*
X1102311Y1547409D1*
X1103365Y1544417D1*
X1104432Y1541425D1*
X1105455Y1538433D1*
X1106419Y1535441D1*
X1107436Y1532449D1*
X1108338Y1529457D1*
X1108915Y1526465D1*
X1109214Y1523473D1*
X1109349Y1520481D1*
X1109404Y1517489D1*
X1109425Y1514497D1*
X1109432Y1511505D1*
X1109435Y1508513D1*
X1109436Y1505521D1*
Y1502529D1*
X1109425Y1499537D1*
X1109320Y1496545D1*
X1108938Y1493553D1*
X1108222Y1490561D1*
X1107443Y1487569D1*
X1106816Y1484577D1*
X1106157Y1481585D1*
X1105314Y1478593D1*
X1104482Y1475601D1*
X1103835Y1472609D1*
X1103181Y1469617D1*
X1102451Y1466625D1*
X1101821Y1463633D1*
X1102423Y1460641D1*
X1104404Y1457649D1*
X1106849Y1454657D1*
X1109583Y1451665D1*
X1112370Y1448673D1*
X1114943Y1445681D1*
X1117205Y1442689D1*
X1119425Y1439697D1*
X1121882Y1436705D1*
X1124491Y1433713D1*
X1126963Y1430721D1*
X1129057Y1427729D1*
X1130646Y1424737D1*
X1131801Y1421745D1*
X1131384Y1418753D1*
X1129763Y1415761D1*
X1127684Y1412769D1*
X1125000Y1409777D1*
X1121866Y1406785D1*
X1118669Y1403793D1*
X1115540Y1400801D1*
X1112479Y1397809D1*
X1109444Y1394817D1*
X1106335Y1391825D1*
X1102968Y1388833D1*
X1099352Y1385841D1*
X1095868Y1382849D1*
X1092689Y1379857D1*
X1089459Y1376865D1*
X1085989Y1373873D1*
X1082261Y1370881D1*
X1077811Y1367889D1*
X1071651Y1364897D1*
X1062941Y1361905D1*
X1052588Y1358913D1*
X897004Y1667089D2*
X894012Y1664097D1*
X891020Y1661105D1*
X888028Y1658113D1*
X953852Y1667089D2*
X948919Y1664097D1*
X944930Y1661105D1*
X941816Y1658113D1*
X939255Y1655121D1*
X937165Y1652129D1*
X935481Y1649137D1*
X934259Y1646145D1*
X933640Y1643153D1*
X933664Y1640161D1*
X934223Y1637169D1*
X934927Y1634177D1*
X935425Y1631185D1*
X935694Y1628193D1*
X935818Y1625201D1*
X935869Y1622209D1*
X935889Y1619217D1*
X935885Y1616225D1*
X935774Y1613233D1*
X935312Y1610241D1*
X934289Y1607249D1*
X932908Y1604257D1*
X941884Y1601265D1*
X947868Y1667089D2*
X953264Y1664097D1*
X958006Y1661105D1*
X961989Y1658113D1*
X965350Y1655121D1*
X968054Y1652129D1*
X970218Y1649137D1*
X971032Y1646145D1*
X971474Y1643153D1*
X971663Y1640161D1*
X971640Y1637169D1*
X971289Y1634177D1*
X970584Y1631185D1*
X969821Y1628193D1*
X969288Y1625201D1*
X968906Y1622209D1*
X968398Y1619217D1*
X967629Y1616225D1*
X966818Y1613233D1*
X966061Y1610241D1*
X965177Y1607249D1*
X962757Y1604257D1*
X959836Y1601265D1*
X899996Y1658113D2*
X898407Y1655121D1*
X897004Y1652129D1*
X1016684Y1628193D2*
X1017234Y1625201D1*
X1018284Y1622209D1*
X1019676Y1619217D1*
X1022668Y1628193D2*
X1025110Y1625201D1*
X1027053Y1622209D1*
X1028652Y1619217D1*
X899996Y1613233D2*
X898741Y1610241D1*
X898002Y1607249D1*
X898831Y1604257D1*
X901326Y1601265D1*
X904447Y1598273D1*
X907606Y1595281D1*
X910314Y1592289D1*
X912770Y1589297D1*
X915250Y1586305D1*
X917632Y1583313D1*
X919799Y1580321D1*
X921978Y1577329D1*
X924431Y1574337D1*
X927139Y1571345D1*
X930002Y1568353D1*
X932940Y1565361D1*
X935912Y1562369D1*
X938896Y1559377D1*
X941886Y1556385D1*
X944877Y1553393D1*
X947857Y1550401D1*
X950732Y1547409D1*
X953226Y1544417D1*
X954991Y1541425D1*
X956171Y1538433D1*
X956060Y1535441D1*
X955386Y1532449D1*
X954203Y1529457D1*
X952600Y1526465D1*
X950733Y1523473D1*
X948834Y1520481D1*
X946874Y1517489D1*
X944861Y1514497D1*
X942992Y1511505D1*
X941284Y1508513D1*
X939598Y1505521D1*
X937788Y1502529D1*
X935939Y1499537D1*
X934389Y1496545D1*
X933146Y1493553D1*
X932001Y1490561D1*
X931046Y1487569D1*
X930449Y1484577D1*
X930142Y1481585D1*
X930000Y1478593D1*
X929916Y1475601D1*
X911964Y1613233D2*
X918135Y1610241D1*
X923932Y1607249D1*
X1004716Y1556385D2*
X1001724Y1553393D1*
X1004716Y1556385D2*
X1007708Y1553393D1*
X965820Y1517489D2*
Y1514497D1*
Y1511505D1*
Y1508513D1*
Y1505521D1*
X965809Y1502529D1*
X965692Y1499537D1*
X965194Y1496545D1*
X964260Y1493553D1*
X961725Y1490561D1*
X957995Y1487569D1*
X952820Y1484577D1*
X946659Y1481585D1*
X939951Y1478593D1*
X932908Y1475601D1*
X971804Y1517489D2*
X974322Y1514497D1*
X976467Y1511505D1*
X978292Y1508513D1*
X979926Y1505521D1*
X981375Y1502529D1*
X982515Y1499537D1*
X983300Y1496545D1*
X984023Y1493553D1*
X984890Y1490561D1*
X985718Y1487569D1*
X986263Y1484577D1*
X986549Y1481585D1*
X986679Y1478593D1*
X986733Y1475601D1*
X986753Y1472609D1*
X986761Y1469617D1*
X986751Y1466625D1*
X986647Y1463633D1*
X986266Y1460641D1*
X985550Y1457649D1*
X984783Y1454657D1*
X984261Y1451665D1*
X983983Y1448673D1*
X983856Y1445681D1*
X983792Y1442689D1*
X983667Y1439697D1*
X983278Y1436705D1*
X982547Y1433713D1*
X981674Y1430721D1*
X980771Y1427729D1*
X979765Y1424737D1*
X978766Y1421745D1*
X977798Y1418753D1*
X976679Y1415761D1*
X975384Y1412769D1*
X973986Y1409777D1*
X972527Y1406785D1*
X971037Y1403793D1*
X969439Y1400801D1*
X967566Y1397809D1*
X965352Y1394817D1*
X963080Y1391825D1*
X960955Y1388833D1*
X958791Y1385841D1*
X956343Y1382849D1*
X953637Y1379857D1*
X950763Y1376865D1*
X947720Y1373873D1*
X944379Y1370881D1*
X940791Y1367889D1*
X937489Y1364897D1*
X934954Y1361905D1*
X932908Y1358913D1*
X946092Y1355921D1*
X959836Y1352929D1*
X998732Y1490561D2*
X995740Y1487569D1*
X998732Y1490561D2*
X1001724Y1487569D1*
X1088492Y1436705D2*
X1085500Y1433713D1*
X1088492Y1436705D2*
X1091484Y1433713D1*
X917948Y1430721D2*
X906797Y1427729D1*
X897328Y1424737D1*
X889359Y1421745D1*
X882044Y1418753D1*
X932908Y1430721D2*
X932783Y1427729D1*
X932282Y1424737D1*
X931067Y1421745D1*
X929085Y1418753D1*
X926581Y1415761D1*
X923800Y1412769D1*
X920892Y1409777D1*
X917931Y1406785D1*
X914951Y1403793D1*
X911974Y1400801D1*
X909100Y1397809D1*
X906607Y1394817D1*
X904842Y1391825D1*
X903662Y1388833D1*
X903773Y1385841D1*
X904447Y1382849D1*
X905641Y1379857D1*
X907350Y1376865D1*
X909599Y1373873D1*
X912214Y1370881D1*
X914932Y1367889D1*
X917398Y1364897D1*
X919342Y1361905D1*
X920940Y1358913D1*
X813228Y1424737D2*
X813354Y1421745D1*
X813854Y1418753D1*
X815070Y1415761D1*
X817052Y1412769D1*
X819556Y1409777D1*
X822348Y1406785D1*
X825362Y1403793D1*
X828704Y1400801D1*
X832401Y1397809D1*
X836156Y1394817D1*
X839669Y1391825D1*
X842938Y1388833D1*
X846057Y1385841D1*
X849101Y1382849D1*
X852102Y1379857D1*
X854996Y1376865D1*
X857679Y1373873D1*
X860610Y1370881D1*
X864301Y1367889D1*
X872942Y1364897D1*
X883229Y1361905D1*
X894012Y1358913D1*
X831180Y1424737D2*
X854275Y1421745D1*
X876060Y1418753D1*
X1022668Y1364897D2*
X1019089Y1361905D1*
X1014866Y1358913D1*
X1009952Y1355921D1*
X1004716Y1352929D1*
X1019676Y1364897D2*
X1028652Y1361905D1*
X1037628Y1358913D1*
X888028Y1352929D2*
X903643Y1349937D1*
X920940Y1346945D1*
X899996Y1352929D2*
X914956D2*
X932908D2*
X962828Y1355921D2*
X962057Y1352929D1*
X959711Y1349937D1*
X956844Y1346945D1*
X989756Y1355921D2*
X992748Y1352929D1*
X876060Y1346945D2*
X884871Y1343953D1*
X897987Y1340961D1*
X914792Y1337969D1*
X932908Y1334977D1*
X882044Y1346945D2*
X894012Y1343953D1*
X905980Y1340961D1*
X968812Y1346945D2*
X971804Y1343953D1*
X953852Y1340961D1*
X1016684Y1346945D2*
Y1343953D1*
X1100460Y1346945D2*
X1094476Y1343953D1*
X1121404Y1340961D1*
X1124396Y1346945D2*
X1139356D2*
X1160300D2*
X1163292Y1343953D1*
X1145340Y1340961D1*
X1067548Y1343953D2*
X1072317Y1340961D1*
X1076524Y1337969D1*
X947868Y1340961D2*
X974796Y1343953D2*
X982122Y1340961D1*
X987949Y1337969D1*
X992748Y1334977D1*
X1004716Y1343953D2*
X1007708Y1340961D1*
X1070540D2*
X1073532Y1337969D1*
X974796Y1328993D2*
Y1326001D1*
X977788Y1328993D2*
X989756Y1326001D1*
X1007708D2*
X1034636D2*
X1318211Y677658D2*
D57*
X1320112Y681461D1*
X1323959Y685307D1*
X1327761Y687209D1*
X1335411D1*
X1339257Y685307D1*
X1343060Y681461D1*
X1345005Y677658D1*
X1346907Y671910D1*
Y662315D1*
X1345005Y656611D1*
X1343060Y652765D1*
X1339257Y648962D1*
X1335411Y647017D1*
X1327761D1*
X1323959Y648962D1*
X1320112Y652765D1*
X1318211Y656611D1*
X1305859Y679515D2*
X1302012Y681461D1*
X1296264Y687164D1*
Y647017D1*
X561393Y1759810D2*
X563295Y1763613D1*
X567141Y1767460D1*
X570944Y1769361D1*
X578593D1*
X582440Y1767460D1*
X586242Y1763613D1*
X588188Y1759810D1*
X590089Y1754062D1*
Y1744467D1*
X588188Y1738764D1*
X586242Y1734917D1*
X582440Y1731114D1*
X578593Y1729169D1*
X570944D1*
X567141Y1731114D1*
X563295Y1734917D1*
X561393Y1738764D1*
X547096Y1759766D2*
Y1761667D1*
X545195Y1765514D1*
X543294Y1767415D1*
X539447Y1769317D1*
X531798D1*
X527995Y1767415D1*
X526094Y1765514D1*
X524148Y1761667D1*
Y1757865D1*
X526094Y1754018D1*
X529896Y1748314D1*
X549042Y1729169D1*
X522247D1*
X1137247Y1297652D2*
X1141049Y1295795D1*
X1144896Y1291948D1*
X1146797Y1288102D1*
X1148743Y1282354D1*
Y1272803D1*
X1146797Y1267055D1*
X1144896Y1263252D1*
X1141049Y1259406D1*
X1137247Y1257504D1*
X1129597D1*
X1125751Y1259406D1*
X1121948Y1263252D1*
X1120047Y1267055D1*
X1118101Y1272803D1*
Y1282354D1*
X1120047Y1288102D1*
X1121948Y1291948D1*
X1125751Y1295795D1*
X1129597Y1297652D1*
X1137247D1*
X1131499Y1265154D2*
X1120047Y1253658D1*
X1105750Y1289959D2*
X1101903Y1291904D1*
X1096155Y1297608D1*
Y1257460D1*
X1150051Y972699D2*
X1153854Y970842D1*
X1157701Y966996D1*
X1159602Y963149D1*
X1161548Y957401D1*
Y947850D1*
X1159602Y942102D1*
X1157701Y938300D1*
X1153854Y934453D1*
X1150051Y932552D1*
X1142402D1*
X1138555Y934453D1*
X1134753Y938300D1*
X1132852Y942102D1*
X1130906Y947850D1*
Y957401D1*
X1132852Y963149D1*
X1134753Y966996D1*
X1138555Y970842D1*
X1142402Y972699D1*
X1150051D1*
X1144303Y940201D2*
X1132852Y928705D1*
X1116609Y963105D2*
Y965006D1*
X1114708Y968853D1*
X1112807Y970754D1*
X1108960Y972655D1*
X1101311D1*
X1097508Y970754D1*
X1095607Y968853D1*
X1093661Y965006D1*
Y961203D1*
X1095607Y957357D1*
X1099409Y951653D1*
X1118555Y932507D1*
X1091760D1*
X827374Y1271573D2*
X831177Y1269716D1*
X835024Y1265870D1*
X836925Y1262023D1*
X838870Y1256275D1*
Y1246724D1*
X836925Y1240976D1*
X835024Y1237174D1*
X831177Y1233327D1*
X827374Y1231426D1*
X819725D1*
X815878Y1233327D1*
X812076Y1237174D1*
X810174Y1240976D1*
X808229Y1246724D1*
Y1256275D1*
X810174Y1262023D1*
X812076Y1265870D1*
X815878Y1269716D1*
X819725Y1271573D1*
X827374D1*
X821626Y1239075D2*
X810174Y1227579D1*
X792031Y1271529D2*
X771028D1*
X782480Y1256231D1*
X776732D1*
X772930Y1254329D1*
X771028Y1252428D1*
X769083Y1246680D1*
Y1242877D1*
X771028Y1237129D1*
X774831Y1233283D1*
X780579Y1231381D1*
X786327D1*
X792031Y1233283D1*
X793932Y1235228D1*
X795878Y1239031D1*
X826325Y939573D2*
X830127Y937716D1*
X833974Y933870D1*
X835875Y930023D1*
X837821Y924275D1*
Y914724D1*
X835875Y908976D1*
X833974Y905174D1*
X830127Y901327D1*
X826325Y899426D1*
X818676D1*
X814829Y901327D1*
X811026Y905174D1*
X809125Y908976D1*
X807180Y914724D1*
Y924275D1*
X809125Y930023D1*
X811026Y933870D1*
X814829Y937716D1*
X818676Y939573D1*
X826325D1*
X820577Y907075D2*
X809125Y895579D1*
X775683Y899381D2*
Y939529D1*
X794828Y912779D1*
X766132D1*
X1230252Y1187757D2*
Y1170557D1*
X1228307Y1164809D1*
X1226405Y1162863D1*
X1222603Y1160962D1*
X1218756D1*
X1214954Y1162863D1*
X1213008Y1164809D1*
X1211107Y1170557D1*
Y1187757D1*
X1251299Y1187756D1*
X1230252Y1174359D2*
X1251299Y1160962D1*
X1218800Y1148611D2*
X1216855Y1144764D1*
X1211151Y1139016D1*
X1251299D1*
X1160270Y1079662D2*
X1143070D1*
X1137322Y1081607D1*
X1135376Y1083508D1*
X1133475Y1087311D1*
Y1091158D1*
X1135376Y1094960D1*
X1137322Y1096906D1*
X1143070Y1098807D1*
X1160270D1*
Y1058615D1*
X1146872Y1079662D2*
X1133475Y1058615D1*
X1119178Y1089212D2*
Y1091114D1*
X1117277Y1094960D1*
X1115376Y1096862D1*
X1111529Y1098763D1*
X1103880D1*
X1100077Y1096862D1*
X1098176Y1094960D1*
X1096230Y1091114D1*
Y1087311D1*
X1098176Y1083464D1*
X1101978Y1077760D1*
X1121124Y1058615D1*
X1094329D1*
X1230252Y881396D2*
Y864196D1*
X1228307Y858448D1*
X1226405Y856502D1*
X1222603Y854601D1*
X1218756D1*
X1214954Y856502D1*
X1213008Y858448D1*
X1211107Y864196D1*
Y881396D1*
X1251299D1*
X1230252Y867998D2*
X1251299Y854601D1*
X1211151Y838403D2*
Y817401D1*
X1226450Y828852D1*
Y823104D1*
X1228351Y819302D1*
X1230252Y817401D1*
X1236000Y815455D1*
X1239803D1*
X1245551Y817401D1*
X1249398Y821203D1*
X1251299Y826951D1*
Y832699D1*
X1249398Y838403D1*
X1247452Y840304D1*
X1243650Y842250D1*
X1161024Y749662D2*
X1143824D1*
X1138076Y751607D1*
X1136130Y753508D1*
X1134229Y757311D1*
Y761158D1*
X1136130Y764960D1*
X1138076Y766906D1*
X1143824Y768807D1*
X1161024D1*
Y728615D1*
X1147626Y749662D2*
X1134229Y728615D1*
X1102732D2*
Y768763D1*
X1121878Y742012D1*
X1093182D1*
X618740Y1178270D2*
Y1161070D1*
X616795Y1155322D1*
X614894Y1153376D1*
X611091Y1151475D1*
X607244D1*
X603442Y1153376D1*
X601496Y1155322D1*
X599595Y1161070D1*
Y1178270D1*
X639787D1*
X618740Y1164873D2*
X639787Y1151475D1*
X599639Y1116176D2*
Y1135277D1*
X616839Y1137178D1*
X614938Y1135277D1*
X612992Y1129529D1*
Y1123825D1*
X614938Y1118077D1*
X618740Y1114230D1*
X624488Y1112329D1*
X628291D1*
X634039Y1114230D1*
X637886Y1118077D1*
X639787Y1123825D1*
Y1129529D1*
X637886Y1135277D1*
X635940Y1137178D1*
X632138Y1139124D1*
X837699Y1041260D2*
X820499D1*
X814751Y1043206D1*
X812805Y1045107D1*
X810904Y1048909D1*
Y1052756D1*
X812805Y1056559D1*
X814751Y1058504D1*
X820499Y1060405D1*
X837699D1*
Y1020213D1*
X824301Y1041260D2*
X810904Y1020213D1*
X775605Y1054657D2*
X777506Y1058460D1*
X783254Y1060361D1*
X787056D1*
X792805Y1058460D1*
X796651Y1052712D1*
X798553Y1043161D1*
Y1033611D1*
X796651Y1025961D1*
X792805Y1022115D1*
X787056Y1020213D1*
X785155D1*
X779451Y1022115D1*
X775605Y1025961D1*
X773703Y1031710D1*
Y1033611D1*
X775605Y1039359D1*
X779451Y1043161D1*
X785155Y1045063D1*
X787056D1*
X792805Y1043161D1*
X796651Y1039359D1*
X798553Y1033611D1*
X618339Y1008671D2*
Y991472D1*
X616393Y985724D1*
X614492Y983778D1*
X610690Y981877D1*
X606843D1*
X603040Y983778D1*
X601095Y985724D1*
X599193Y991472D1*
Y1008671D1*
X639385D1*
X618339Y995274D2*
X639385Y981877D1*
Y961876D2*
X599238Y942731D1*
Y969525D1*
X619740Y844248D2*
Y827048D1*
X617795Y821300D1*
X615894Y819354D1*
X612091Y817453D1*
X608244D1*
X604442Y819354D1*
X602496Y821300D1*
X600595Y827048D1*
Y844248D1*
X640787D1*
X619740Y830850D2*
X640787Y817453D1*
X600639Y795551D2*
X602541Y801255D1*
X606343Y803200D1*
X610190D1*
X613992Y801255D1*
X615938Y797452D1*
X617839Y789803D1*
X619740Y784055D1*
X623587Y780253D1*
X627390Y778351D1*
X633138D1*
X636940Y780253D1*
X638886Y782154D1*
X640787Y787902D1*
Y795551D1*
X638886Y801255D1*
X636940Y803200D1*
X633138Y805102D1*
X627390D1*
X623587Y803200D1*
X619740Y799354D1*
X617839Y793650D1*
X615938Y786001D1*
X613992Y782154D1*
X610190Y780253D1*
X606343D1*
X602540Y782154D1*
X600639Y787902D1*
Y795551D1*
X588418Y1346815D2*
X571219D1*
X565470Y1348761D1*
X563525Y1350662D1*
X561624Y1354465D1*
Y1358312D1*
X563525Y1362114D1*
X565470Y1364060D1*
X571219Y1365961D1*
X588418D1*
Y1325769D1*
X575021Y1346815D2*
X561624Y1325769D1*
X549272Y1352563D2*
Y1312371D1*
Y1346815D2*
X545426Y1350618D1*
X541623Y1352563D1*
X535875D1*
X532028Y1350618D1*
X528226Y1346815D1*
X526280Y1341067D1*
Y1337221D1*
X528226Y1331517D1*
X532028Y1327670D1*
X535875Y1325769D1*
X541623D1*
X545426Y1327670D1*
X549272Y1331517D1*
X1559006Y1814622D2*
D58*
X1537506D1*
X1530321Y1817053D1*
X1527889Y1819430D1*
X1525512Y1824183D1*
Y1828992D1*
X1527889Y1833745D1*
X1530321Y1836177D1*
X1537506Y1838553D1*
X1559006D1*
Y1788313D1*
X1542259Y1814622D2*
X1525512Y1788313D1*
X1510073Y1807437D2*
X1481388D1*
Y1812245D1*
X1483765Y1817053D1*
X1486141Y1819430D1*
X1490950Y1821807D1*
X1498135D1*
X1502888Y1819430D1*
X1507697Y1814622D1*
X1510073Y1807437D1*
Y1802683D1*
X1507697Y1795498D1*
X1502888Y1790745D1*
X1498135Y1788313D1*
X1490950D1*
X1486141Y1790745D1*
X1481388Y1795498D1*
X1465949Y1821807D2*
X1451579Y1788313D1*
X1437264Y1821807D1*
X1358854Y1838498D2*
X1366039Y1836121D1*
X1370847Y1828936D1*
X1373224Y1816998D1*
Y1809813D1*
X1370847Y1797875D1*
X1366039Y1790690D1*
X1358854Y1788313D1*
X1354101D1*
X1346916Y1790690D1*
X1342162Y1797875D1*
X1339731Y1809813D1*
Y1816998D1*
X1342162Y1828936D1*
X1346916Y1836121D1*
X1354101Y1838498D1*
X1358854D1*
X1342162Y1828936D2*
X1370847Y1797875D1*
X1321915Y1793122D2*
X1324291Y1790690D1*
X1321915Y1788313D1*
X1319483Y1790690D1*
X1321915Y1793122D1*
X1275359Y1838498D2*
X1299235D1*
X1301612Y1816998D1*
X1299235Y1819375D1*
X1292050Y1821807D1*
X1284920D1*
X1277735Y1819375D1*
X1272927Y1814622D1*
X1270550Y1807437D1*
Y1802683D1*
X1272927Y1795498D1*
X1277735Y1790690D1*
X1284920Y1788313D1*
X1292050D1*
X1299235Y1790690D1*
X1301612Y1793122D1*
X1304044Y1797875D1*
M02*
