G04 DipTrace 3.0.0.1*
G04 Bottom.gbr*
%MOIN*%
G04 #@! TF.FileFunction,Copper,L2,Bot*
G04 #@! TF.Part,Single*
G04 #@! TA.AperFunction,Conductor*
%ADD10C,0.01*%
%ADD14C,0.007*%
%ADD15C,0.015*%
%ADD16C,0.035*%
%ADD18C,0.02*%
G04 #@! TA.AperFunction,CopperBalancing*
%ADD19C,0.025*%
G04 #@! TA.AperFunction,Conductor*
%ADD20C,0.03*%
G04 #@! TA.AperFunction,CopperBalancing*
%ADD21C,0.012992*%
%ADD22R,0.059843X0.159843*%
%ADD24R,0.051181X0.059055*%
%ADD25R,0.059055X0.051181*%
G04 #@! TA.AperFunction,ComponentPad*
%ADD26R,0.059055X0.059055*%
%ADD27C,0.059055*%
%ADD29R,0.025591X0.041339*%
G04 #@! TA.AperFunction,ViaPad*
%ADD32C,0.031496*%
%FSLAX26Y26*%
G04*
G70*
G90*
G75*
G01*
G04 Bottom*
%LPD*%
X1299213Y1125984D2*
D14*
X1350788D1*
X1354725Y1122047D1*
Y1091732D1*
X1299213Y811024D2*
Y759843D1*
X1300000Y759055D1*
X1276299Y599103D2*
D15*
Y554457D1*
X1197449Y475607D1*
X718504Y634646D2*
X909449D1*
X1056693Y568898D2*
X975197D1*
X909449Y634646D1*
X1276299Y599103D2*
X1086898D1*
X1056693Y568898D1*
X619685Y835827D2*
D10*
Y601969D1*
X661418Y560236D1*
X556168Y1685192D2*
D15*
X621281D1*
X669292Y1733202D1*
X1437126Y1675701D2*
Y1745158D1*
X1292061Y1890223D1*
X1117984Y1385701D2*
X1121921D1*
X1140158Y1403937D1*
Y1578347D1*
X1236614Y1674803D1*
X1436229D1*
X1437126Y1675701D1*
X1117984Y1385701D2*
X986488D1*
X938977Y1338189D1*
X914173Y1313386D1*
Y828740D1*
X928740Y814173D1*
Y653937D1*
X909449Y634646D1*
X1537126Y1675701D2*
D16*
X1437126D1*
X813780Y1338189D2*
D15*
X938977D1*
X1097701Y891701D2*
D10*
Y863323D1*
X1112599Y848425D1*
X1210236D1*
X1247244Y885433D1*
X1298819D1*
X1299213Y885827D1*
X456764Y1493496D2*
D18*
X482488D1*
X504725Y1471260D1*
Y1439764D1*
X524016Y1420473D1*
X541995D1*
X557349Y1405118D1*
X556168Y1610389D2*
X636068D1*
X644488Y1601969D1*
Y1416929D1*
X632677Y1405118D1*
X557349D1*
X1297449Y475607D2*
D15*
Y484063D1*
X1350000Y536614D1*
Y598000D1*
X1351103Y599103D1*
Y663701D1*
X1381496Y694095D1*
Y941732D1*
X1321260Y1001969D1*
Y1032284D1*
X1333465Y1044488D1*
X1370866D1*
X1390945Y1064567D1*
Y1508662D1*
X1409843Y1527559D1*
X1488984D1*
X1537126Y1575701D1*
X958662Y1482284D2*
D19*
Y1457389D1*
Y1433465D1*
X1109843Y1435701D2*
Y1457389D1*
Y1479528D1*
D20*
D3*
X958662Y1482284D2*
D3*
X1109843Y1457389D2*
X958662D1*
X456764Y1393496D2*
D14*
X421465D1*
X412205Y1402756D1*
Y1531890D1*
X421654Y1541339D1*
X546851D1*
X556299Y1531890D1*
Y1480971D1*
X557349Y1479921D1*
X505512Y910630D2*
Y1178347D1*
X663780Y1336614D1*
X457349Y775722D2*
X421523D1*
X412205Y785040D1*
Y1225984D1*
X424803Y1238583D1*
X506693D1*
X660236Y1392126D1*
X698425D1*
X706299Y1384252D1*
Y1296063D1*
X694095Y1283858D1*
X457349Y675722D2*
X490683D1*
X533858Y718898D1*
Y1166142D1*
X638189Y1270473D1*
X659055D1*
X677559Y1251969D1*
X711024D1*
X739764Y1280709D1*
X687701Y1107898D2*
D10*
X745299D1*
X759843Y1122441D1*
X457349Y575722D2*
D14*
X501706D1*
X556299Y630315D1*
Y1079134D1*
X586221Y1109055D1*
X686544D1*
X687701Y1107898D1*
X750000Y1067323D2*
D10*
X741732D1*
X724410Y1050000D1*
X694882D1*
X690158Y1045276D1*
Y1015961D1*
X687299Y1013103D1*
X457349Y475722D2*
D14*
X494226D1*
X585040Y566536D1*
Y975197D1*
X619292Y1009449D1*
X683646D1*
X687299Y1013103D1*
X1209449Y1236221D2*
Y1510630D1*
X1223229Y1524410D1*
X1089898Y1010701D2*
Y968244D1*
X1089370Y967717D1*
X1324803D1*
X1351575Y940945D1*
Y734646D1*
X1329134Y712205D1*
X1281890D1*
X1234646Y759449D1*
X1093496Y1216654D2*
D10*
Y1190362D1*
X1109843Y1174016D1*
X1223622D1*
X1250000Y1200394D1*
X1298819D1*
X1299213Y1200788D1*
X1437126Y1575701D2*
D18*
X1209559D1*
X1167717Y1533858D1*
Y1217236D1*
X1168299Y1216654D1*
X849827Y1190575D2*
Y1264173D1*
X976772D2*
X1161418D1*
X1168299Y1256504D1*
Y1216654D1*
X847827Y858575D2*
D15*
Y835244D1*
X890158Y792914D1*
X1172504Y891701D2*
Y933528D1*
X1129921Y1216929D2*
X1168575D1*
X1168299Y1216654D1*
X1135103Y801150D2*
D10*
Y766079D1*
X1163780Y737402D1*
Y681425D1*
X1164504Y680701D1*
X1130898Y1126103D2*
Y1105323D1*
X1165355Y1070866D1*
Y1011355D1*
X1164701Y1010701D1*
X688701Y773898D2*
Y748701D1*
X727953Y709449D1*
X687701Y1182701D2*
X767150D1*
X775024Y1190575D1*
X1089701Y680701D2*
X1089764Y784189D1*
X850788Y910630D2*
Y964614D1*
X843103Y972299D1*
X812425Y1100024D2*
Y1074236D1*
X769685Y1031496D1*
Y973685D1*
X768299Y972299D1*
X773024Y858575D2*
Y907292D1*
X760236Y920079D1*
X742914D1*
X727559Y935433D1*
X690166D1*
X687299Y938299D1*
X810425Y768024D2*
Y803748D1*
X799213Y814961D1*
X759055D1*
X738977Y835040D1*
Y846457D1*
X733858Y851575D1*
X691575D1*
X688701Y848701D1*
X1537126Y1175701D2*
D14*
Y1175315D1*
X1492126Y1130315D1*
Y1025197D1*
X1488583Y1021654D1*
X1382677D1*
X1368504Y1007481D1*
X1537126Y1275701D2*
X1576268D1*
X1591732Y1260236D1*
Y934646D1*
X1585433Y928347D1*
X1489370D1*
X1486614Y925591D1*
D32*
X1354725Y1091732D3*
X1300000Y759055D3*
X718504Y634646D3*
X909449D3*
X1056693Y568898D3*
D3*
X619685Y835827D3*
X661418Y560236D3*
X1117984Y1385701D3*
D3*
X813780Y1338189D3*
X958662Y1433465D3*
X1109843Y1435701D3*
X505512Y910630D3*
X663780Y1336614D3*
X694095Y1283858D3*
X739764Y1280709D3*
X759843Y1122441D3*
X750000Y1067323D3*
X1209449Y1236221D3*
X1223229Y1524410D3*
X1234646Y759449D3*
X849827Y1264173D3*
X976772D3*
X890158Y792914D3*
X849827Y1264173D3*
X1172504Y933528D3*
X1129921Y1216929D3*
X727953Y709449D3*
X1089764Y784189D3*
X850788Y910630D3*
X1368504Y1007481D3*
X1486614Y925591D3*
X662730Y2205774D3*
X741470Y2204725D3*
X662599Y2126903D3*
X741339Y2125984D3*
X820079Y2048294D3*
X898819Y2047244D3*
X819948Y1969423D3*
X898688Y1968504D3*
X1056299Y2048294D3*
X1135040Y2047244D3*
X1056168Y1969423D3*
X1134908Y1968504D3*
X1135040Y2205774D3*
X1213780Y2204725D3*
X1134908Y2126903D3*
X1213649Y2125984D3*
X1135040Y1890683D3*
X1213780Y1889764D3*
X1213320Y1968963D3*
X1214239Y2047704D3*
X1292061Y1890223D3*
X1292979Y1968963D3*
X1292061Y2047704D3*
X1292979Y2126444D3*
X1371260Y2203806D3*
X1292520Y2204725D3*
X505118D3*
X583858Y2203675D3*
X504987Y2125853D3*
X583727Y2124935D3*
X505118Y2047244D3*
X583858Y2046194D3*
X504987Y1968373D3*
X583727Y1967454D3*
X583858Y1888845D3*
X505118Y1889764D3*
X958662Y1482284D3*
X1109843Y1479528D3*
X662730Y2048294D3*
X741470Y2047244D3*
X662599Y1969423D3*
X741339Y1968504D3*
X669292Y1733202D3*
X748032Y1732284D3*
X662599Y1890814D3*
X741339Y1889764D3*
X662467Y1811942D3*
X741208Y1811024D3*
X820210Y1811155D3*
X898950Y1810105D3*
X820079Y1732284D3*
X898819Y1731365D3*
X977691Y1812074D3*
X1056431Y1811024D3*
X977559Y1733202D3*
X1056299Y1732284D3*
X1135171Y1811155D3*
X1213911Y1810105D3*
X1135040Y1732284D3*
X1213780Y1731365D3*
X428726Y2218222D2*
D19*
X803658D1*
X909487D2*
X1004047D1*
X1109927D2*
X1579194D1*
X428726Y2193353D2*
X803658D1*
X909487D2*
X1004047D1*
X1109927D2*
X1579194D1*
X428726Y2168484D2*
X803658D1*
X909487D2*
X1004047D1*
X1109927D2*
X1430610D1*
X1550894D2*
X1579194D1*
X428726Y2143616D2*
X803658D1*
X909487D2*
X1004047D1*
X1109927D2*
X1395844D1*
X428726Y2118747D2*
X803658D1*
X909487D2*
X1004047D1*
X1109927D2*
X1376362D1*
X428726Y2093878D2*
X803658D1*
X909487D2*
X1004047D1*
X1109927D2*
X1364692D1*
X428726Y2069009D2*
X1358735D1*
X428726Y2044141D2*
X1357710D1*
X428726Y2019272D2*
X1361470D1*
X428726Y1994403D2*
X1370454D1*
X428726Y1969534D2*
X1386128D1*
X428726Y1944666D2*
X1412398D1*
X1569155D2*
X1579183D1*
X428726Y1919797D2*
X1579194D1*
X428726Y1894928D2*
X1579194D1*
X428726Y1870059D2*
X1579194D1*
X428726Y1845191D2*
X1579194D1*
X501479Y1820322D2*
X1579194D1*
X509243Y1795453D2*
X1579194D1*
X503726Y1770584D2*
X1579194D1*
X428726Y1745715D2*
X439482D1*
X474087D2*
X1579194D1*
X608706Y1720847D2*
X1384614D1*
X1489663D2*
X1513080D1*
X1561196D2*
X1579194D1*
X608706Y1695978D2*
X1384614D1*
X608706Y1671109D2*
X1384614D1*
X428726Y1646240D2*
X437823D1*
X475698D2*
X503658D1*
X608706D2*
X1384614D1*
X670523Y1621372D2*
X1414204D1*
X1460024D2*
X1514204D1*
X1560024D2*
X1579194D1*
X677504Y1596503D2*
X1184711D1*
X677504Y1571634D2*
X1159858D1*
X577651Y1546765D2*
X611470D1*
X677504D2*
X1137592D1*
X677504Y1521897D2*
X1134711D1*
X1263003D2*
X1363764D1*
X1558852D2*
X1579194D1*
X677504Y1497028D2*
X923042D1*
X994252D2*
X1075580D1*
X1251138D2*
X1360444D1*
X677504Y1472159D2*
X921332D1*
X1235952D2*
X1360444D1*
X677504Y1447290D2*
X921479D1*
X1235952D2*
X1360444D1*
X677504Y1422421D2*
X920454D1*
X1235952D2*
X1360444D1*
X1475698D2*
X1516743D1*
X1557534D2*
X1579194D1*
X728774Y1397553D2*
X945844D1*
X971450D2*
X1134711D1*
X1235952D2*
X1360444D1*
X732778Y1372684D2*
X1134711D1*
X1235952D2*
X1360444D1*
X509292Y1347815D2*
X579487D1*
X732778D2*
X1134711D1*
X1235952D2*
X1360444D1*
X428726Y1322946D2*
X554634D1*
X732778D2*
X1134711D1*
X1235952D2*
X1360444D1*
X1474966D2*
X1518159D1*
X1556070D2*
X1579194D1*
X428726Y1298078D2*
X529731D1*
X775356D2*
X831635D1*
X868032D2*
X958588D1*
X994986D2*
X1134711D1*
X1235952D2*
X1360444D1*
X428726Y1273209D2*
X504878D1*
X778872D2*
X811079D1*
X888588D2*
X938032D1*
X1235952D2*
X1360444D1*
X760903Y1248340D2*
X813471D1*
X886147D2*
X940424D1*
X1247280D2*
X1360444D1*
X627651Y1223471D2*
X635170D1*
X885610D2*
X1057710D1*
X1351723D2*
X1360437D1*
X1474282D2*
X1519771D1*
X1554507D2*
X1565243D1*
X602748Y1198603D2*
X635151D1*
X885610D2*
X1057710D1*
X1351723D2*
X1360437D1*
X577895Y1173734D2*
X635151D1*
X885610D2*
X1071675D1*
X1351723D2*
X1360437D1*
X560366Y1148865D2*
X635151D1*
X788735D2*
X1095112D1*
X1230336D2*
X1246647D1*
X848208Y1123996D2*
X1095112D1*
X1166714D2*
X1246675D1*
X848208Y1099128D2*
X1095112D1*
X1175650D2*
X1246675D1*
X587856Y1074259D2*
X635151D1*
X848208D2*
X1123383D1*
X1193130D2*
X1319184D1*
X582778Y1049390D2*
X634760D1*
X826138D2*
X1041303D1*
X1213295D2*
X1296576D1*
X582778Y1024521D2*
X597924D1*
X801284D2*
X1041303D1*
X1213295D2*
X1290767D1*
X891714Y999652D2*
X1041303D1*
X1213295D2*
X1290864D1*
X621059Y974784D2*
X634746D1*
X891714D2*
X1041303D1*
X611538Y949915D2*
X634760D1*
X891714D2*
X1070795D1*
X611538Y925046D2*
X634760D1*
X891714D2*
X1061910D1*
X1211391D2*
X1246675D1*
X611538Y900177D2*
X634760D1*
X801040D2*
X812398D1*
X889175D2*
X1061910D1*
X1208315D2*
X1223423D1*
X611538Y875309D2*
X636176D1*
X883608D2*
X1061910D1*
X611538Y850440D2*
X636176D1*
X883608D2*
X1073188D1*
X438687Y825571D2*
X507368D1*
X611538D2*
X636176D1*
X910806D2*
X1098774D1*
X1224038D2*
X1246675D1*
X611538Y800702D2*
X636176D1*
X929214D2*
X1053755D1*
X1170912D2*
X1246675D1*
X611538Y775834D2*
X636176D1*
X741226D2*
X774654D1*
X846206D2*
X854445D1*
X925894D2*
X1050874D1*
X1170912D2*
X1198579D1*
X611538Y750965D2*
X636176D1*
X741226D2*
X774654D1*
X846206D2*
X1061763D1*
X1187856D2*
X1195761D1*
X428726Y726096D2*
X448554D1*
X466176D2*
X504634D1*
X611538D2*
X672748D1*
X763882D2*
X1041108D1*
X1471596D2*
X1502680D1*
X611538Y701227D2*
X689008D1*
X766910D2*
X1041108D1*
X1213100D2*
X1256440D1*
X611538Y676358D2*
X708100D1*
X747768D2*
X1041108D1*
X1213100D2*
X1323628D1*
X503628Y651490D2*
X529780D1*
X611538D2*
X1041108D1*
X1213100D2*
X1320600D1*
X428726Y626621D2*
X445238D1*
X469448D2*
X516158D1*
X611538D2*
X1227730D1*
X1472378D2*
X1524946D1*
X1549293D2*
X1579194D1*
X611538Y601752D2*
X1227730D1*
X539322Y576883D2*
X558540D1*
X611538D2*
X1227730D1*
X507924Y552015D2*
X534076D1*
X606655D2*
X1227730D1*
X428726Y527146D2*
X442897D1*
X471792D2*
X509223D1*
X582095D2*
X1298432D1*
X1378872D2*
X1401070D1*
X1473159D2*
X1505708D1*
X642251Y502277D2*
X652641D1*
X742251D2*
X752641D1*
X842251D2*
X852641D1*
X942251D2*
X952641D1*
X1042251D2*
X1052641D1*
X1142251D2*
X1152641D1*
X1357778D2*
X1381928D1*
X532339Y477408D2*
X544987D1*
X1349966D2*
X1375630D1*
X504164Y452540D2*
X550580D1*
X1349966D2*
X1380366D1*
X428726Y427671D2*
X440945D1*
X473794D2*
X580610D1*
X614272D2*
X680610D1*
X714272D2*
X780610D1*
X814272D2*
X880610D1*
X914272D2*
X980610D1*
X1014272D2*
X1080610D1*
X1114272D2*
X1180610D1*
X1214272D2*
X1244916D1*
X1349966D2*
X1400336D1*
X907009Y2243097D2*
Y2075175D1*
X806167D1*
Y2243095D1*
X426156Y2243091D1*
X426201Y1833082D1*
X434051Y1838071D1*
X441305Y1841075D1*
X448939Y1842908D1*
X456764Y1843524D1*
X464589Y1842908D1*
X472223Y1841075D1*
X479477Y1838071D1*
X486170Y1833970D1*
X492139Y1828872D1*
X497238Y1822902D1*
X501339Y1816209D1*
X504343Y1808956D1*
X506176Y1801322D1*
X506792Y1793496D1*
X506176Y1785671D1*
X504343Y1778037D1*
X501339Y1770784D1*
X497238Y1764091D1*
X492139Y1758121D1*
X486170Y1753023D1*
X479477Y1748921D1*
X472223Y1745918D1*
X464589Y1744084D1*
X457853Y1743512D1*
X464589Y1742908D1*
X472223Y1741075D1*
X479477Y1738071D1*
X486170Y1733970D1*
X492139Y1728872D1*
X497238Y1722902D1*
X501339Y1716209D1*
X504343Y1708956D1*
X506141Y1701601D1*
Y1731282D1*
X606196D1*
Y1640882D1*
X638461Y1640794D1*
X645494Y1639397D1*
X652004Y1636394D1*
X657635Y1631956D1*
X669163Y1619897D1*
X672667Y1613641D1*
X674613Y1606740D1*
X674988Y1601969D1*
Y1416920D1*
X685236Y1416126D1*
X702180Y1415831D1*
X707610Y1414299D1*
X712532Y1411542D1*
X720646Y1403848D1*
X725715Y1398358D1*
X728473Y1393437D1*
X730004Y1388007D1*
X730299Y1371752D1*
Y1316820D1*
X736834Y1317952D1*
X742694D1*
X748484Y1317034D1*
X754061Y1315223D1*
X759284Y1312562D1*
X764026Y1309116D1*
X768171Y1304971D1*
X771617Y1300229D1*
X774278Y1295005D1*
X776089Y1289429D1*
X777007Y1283639D1*
Y1277778D1*
X776089Y1271988D1*
X774278Y1266412D1*
X771617Y1261189D1*
X768171Y1256446D1*
X764026Y1252302D1*
X759284Y1248856D1*
X754061Y1246194D1*
X748484Y1244383D1*
X742694Y1243466D1*
X736503Y1243505D1*
X725130Y1232553D1*
X720209Y1229795D1*
X718433Y1229142D1*
X737729Y1228792D1*
Y1208235D1*
X741729Y1211906D1*
Y1231744D1*
X808319D1*
Y1149406D1*
X785711D1*
X790066Y1144399D1*
X792128Y1141191D1*
X845721Y1141193D1*
Y1058855D1*
X832781D1*
X821618Y1047366D1*
X796586Y1022335D1*
X889193Y1022327D1*
Y922272D1*
X886318Y922175D1*
X887687Y916474D1*
X888146Y910630D1*
X887687Y904786D1*
X886318Y899086D1*
X884074Y893670D1*
X881120Y888834D1*
X881122Y841589D1*
X892450Y830218D1*
X898878Y829239D1*
X904454Y827428D1*
X909677Y824767D1*
X914420Y821320D1*
X918565Y817176D1*
X922011Y812433D1*
X924672Y807210D1*
X926483Y801634D1*
X927400Y795844D1*
Y789983D1*
X926483Y784193D1*
X924672Y778617D1*
X922011Y773394D1*
X918565Y768651D1*
X914420Y764507D1*
X909677Y761061D1*
X904454Y758399D1*
X898878Y756588D1*
X893088Y755671D1*
X887227D1*
X881437Y756588D1*
X875861Y758399D1*
X870638Y761061D1*
X865895Y764507D1*
X861751Y768651D1*
X858305Y773394D1*
X855643Y778617D1*
X853832Y784193D1*
X852891Y790589D1*
X843739Y799735D1*
X843721Y726855D1*
X777130D1*
Y789502D1*
X757054Y789540D1*
X751175Y790709D1*
X745731Y793218D1*
X741019Y796935D1*
X738729Y794988D1*
Y745232D1*
X744914Y742735D1*
X749911Y739672D1*
X754369Y735865D1*
X758176Y731407D1*
X761239Y726410D1*
X763483Y720994D1*
X764852Y715293D1*
X765311Y709449D1*
X764852Y703605D1*
X763483Y697904D1*
X761239Y692488D1*
X758176Y687491D1*
X754369Y683033D1*
X749911Y679226D1*
X744914Y676163D1*
X739498Y673919D1*
X733797Y672550D1*
X727953Y672091D1*
X722109Y672550D1*
X716408Y673919D1*
X710992Y676163D1*
X705995Y679226D1*
X701537Y683033D1*
X697730Y687491D1*
X694667Y692488D1*
X692423Y697904D1*
X691054Y703605D1*
X690643Y710697D1*
X673546Y727793D1*
X638673Y727807D1*
Y892213D1*
X637272Y892209D1*
X637320Y984390D1*
X633646Y985449D1*
X629202D1*
X609050Y965267D1*
X608966Y564652D1*
X607865Y559120D1*
X605503Y553996D1*
X602011Y549565D1*
X569659Y517214D1*
X578305Y521826D1*
X585771Y524252D1*
X593524Y525479D1*
X601374D1*
X609128Y524252D1*
X616593Y521826D1*
X623588Y518261D1*
X629940Y513647D1*
X635490Y508097D1*
X640104Y501746D1*
X643668Y494751D1*
X646095Y487285D1*
X647322Y479532D1*
X647433Y476696D1*
X648037Y483432D1*
X649870Y491066D1*
X652874Y498319D1*
X656975Y505012D1*
X662074Y510982D1*
X668044Y516080D1*
X674736Y520181D1*
X681990Y523185D1*
X689624Y525019D1*
X697449Y525634D1*
X705274Y525019D1*
X712908Y523185D1*
X720162Y520181D1*
X726855Y516080D1*
X732824Y510982D1*
X737923Y505012D1*
X742024Y498319D1*
X745028Y491066D1*
X746861Y483432D1*
X747433Y476696D1*
X748037Y483432D1*
X749870Y491066D1*
X752874Y498319D1*
X756975Y505012D1*
X762074Y510982D1*
X768044Y516080D1*
X774736Y520181D1*
X781990Y523185D1*
X789624Y525019D1*
X797449Y525634D1*
X805274Y525019D1*
X812908Y523185D1*
X820162Y520181D1*
X826855Y516080D1*
X832824Y510982D1*
X837923Y505012D1*
X842024Y498319D1*
X845028Y491066D1*
X846861Y483432D1*
X847433Y476696D1*
X848037Y483432D1*
X849870Y491066D1*
X852874Y498319D1*
X856975Y505012D1*
X862074Y510982D1*
X868044Y516080D1*
X874736Y520181D1*
X881990Y523185D1*
X889624Y525019D1*
X897449Y525634D1*
X905274Y525019D1*
X912908Y523185D1*
X920162Y520181D1*
X926855Y516080D1*
X932824Y510982D1*
X937923Y505012D1*
X942024Y498319D1*
X945028Y491066D1*
X946861Y483432D1*
X947433Y476696D1*
X948037Y483432D1*
X949870Y491066D1*
X952874Y498319D1*
X956975Y505012D1*
X962074Y510982D1*
X968044Y516080D1*
X974736Y520181D1*
X981990Y523185D1*
X989624Y525019D1*
X997449Y525634D1*
X1005274Y525019D1*
X1012908Y523185D1*
X1020162Y520181D1*
X1026855Y516080D1*
X1032824Y510982D1*
X1037923Y505012D1*
X1042024Y498319D1*
X1045028Y491066D1*
X1046861Y483432D1*
X1047433Y476696D1*
X1048037Y483432D1*
X1049870Y491066D1*
X1052874Y498319D1*
X1056975Y505012D1*
X1062074Y510982D1*
X1068044Y516080D1*
X1074736Y520181D1*
X1081990Y523185D1*
X1089624Y525019D1*
X1097449Y525634D1*
X1105274Y525019D1*
X1112908Y523185D1*
X1120162Y520181D1*
X1126855Y516080D1*
X1132824Y510982D1*
X1137923Y505012D1*
X1142024Y498319D1*
X1145028Y491066D1*
X1146861Y483432D1*
X1147433Y476696D1*
X1148033Y483408D1*
X1149753Y490701D1*
X1152542Y497655D1*
X1156340Y504116D1*
X1161058Y509936D1*
X1166593Y514986D1*
X1172822Y519152D1*
X1179601Y522343D1*
X1186782Y524483D1*
X1194202Y525529D1*
X1201694Y525453D1*
X1209092Y524260D1*
X1216229Y521975D1*
X1222942Y518651D1*
X1229086Y514360D1*
X1234520Y509201D1*
X1239121Y503286D1*
X1242788Y496752D1*
X1245437Y489744D1*
X1247011Y482418D1*
X1247421Y477780D1*
Y525634D1*
X1299424D1*
X1322008Y548219D1*
X1319890Y549075D1*
X1230209D1*
Y649130D1*
X1323128D1*
X1323448Y668082D1*
X1325234Y674416D1*
X1328450Y680159D1*
X1331303Y683500D1*
X1337553Y689750D1*
X1332889Y688500D1*
X1316634Y688205D1*
X1278135Y688500D1*
X1272705Y690032D1*
X1267784Y692789D1*
X1256080Y704074D1*
X1237576Y722206D1*
X1231715D1*
X1225925Y723124D1*
X1220349Y724935D1*
X1215126Y727596D1*
X1210383Y731042D1*
X1206239Y735187D1*
X1202793Y739929D1*
X1200131Y745152D1*
X1198320Y750729D1*
X1197403Y756519D1*
Y762379D1*
X1198320Y768170D1*
X1200131Y773746D1*
X1202793Y778969D1*
X1206239Y783711D1*
X1210383Y787856D1*
X1215126Y791302D1*
X1220349Y793963D1*
X1225925Y795774D1*
X1231715Y796692D1*
X1237576D1*
X1243366Y795774D1*
X1249181Y793853D1*
X1249185Y851309D1*
X1225225Y827795D1*
X1219995Y824866D1*
X1214226Y823239D1*
X1210236Y822925D1*
X1168391D1*
X1168398Y768832D1*
X1184410Y752390D1*
X1187339Y747160D1*
X1188966Y741391D1*
X1189280Y730713D1*
X1210595Y730729D1*
Y630673D1*
X1043610D1*
Y730729D1*
X1064265D1*
X1064247Y756937D1*
X1059541Y762231D1*
X1056478Y767229D1*
X1054234Y772645D1*
X1052865Y778345D1*
X1052406Y784189D1*
X1052865Y790033D1*
X1054234Y795734D1*
X1056478Y801150D1*
X1059541Y806147D1*
X1063348Y810605D1*
X1067806Y814412D1*
X1072803Y817475D1*
X1078219Y819719D1*
X1083920Y821088D1*
X1089764Y821547D1*
X1095608Y821088D1*
X1101814Y819533D1*
X1101807Y825361D1*
X1097610Y827795D1*
X1094567Y830394D1*
X1077071Y848335D1*
X1075954Y850007D1*
X1064406Y850532D1*
Y932870D1*
X1130996D1*
Y873935D1*
X1139210Y873925D1*
X1139209Y916596D1*
X1136974Y921983D1*
X1135605Y927684D1*
X1135146Y933528D1*
X1135605Y939372D1*
X1136592Y943715D1*
X1085616Y944012D1*
X1080185Y945544D1*
X1075264Y948301D1*
X1071121Y952130D1*
X1067986Y956820D1*
X1066544Y960307D1*
X1048488Y960673D1*
X1043807D1*
Y1060729D1*
X1139460D1*
X1115255Y1084903D1*
X1097603Y1084933D1*
Y1151681D1*
X1093282Y1154625D1*
X1074105Y1173802D1*
X1072862Y1175381D1*
X1060201Y1175484D1*
Y1233638D1*
X998381Y1233673D1*
X991068Y1229659D1*
X985492Y1227848D1*
X979702Y1226931D1*
X973841D1*
X968051Y1227848D1*
X962475Y1229659D1*
X957252Y1232320D1*
X952509Y1235767D1*
X948365Y1239911D1*
X944919Y1244654D1*
X942257Y1249877D1*
X940446Y1255453D1*
X939529Y1261243D1*
Y1267104D1*
X940446Y1272894D1*
X942257Y1278470D1*
X944919Y1283693D1*
X948365Y1288436D1*
X952509Y1292580D1*
X957252Y1296026D1*
X962475Y1298688D1*
X968051Y1300499D1*
X973841Y1301416D1*
X979702D1*
X985492Y1300499D1*
X991068Y1298688D1*
X996292Y1296026D1*
X998320Y1294671D1*
X1137172Y1294673D1*
X1137217Y1410253D1*
X1131801Y1405478D1*
X1126803Y1402415D1*
X1121387Y1400171D1*
X1115687Y1398802D1*
X1109843Y1398343D1*
X1103999Y1398802D1*
X1098298Y1400171D1*
X1092882Y1402415D1*
X1087885Y1405478D1*
X1083427Y1409285D1*
X1079620Y1413743D1*
X1076557Y1418740D1*
X1075150Y1421889D1*
X994170D1*
X991948Y1416504D1*
X988885Y1411507D1*
X985078Y1407049D1*
X980620Y1403242D1*
X975622Y1400179D1*
X970206Y1397935D1*
X964505Y1396566D1*
X958662Y1396107D1*
X952818Y1396566D1*
X947117Y1397935D1*
X941701Y1400179D1*
X936704Y1403242D1*
X932246Y1407049D1*
X928439Y1411507D1*
X925376Y1416504D1*
X923131Y1421920D1*
X921763Y1427621D1*
X921303Y1433465D1*
X921763Y1439309D1*
X923131Y1445009D1*
X924362Y1448230D1*
X923271Y1454604D1*
Y1460175D1*
X924142Y1465676D1*
X925038Y1468736D1*
X922860Y1476613D1*
X922414Y1482284D1*
X922860Y1487954D1*
X924188Y1493484D1*
X926365Y1498740D1*
X929336Y1503589D1*
X933030Y1507915D1*
X937356Y1511609D1*
X942205Y1514580D1*
X947461Y1516757D1*
X952991Y1518086D1*
X958662Y1518532D1*
X964332Y1518086D1*
X969862Y1516757D1*
X975118Y1514580D1*
X979967Y1511609D1*
X984293Y1507915D1*
X987987Y1503589D1*
X990958Y1498740D1*
X993302Y1492897D1*
X1076191Y1492889D1*
X1078936Y1498467D1*
X1082280Y1503068D1*
X1086302Y1507091D1*
X1090903Y1510435D1*
X1095971Y1513016D1*
X1101381Y1514774D1*
X1106999Y1515664D1*
X1112687D1*
X1118305Y1514774D1*
X1123714Y1513016D1*
X1128782Y1510435D1*
X1133383Y1507091D1*
X1137217Y1503273D1*
X1137311Y1536251D1*
X1138709Y1543284D1*
X1141711Y1549794D1*
X1146150Y1555425D1*
X1189751Y1598894D1*
X1195713Y1602877D1*
X1202439Y1605358D1*
X1209559Y1606201D1*
X1397499D1*
X1401751Y1611076D1*
X1407721Y1616175D1*
X1414414Y1620276D1*
X1421667Y1623280D1*
X1429301Y1625113D1*
X1434654Y1625673D1*
X1387099D1*
Y1725729D1*
X1487154D1*
X1487382Y1681025D1*
X1488736Y1688394D1*
X1491175Y1695479D1*
X1494643Y1702121D1*
X1499066Y1708170D1*
X1504343Y1713490D1*
X1510355Y1717962D1*
X1516966Y1721487D1*
X1524032Y1723984D1*
X1531390Y1725399D1*
X1538877Y1725698D1*
X1546324Y1724876D1*
X1553566Y1722950D1*
X1560439Y1719965D1*
X1566788Y1715987D1*
X1572473Y1711105D1*
X1577364Y1705428D1*
X1581670Y1698446D1*
X1581673Y1957206D1*
X1575673Y1951718D1*
X1567612Y1945362D1*
X1559076Y1939659D1*
X1550120Y1934642D1*
X1540797Y1930345D1*
X1531166Y1926792D1*
X1521285Y1924005D1*
X1511217Y1922003D1*
X1501021Y1920795D1*
X1490764Y1920393D1*
X1480507Y1920795D1*
X1470311Y1922003D1*
X1460243Y1924005D1*
X1450362Y1926792D1*
X1440731Y1930345D1*
X1431408Y1934642D1*
X1422452Y1939659D1*
X1413916Y1945362D1*
X1405855Y1951718D1*
X1398315Y1958685D1*
X1391348Y1966225D1*
X1384992Y1974286D1*
X1379289Y1982822D1*
X1374272Y1991778D1*
X1369975Y2001101D1*
X1366421Y2010732D1*
X1363635Y2020613D1*
X1361633Y2030681D1*
X1360425Y2040877D1*
X1360023Y2051134D1*
X1360425Y2061391D1*
X1361633Y2071587D1*
X1363635Y2081655D1*
X1366421Y2091536D1*
X1369975Y2101167D1*
X1374272Y2110490D1*
X1379289Y2119446D1*
X1384992Y2127982D1*
X1391348Y2136044D1*
X1398315Y2143583D1*
X1405855Y2150550D1*
X1413916Y2156906D1*
X1422452Y2162609D1*
X1431408Y2167626D1*
X1440731Y2171923D1*
X1450362Y2175477D1*
X1460243Y2178263D1*
X1470311Y2180265D1*
X1480507Y2181473D1*
X1490764Y2181876D1*
X1501021Y2181473D1*
X1511217Y2180265D1*
X1521285Y2178263D1*
X1531166Y2175477D1*
X1540797Y2171923D1*
X1550120Y2167626D1*
X1559076Y2162609D1*
X1567612Y2156906D1*
X1575673Y2150550D1*
X1581651Y2145025D1*
X1581673Y2243046D1*
X1107403Y2242986D1*
Y2077143D1*
X1006561D1*
Y2243091D1*
X907015D1*
X606196Y1579868D2*
Y1564298D1*
X554267Y1564164D1*
X559390Y1561802D1*
X563822Y1558310D1*
X575715Y1545996D1*
X578473Y1541075D1*
X580004Y1535645D1*
X580299Y1525982D1*
X607377Y1526012D1*
Y1435604D1*
X613988Y1441929D1*
Y1579869D1*
X606235Y1579889D1*
X506141Y1601554D2*
Y1685458D1*
X504343Y1678037D1*
X501339Y1670784D1*
X497238Y1664091D1*
X492139Y1658121D1*
X486170Y1653023D1*
X479477Y1648921D1*
X472223Y1645918D1*
X464589Y1644084D1*
X458515Y1643494D1*
X465962Y1642671D1*
X473204Y1640746D1*
X480076Y1637760D1*
X486425Y1633782D1*
X492110Y1628900D1*
X497002Y1623223D1*
X500990Y1616881D1*
X503986Y1610013D1*
X506142Y1601435D1*
X507282Y873315D2*
X506761Y867897D1*
X504928Y860263D1*
X501924Y853009D1*
X497823Y846316D1*
X492725Y840347D1*
X486755Y835248D1*
X480062Y831147D1*
X472809Y828143D1*
X465175Y826310D1*
X458439Y825738D1*
X465175Y825134D1*
X472809Y823301D1*
X480062Y820297D1*
X486755Y816196D1*
X492725Y811097D1*
X497823Y805128D1*
X501924Y798435D1*
X504928Y791181D1*
X506761Y783547D1*
X507377Y775722D1*
X506761Y767897D1*
X504928Y760263D1*
X501924Y753009D1*
X497823Y746316D1*
X492725Y740347D1*
X486755Y735248D1*
X480062Y731147D1*
X472809Y728143D1*
X465175Y726310D1*
X458439Y725738D1*
X465175Y725134D1*
X472809Y723301D1*
X480062Y720297D1*
X486755Y716196D1*
X492398Y711399D1*
X509831Y728811D1*
X509858Y873537D1*
X507310Y873343D1*
X502856Y655030D2*
X500004Y649583D1*
X495390Y643231D1*
X489840Y637681D1*
X483488Y633067D1*
X476494Y629503D1*
X469028Y627076D1*
X461274Y625849D1*
X458439Y625738D1*
X465175Y625134D1*
X472809Y623301D1*
X480062Y620297D1*
X486755Y616196D1*
X492725Y611097D1*
X497528Y605502D1*
X532278Y640236D1*
X532299Y683391D1*
X504789Y656306D1*
X503217Y655255D1*
X501197Y551711D2*
X497823Y546316D1*
X492725Y540347D1*
X486755Y535248D1*
X480062Y531147D1*
X472809Y528143D1*
X465175Y526310D1*
X458439Y525738D1*
X465175Y525134D1*
X472809Y523301D1*
X480062Y520297D1*
X486755Y516196D1*
X492725Y511097D1*
X494130Y509576D1*
X561051Y576488D1*
X561040Y601155D1*
X517293Y557473D1*
X512603Y554337D1*
X507309Y552385D1*
X501267Y551722D1*
X501916Y452996D2*
X497823Y446316D1*
X492725Y440347D1*
X486755Y435248D1*
X480062Y431147D1*
X472809Y428143D1*
X464246Y426201D1*
X589629D1*
X581990Y428028D1*
X574736Y431032D1*
X568044Y435133D1*
X562074Y440231D1*
X556975Y446201D1*
X552874Y452894D1*
X549870Y460147D1*
X548037Y467781D1*
X547421Y475607D1*
X548037Y483432D1*
X549870Y491066D1*
X552874Y498319D1*
X556012Y503570D1*
X508332Y456306D1*
X503403Y453546D1*
X506792Y1395331D2*
Y1343469D1*
X426176D1*
X426201Y1262574D1*
X496727Y1262583D1*
X593198Y1359030D1*
X507322Y1359028D1*
Y1394916D1*
X1347477Y494530D2*
Y426171D1*
X1404961Y426201D1*
X1398801Y430828D1*
X1392253Y437376D1*
X1386810Y444868D1*
X1382607Y453118D1*
X1379744Y461925D1*
X1378297Y471071D1*
Y480331D1*
X1379744Y489477D1*
X1382607Y498284D1*
X1386810Y506534D1*
X1392253Y514026D1*
X1398801Y520574D1*
X1405795Y525685D1*
X1398801Y530828D1*
X1392253Y537376D1*
X1386810Y544868D1*
X1384463Y549091D1*
X1378000Y548000D1*
X1377655Y532234D1*
X1375869Y525899D1*
X1372652Y520156D1*
X1369799Y516815D1*
X1347461Y494477D1*
X1189689Y426200D2*
X1181326Y428248D1*
X1174433Y431188D1*
X1168057Y435124D1*
X1162340Y439967D1*
X1157411Y445612D1*
X1153381Y451928D1*
X1150337Y458776D1*
X1148352Y466000D1*
X1147456Y474154D1*
X1146861Y467781D1*
X1145028Y460147D1*
X1142024Y452894D1*
X1137923Y446201D1*
X1132824Y440231D1*
X1126855Y435133D1*
X1120162Y431032D1*
X1112908Y428028D1*
X1105320Y426204D1*
X1189629Y426201D1*
X1089578Y426204D2*
X1081990Y428028D1*
X1074736Y431032D1*
X1068044Y435133D1*
X1062074Y440231D1*
X1056975Y446201D1*
X1052874Y452894D1*
X1049870Y460147D1*
X1048037Y467781D1*
X1047465Y474517D1*
X1046861Y467781D1*
X1045028Y460147D1*
X1042024Y452894D1*
X1037923Y446201D1*
X1032824Y440231D1*
X1026855Y435133D1*
X1020162Y431032D1*
X1012908Y428028D1*
X1005320Y426204D1*
X1089629Y426201D1*
X989578Y426204D2*
X981990Y428028D1*
X974736Y431032D1*
X968044Y435133D1*
X962074Y440231D1*
X956975Y446201D1*
X952874Y452894D1*
X949870Y460147D1*
X948037Y467781D1*
X947465Y474517D1*
X946861Y467781D1*
X945028Y460147D1*
X942024Y452894D1*
X937923Y446201D1*
X932824Y440231D1*
X926855Y435133D1*
X920162Y431032D1*
X912908Y428028D1*
X905320Y426204D1*
X989629Y426201D1*
X889578Y426204D2*
X881990Y428028D1*
X874736Y431032D1*
X868044Y435133D1*
X862074Y440231D1*
X856975Y446201D1*
X852874Y452894D1*
X849870Y460147D1*
X848037Y467781D1*
X847465Y474517D1*
X846861Y467781D1*
X845028Y460147D1*
X842024Y452894D1*
X837923Y446201D1*
X832824Y440231D1*
X826855Y435133D1*
X820162Y431032D1*
X812908Y428028D1*
X805320Y426204D1*
X889629Y426201D1*
X789578Y426204D2*
X781990Y428028D1*
X774736Y431032D1*
X768044Y435133D1*
X762074Y440231D1*
X756975Y446201D1*
X752874Y452894D1*
X749870Y460147D1*
X748037Y467781D1*
X747465Y474517D1*
X746861Y467781D1*
X745028Y460147D1*
X742024Y452894D1*
X737923Y446201D1*
X732824Y440231D1*
X726855Y435133D1*
X720162Y431032D1*
X712908Y428028D1*
X705320Y426204D1*
X789629Y426201D1*
X689578Y426204D2*
X681990Y428028D1*
X674736Y431032D1*
X668044Y435133D1*
X662074Y440231D1*
X656975Y446201D1*
X652874Y452894D1*
X649870Y460147D1*
X648037Y467781D1*
X647465Y474517D1*
X646861Y467781D1*
X645028Y460147D1*
X642024Y452894D1*
X637923Y446201D1*
X632824Y440231D1*
X626855Y435133D1*
X620162Y431032D1*
X612908Y428028D1*
X605320Y426204D1*
X689629Y426201D1*
X1164193Y1148473D2*
Y1108044D1*
X1184746Y1087427D1*
X1188075Y1082444D1*
X1190150Y1076819D1*
X1190855Y1070866D1*
Y1060759D1*
X1210792Y1060729D1*
Y991734D1*
X1295181Y991717D1*
X1293605Y997588D1*
X1293260Y1001969D1*
X1293347Y1034481D1*
X1294630Y1040936D1*
X1297386Y1046914D1*
X1301461Y1052083D1*
X1317007Y1067141D1*
X1322757Y1070360D1*
X1322872Y1072213D1*
X1320210Y1077436D1*
X1319302Y1079898D1*
X1249185Y1079894D1*
Y1163534D1*
X1238610Y1153386D1*
X1233381Y1150457D1*
X1227612Y1148830D1*
X1223622Y1148516D1*
X1164198D1*
X1205799Y916610D2*
Y880087D1*
X1230684Y904823D1*
X1235667Y908154D1*
X1241292Y910229D1*
X1247244Y910933D1*
X1249149D1*
X1249185Y931918D1*
X1326676D1*
X1314890Y943689D1*
X1208446Y943717D1*
X1209747Y936458D1*
Y930597D1*
X1208830Y924807D1*
X1207019Y919231D1*
X1205795Y916578D1*
X798567Y899744D2*
X806319D1*
Y839441D1*
X810790Y837681D1*
X814208Y835586D1*
X814532Y854906D1*
Y899744D1*
X815070D1*
X813545Y907700D1*
Y913561D1*
X814462Y919351D1*
X815293Y922272D1*
X797012Y922320D1*
X794767Y920616D1*
X797276Y915172D1*
X798445Y909293D1*
X798524Y899723D1*
X1261685Y1246878D2*
X1349240D1*
Y1149956D1*
X1354542Y1149689D1*
X1359973Y1148158D1*
X1361691Y1147365D1*
X1362945Y1152067D1*
X1363032Y1510858D1*
X1364315Y1517314D1*
X1367071Y1523292D1*
X1371146Y1528461D1*
X1387891Y1545206D1*
X1254265Y1545201D1*
X1257743Y1538706D1*
X1259554Y1533130D1*
X1260471Y1527340D1*
Y1521479D1*
X1259554Y1515689D1*
X1257743Y1510113D1*
X1255082Y1504890D1*
X1251635Y1500147D1*
X1247491Y1496003D1*
X1242748Y1492557D1*
X1237525Y1489895D1*
X1233439Y1488504D1*
X1233711Y1264628D1*
X1237856Y1260483D1*
X1241302Y1255740D1*
X1243963Y1250517D1*
X1245774Y1244941D1*
X1246692Y1239151D1*
Y1233290D1*
X1245193Y1225437D1*
X1248007Y1225815D1*
X1249185Y1229697D1*
Y1246878D1*
X1261685D1*
X650173Y1228792D2*
X671316D1*
X666663Y1230584D1*
X661973Y1233719D1*
X649091Y1246495D1*
X646320Y1244663D1*
X557849Y1156192D1*
X557858Y1114629D1*
X572114Y1128471D1*
X577036Y1131229D1*
X582466Y1132760D1*
X598721Y1133055D1*
X637637D1*
X637673Y1228792D1*
X650173D1*
X670785Y1061807D2*
X637673D1*
Y1085099D1*
X596163Y1085055D1*
X580301Y1069193D1*
X580299Y1004378D1*
X605185Y1028865D1*
X610107Y1031622D1*
X615537Y1033154D1*
X631792Y1033449D1*
X637309D1*
X637272Y1059193D1*
X668767D1*
X669533Y1060271D1*
X1487154Y1673356D2*
Y1625673D1*
X1441051Y1625574D1*
X1448805Y1624347D1*
X1456271Y1621920D1*
X1463265Y1618356D1*
X1469617Y1613742D1*
X1475167Y1608192D1*
X1479781Y1601840D1*
X1483345Y1594845D1*
X1485772Y1587379D1*
X1486999Y1579626D1*
X1487110Y1576790D1*
X1487714Y1583526D1*
X1489547Y1591160D1*
X1492551Y1598414D1*
X1496652Y1605107D1*
X1501751Y1611076D1*
X1507721Y1616175D1*
X1514414Y1620276D1*
X1521667Y1623280D1*
X1529301Y1625113D1*
X1536037Y1625685D1*
X1528256Y1626466D1*
X1521003Y1628343D1*
X1514110Y1631282D1*
X1507734Y1635218D1*
X1502017Y1640062D1*
X1497088Y1645706D1*
X1493058Y1652023D1*
X1490015Y1658870D1*
X1488029Y1666095D1*
X1487154Y1673408D1*
X1581675Y1652970D2*
X1576963Y1645440D1*
X1571996Y1639828D1*
X1566248Y1635023D1*
X1559845Y1631130D1*
X1552933Y1628236D1*
X1545667Y1626408D1*
X1538649Y1625706D1*
X1544952Y1625113D1*
X1552586Y1623280D1*
X1559839Y1620276D1*
X1566532Y1616175D1*
X1572502Y1611076D1*
X1577600Y1605107D1*
X1581679Y1598453D1*
X1581673Y1652910D1*
X1581679Y1552949D2*
X1577600Y1546295D1*
X1572502Y1540326D1*
X1566532Y1535227D1*
X1559839Y1531126D1*
X1552586Y1528122D1*
X1544952Y1526289D1*
X1538215Y1525717D1*
X1544952Y1525113D1*
X1552586Y1523280D1*
X1559839Y1520276D1*
X1566532Y1516175D1*
X1572502Y1511076D1*
X1577600Y1505107D1*
X1581679Y1498453D1*
X1581673Y1552910D1*
X1492003Y1454086D2*
X1487442Y1444868D1*
X1481999Y1437376D1*
X1475452Y1430828D1*
X1468457Y1425717D1*
X1475452Y1420574D1*
X1481999Y1414026D1*
X1487442Y1406534D1*
X1492003Y1397316D1*
X1496652Y1405107D1*
X1501751Y1411076D1*
X1507721Y1416175D1*
X1514414Y1420276D1*
X1521667Y1423280D1*
X1529301Y1425113D1*
X1536037Y1425685D1*
X1529301Y1426289D1*
X1521667Y1428122D1*
X1514414Y1431126D1*
X1507721Y1435227D1*
X1501751Y1440326D1*
X1496652Y1446295D1*
X1492044Y1454089D1*
X1581679Y1452949D2*
X1577600Y1446295D1*
X1572502Y1440326D1*
X1566532Y1435227D1*
X1559839Y1431126D1*
X1552586Y1428122D1*
X1544952Y1426289D1*
X1538215Y1425717D1*
X1544952Y1425113D1*
X1552586Y1423280D1*
X1559839Y1420276D1*
X1566532Y1416175D1*
X1572502Y1411076D1*
X1577600Y1405107D1*
X1581679Y1398453D1*
X1581673Y1452910D1*
X1492003Y1354086D2*
X1487442Y1344868D1*
X1481999Y1337376D1*
X1475452Y1330828D1*
X1468457Y1325717D1*
X1475452Y1320574D1*
X1481999Y1314026D1*
X1487442Y1306534D1*
X1492003Y1297316D1*
X1496652Y1305107D1*
X1501751Y1311076D1*
X1507721Y1316175D1*
X1514414Y1320276D1*
X1521667Y1323280D1*
X1529301Y1325113D1*
X1536037Y1325685D1*
X1529301Y1326289D1*
X1521667Y1328122D1*
X1514414Y1331126D1*
X1507721Y1335227D1*
X1501751Y1340326D1*
X1496652Y1346295D1*
X1492044Y1354089D1*
X1581679Y1352949D2*
X1577600Y1346295D1*
X1572502Y1340326D1*
X1566532Y1335227D1*
X1559839Y1331126D1*
X1552586Y1328122D1*
X1544952Y1326289D1*
X1538215Y1325717D1*
X1544952Y1325113D1*
X1552586Y1323280D1*
X1559839Y1320276D1*
X1566532Y1316175D1*
X1572502Y1311076D1*
X1577600Y1305107D1*
X1581273Y1299176D1*
X1581673Y1301201D1*
Y1352910D1*
X1492003Y1254086D2*
X1487442Y1244868D1*
X1481999Y1237376D1*
X1475452Y1230828D1*
X1468457Y1225717D1*
X1475452Y1220574D1*
X1481999Y1214026D1*
X1487442Y1206534D1*
X1492003Y1197316D1*
X1496652Y1205107D1*
X1501751Y1211076D1*
X1507721Y1216175D1*
X1514414Y1220276D1*
X1521667Y1223280D1*
X1529301Y1225113D1*
X1536037Y1225685D1*
X1529301Y1226289D1*
X1521667Y1228122D1*
X1514414Y1231126D1*
X1507721Y1235227D1*
X1501751Y1240326D1*
X1496652Y1246295D1*
X1492044Y1254089D1*
X1487110Y744370D2*
X1481999Y737376D1*
X1475452Y730828D1*
X1468457Y725717D1*
X1475452Y720574D1*
X1481999Y714026D1*
X1487442Y706534D1*
X1492003Y697316D1*
X1496652Y705107D1*
X1501751Y711076D1*
X1507721Y716175D1*
X1515515Y720784D1*
X1506293Y725385D1*
X1498801Y730828D1*
X1492253Y737376D1*
X1487142Y744370D1*
X1492003Y654086D2*
X1487442Y644868D1*
X1481999Y637376D1*
X1475452Y630828D1*
X1468457Y625717D1*
X1475452Y620574D1*
X1481999Y614026D1*
X1487442Y606534D1*
X1492003Y597316D1*
X1496652Y605107D1*
X1501751Y611076D1*
X1507721Y616175D1*
X1514414Y620276D1*
X1521667Y623280D1*
X1529301Y625113D1*
X1536037Y625685D1*
X1529301Y626289D1*
X1521667Y628122D1*
X1514414Y631126D1*
X1507721Y635227D1*
X1501751Y640326D1*
X1496652Y646295D1*
X1492044Y654089D1*
X1581679Y652949D2*
X1577600Y646295D1*
X1572502Y640326D1*
X1566532Y635227D1*
X1559839Y631126D1*
X1552586Y628122D1*
X1544952Y626289D1*
X1538215Y625717D1*
X1544952Y625113D1*
X1552586Y623280D1*
X1559839Y620276D1*
X1566532Y616175D1*
X1572502Y611076D1*
X1577600Y605107D1*
X1581679Y598453D1*
X1581673Y652910D1*
X1492003Y554086D2*
X1487442Y544868D1*
X1481999Y537376D1*
X1475452Y530828D1*
X1468457Y525717D1*
X1475452Y520574D1*
X1481999Y514026D1*
X1487110Y507032D1*
X1492253Y514026D1*
X1498801Y520574D1*
X1506293Y526017D1*
X1515511Y530578D1*
X1507721Y535227D1*
X1501751Y540326D1*
X1496652Y546295D1*
X1492044Y554089D1*
X819330Y1242625D2*
X816541Y1247213D1*
X814297Y1252629D1*
X812928Y1258330D1*
X812469Y1264173D1*
X812928Y1270017D1*
X814297Y1275718D1*
X816541Y1281134D1*
X819604Y1286131D1*
X823411Y1290589D1*
X827869Y1294397D1*
X832866Y1297460D1*
X838282Y1299704D1*
X843983Y1301072D1*
X849827Y1301532D1*
X855671Y1301072D1*
X861372Y1299704D1*
X866788Y1297460D1*
X871785Y1294397D1*
X876243Y1290589D1*
X880050Y1286131D1*
X883113Y1281134D1*
X885357Y1275718D1*
X886726Y1270017D1*
X887185Y1264173D1*
X886726Y1258330D1*
X885357Y1252629D1*
X883113Y1247213D1*
X881680Y1244654D1*
X880326Y1231744D1*
X883122D1*
Y1149406D1*
X816532D1*
Y1231744D1*
X819315D1*
X819327Y1242576D1*
X815313Y1249877D1*
X813502Y1255453D1*
X812584Y1261243D1*
Y1267104D1*
X813502Y1272894D1*
X815313Y1278470D1*
X817974Y1283693D1*
X821420Y1288436D1*
X825565Y1292580D1*
X830307Y1296026D1*
X835530Y1298688D1*
X841107Y1300499D1*
X846897Y1301416D1*
X852757D1*
X858547Y1300499D1*
X864124Y1298688D1*
X869347Y1296026D1*
X874089Y1292580D1*
X878234Y1288436D1*
X881680Y1283693D1*
X884341Y1278470D1*
X886152Y1272894D1*
X887070Y1267104D1*
Y1261243D1*
X886152Y1255453D1*
X884341Y1249877D1*
X881680Y1244654D1*
X880324Y1242625D1*
X880327Y1231702D1*
X881680Y1244654D1*
X880324Y1242625D1*
X856588Y2175596D2*
D21*
Y2075223D1*
X806215Y2175596D2*
X906961D1*
X1056982Y2177565D2*
Y2077192D1*
X1006609Y2177565D2*
X1107355D1*
X1276299Y649082D2*
Y549124D1*
X1230257Y599103D2*
X1276299D1*
X556168Y1731234D2*
Y1685192D1*
X506189D2*
X606147D1*
X456764Y1643475D2*
Y1593496D1*
X506743D1*
X1197449Y525586D2*
Y425628D1*
X1147470Y475607D2*
X1247428D1*
X1437126Y1725680D2*
Y1625722D1*
X1387147Y1675701D2*
X1487105D1*
X1537126Y1725680D2*
Y1625722D1*
X1487147Y1675701D2*
X1537126D1*
D22*
X856588Y2175596D3*
X1056982Y2177565D3*
D24*
X1351103Y599103D3*
X1276299D3*
D25*
X556168Y1610389D3*
Y1685192D3*
D26*
X457349Y1175722D3*
D27*
Y1075722D3*
Y975722D3*
Y875722D3*
Y775722D3*
Y675722D3*
Y575722D3*
Y475722D3*
D26*
X456764Y1393496D3*
D27*
Y1493496D3*
Y1593496D3*
Y1693496D3*
Y1793496D3*
D26*
X1297449Y475607D3*
D27*
X1197449D3*
X1097449D3*
X997449D3*
X897449D3*
X797449D3*
X697449D3*
X597449D3*
D29*
X1093496Y1216654D3*
X1168299D3*
X1130898Y1126103D3*
X1097701Y891701D3*
X1172504D3*
X1135103Y801150D3*
X775024Y1190575D3*
X849827D3*
X812425Y1100024D3*
X773024Y858575D3*
X847827D3*
X810425Y768024D3*
D25*
X1299213Y1200788D3*
Y1125984D3*
D24*
X1164701Y1010701D3*
X1089898D3*
D25*
X1299213Y885827D3*
Y811024D3*
D24*
X1164504Y680701D3*
X1089701D3*
D25*
X687701Y1182701D3*
Y1107898D3*
D24*
X768299Y972299D3*
X843103D3*
D25*
X687299Y938299D3*
Y1013103D3*
X688701Y848701D3*
Y773898D3*
X557349Y1405118D3*
Y1479921D3*
D26*
X1437126Y1675701D3*
D27*
X1537126D3*
X1437126Y1575701D3*
X1537126D3*
X1437126Y1475701D3*
X1537126D3*
X1437126Y1375701D3*
X1537126D3*
X1437126Y1275701D3*
X1537126D3*
X1437126Y1175701D3*
X1537126D3*
X1437126Y1075701D3*
X1537126D3*
X1437126Y975701D3*
X1537126D3*
X1437126Y875701D3*
X1537126D3*
X1437126Y775701D3*
X1537126D3*
X1437126Y675701D3*
X1537126D3*
X1437126Y575701D3*
X1537126D3*
X1437126Y475701D3*
X1537126D3*
M02*
