M48
INCH
T01C0.0157
T02C0.0354
T03C0.1594
%
T01
X+006627Y+022058
X+007415Y+022047
X+007413Y+021260
X+007415Y+020472
X+008201Y+020483
X+008988Y+020472
X+008987Y+019685
X+008199Y+019694
X+007413Y+019685
X+007413Y+018898
X+007412Y+018110
X+006625Y+018119
X+006626Y+018908
X+006626Y+019694
X+006627Y+020483
X+006626Y+021269
X+005837Y+021249
X+005839Y+022037
X+005051Y+022047
X+005050Y+021259
X+005051Y+020472
X+005839Y+020462
X+005837Y+019675
X+005839Y+018888
X+005051Y+018898
X+005050Y+019684
X+006693Y+017332
X+007480Y+017323
X+008201Y+017323
X+008988Y+017314
X+008990Y+018101
X+008202Y+018112
X+009777Y+018121
X+010564Y+018110
X+010563Y+017323
X+011350Y+017323
X+012138Y+017314
X+012139Y+018101
X+011352Y+018112
X+011350Y+018907
X+011349Y+019685
X+012133Y+019690
X+012142Y+020477
X+012921Y+020477
X+012930Y+019690
X+012921Y+018902
X+012138Y+018898
X+011350Y+020472
X+010563Y+020483
X+010562Y+019694
X+011349Y+021269
X+012136Y+021260
X+012138Y+022047
X+012925Y+022047
X+012930Y+021264
X+013713Y+022038
X+011350Y+022058
X+009776Y+017332
X+009587Y+014823
X+009587Y+014335
X+011098Y+014357
X+011098Y+014795
X+011180Y+013857
X+011299Y+012169
X+012094Y+012362
X+013547Y+010917
X+013685Y+010075
X+014866Y+009256
X+013000Y+007591
X+012346Y+007594
X+010898Y+007842
X+011725Y+009335
X+008902Y+007929
X+008508Y+009106
X+007500Y+010673
X+007598Y+011224
X+007398Y+012807
X+006941Y+012839
X+006638Y+013366
X+008138Y+013382
X+008498Y+012642
X+009768Y+012642
X+012232Y+015244
X+006197Y+008358
X+005055Y+009106
X+007280Y+007094
X+007185Y+006346
X+006614Y+005602
X+009094Y+006346
X+010567Y+005689
T02
X+004573Y+011757
X+004573Y+010757
X+004573Y+009757
X+004573Y+008757
X+004573Y+007757
X+004573Y+006757
X+004573Y+005757
X+004573Y+004757
X+005974Y+004756
X+006974Y+004756
X+007974Y+004756
X+008974Y+004756
X+009974Y+004756
X+010974Y+004756
X+011974Y+004756
X+012974Y+004756
X+014371Y+004757
X+014371Y+005757
X+014371Y+006757
X+014371Y+007757
X+014371Y+008757
X+014371Y+009757
X+014371Y+010757
X+014371Y+011757
X+015371Y+011757
X+015371Y+010757
X+015371Y+009757
X+015371Y+008757
X+015371Y+007757
X+015371Y+006757
X+015371Y+005757
X+015371Y+004757
X+015371Y+012757
X+015371Y+013757
X+015371Y+014757
X+014371Y+014757
X+014371Y+013757
X+014371Y+012757
X+014371Y+015757
X+015371Y+015757
X+015371Y+016757
X+014371Y+016757
X+004568Y+016935
X+004568Y+017935
X+004568Y+015935
X+004568Y+014935
X+004568Y+013935
T03
X+014908Y+020511
T00
M30
