G04 DipTrace 3.0.0.1*
G04 TopSilk.gbr*
%MOIN*%
G04 #@! TF.FileFunction,Legend,Top*
G04 #@! TF.Part,Single*
%ADD10C,0.01*%
%ADD12C,0.002992*%
%ADD57C,0.006176*%
%FSLAX26Y26*%
G04*
G70*
G90*
G75*
G01*
G04 TopSilk*
%LPD*%
X1257461Y597265D2*
D10*
X1206319D1*
X1068508Y597320D2*
X1017366D1*
X876358Y597265D2*
X825217D1*
X687382D2*
X636240D1*
X507349Y1225722D2*
Y425722D1*
X407349Y1225722D2*
X507349D1*
X407349D2*
Y425722D1*
X507349D1*
X506764Y1843496D2*
X406764D1*
X506764Y1343496D2*
Y1843496D1*
X406764Y1343496D2*
Y1843496D1*
X506764Y1343496D2*
X406764D1*
X1347449Y425607D2*
X547449D1*
X1347449Y525607D2*
Y425607D1*
Y525607D2*
X547449D1*
Y425607D1*
X770992Y1885674D2*
X597028D1*
Y1861737D1*
X1125000Y1885674D2*
X1296988D1*
Y1861737D1*
X1387126Y425701D2*
X1587126D1*
X1387126Y1725701D2*
X1587126D1*
Y425701D1*
X1387126Y1725701D2*
Y425701D1*
X1458815Y1928111D2*
D12*
X1485743D1*
X1457780Y1925119D2*
X1486777D1*
X1456750Y1922127D2*
X1487808D1*
X1416927Y1919135D2*
D3*
X1455457D2*
X1489101D1*
X1527631D2*
D3*
X1412912Y1916143D2*
X1422911D1*
X1453624D2*
X1490933D1*
X1521647D2*
X1530623D1*
X1409029Y1913151D2*
X1428895D1*
X1449085D2*
X1495472D1*
X1515663D2*
X1534996D1*
X1405468Y1910159D2*
X1434879D1*
X1443855D2*
X1500703D1*
X1509679D2*
X1538850D1*
X1402167Y1907167D2*
X1542300D1*
X1398975Y1904175D2*
X1545583D1*
X1400944Y1901183D2*
X1543614D1*
X1403034Y1898191D2*
X1541524D1*
X1405342Y1895199D2*
X1539216D1*
X1407531Y1892207D2*
X1537027D1*
X1409390Y1889215D2*
X1535168D1*
X1409972Y1886223D2*
X1534586D1*
X1409282Y1883231D2*
X1535275D1*
X1408117Y1880239D2*
X1536441D1*
X1403726Y1877247D2*
X1465987D1*
X1478571D2*
X1540831D1*
X1397200Y1874255D2*
X1459600D1*
X1484958D2*
X1547358D1*
X1390447Y1871263D2*
X1454997D1*
X1489561D2*
X1554111D1*
X1384897Y1868271D2*
X1451867D1*
X1492691D2*
X1559661D1*
X1382533Y1865279D2*
X1449731D1*
X1494826D2*
X1562024D1*
X1381719Y1862287D2*
X1448111D1*
X1496447D2*
X1562839D1*
X1381328Y1859295D2*
X1447935D1*
X1496622D2*
X1563229D1*
X1381177Y1856303D2*
X1448442D1*
X1496116D2*
X1563381D1*
X1382047Y1853311D2*
X1449567D1*
X1494991D2*
X1562510D1*
X1386391Y1850319D2*
X1451334D1*
X1493223D2*
X1558167D1*
X1392744Y1847327D2*
X1453834D1*
X1490723D2*
X1551813D1*
X1399243Y1844335D2*
X1456663D1*
X1487895D2*
X1545314D1*
X1404085Y1841343D2*
X1459329D1*
X1485229D2*
X1540472D1*
X1407694Y1838351D2*
X1460442D1*
X1484115D2*
X1536863D1*
X1409455Y1835359D2*
X1460041D1*
X1484516D2*
X1535102D1*
X1409965Y1832367D2*
X1459130D1*
X1485428D2*
X1534593D1*
X1408904Y1829375D2*
X1457900D1*
X1486658D2*
X1535654D1*
X1407142Y1826383D2*
X1456508D1*
X1488050D2*
X1537415D1*
X1405079Y1823391D2*
X1455054D1*
X1489503D2*
X1539479D1*
X1403063Y1820399D2*
X1453570D1*
X1490987D2*
X1541494D1*
X1401057Y1817407D2*
X1452072D1*
X1492485D2*
X1543500D1*
X1398975Y1814415D2*
X1450498D1*
X1494060D2*
X1545583D1*
X1402431Y1811423D2*
X1448753D1*
X1495805D2*
X1542126D1*
X1406190Y1808431D2*
X1431337D1*
X1440863D2*
X1446847D1*
X1497711D2*
X1503695D1*
X1513221D2*
X1538367D1*
X1410081Y1805439D2*
X1427295D1*
X1517263D2*
X1534477D1*
X1413935Y1802447D2*
X1422911D1*
X1521647D2*
X1530623D1*
X1360079Y1784495D2*
X1372047D1*
X1381023D2*
X1398975D1*
X1404959D2*
X1419919D1*
X1425903D2*
X1443855D1*
X1461807D2*
X1479759D1*
X1485743D2*
X1500703D1*
X1506687D2*
X1512671D1*
X1521647D2*
X1527631D1*
X1533615D2*
X1566527D1*
X1572511D2*
X1584479D1*
X1360079Y1781503D2*
X1373428D1*
X1381023D2*
X1398975D1*
X1404959D2*
X1445236D1*
X1461795D2*
X1512671D1*
X1521647D2*
X1527631D1*
X1533615D2*
X1584479D1*
X1360079Y1778511D2*
D3*
X1369055D2*
X1374276D1*
X1381023D2*
X1384565D1*
X1392991D2*
X1431887D1*
X1440863D2*
X1446095D1*
X1461681D2*
X1476767D1*
X1482751D2*
X1488735D1*
X1497711D2*
X1512671D1*
X1521647D2*
X1527631D1*
X1533615D2*
X1536607D1*
X1548587D2*
X1554559D1*
X1568747D2*
X1584479D1*
X1360079Y1775519D2*
D3*
X1372047D2*
X1374596D1*
X1381023D2*
X1385615D1*
X1392991D2*
X1431887D1*
X1440863D2*
X1446530D1*
X1461219D2*
X1488735D1*
X1497711D2*
X1512671D1*
X1521647D2*
X1527631D1*
X1533615D2*
X1536607D1*
X1548700D2*
X1551567D1*
X1566401D2*
X1584479D1*
X1360079Y1772527D2*
X1363071D1*
X1369055D2*
X1374327D1*
X1381023D2*
X1387007D1*
X1392991D2*
X1407951D1*
X1416927D2*
X1419919D1*
X1425903D2*
X1431887D1*
X1440863D2*
X1446723D1*
X1460196D2*
X1464799D1*
X1473775D2*
X1488735D1*
X1497711D2*
X1512671D1*
X1521647D2*
X1527631D1*
X1533615D2*
X1536607D1*
X1549163D2*
X1554559D1*
X1563535D2*
X1575503D1*
X1584479D2*
D3*
X1360079Y1769535D2*
X1373385D1*
X1381023D2*
X1397713D1*
X1404959D2*
X1431887D1*
X1440863D2*
X1446804D1*
X1458815D2*
X1500703D1*
X1506687D2*
X1527631D1*
X1533615D2*
X1536607D1*
X1550186D2*
X1584479D1*
X1360079Y1766543D2*
X1372047D1*
X1381023D2*
X1392994D1*
X1407951D2*
X1419919D1*
X1425903D2*
X1431887D1*
X1440863D2*
X1446847D1*
X1461807D2*
X1479063D1*
X1485743D2*
X1500703D1*
X1509679D2*
X1527631D1*
X1533615D2*
X1536607D1*
X1551567D2*
X1566527D1*
X1572511D2*
X1584479D1*
X1381023Y1763551D2*
X1388860D1*
X1460426D2*
X1471556D1*
X1381023Y1760559D2*
X1386073D1*
X1459563D2*
X1465547D1*
X1381023Y1757567D2*
X1384015D1*
X1459106D2*
X1467713D1*
X1381023Y1754575D2*
X1390563D1*
X1404959D2*
X1419919D1*
X1428895D2*
X1470060D1*
X1479759D2*
X1485743D1*
X1494719D2*
X1518655D1*
X1527631D2*
X1557551D1*
X1381023Y1751583D2*
X1395658D1*
X1410569D2*
X1421300D1*
X1428895D2*
X1472071D1*
X1479759D2*
X1485743D1*
X1494719D2*
X1519678D1*
X1527631D2*
X1559943D1*
X1381023Y1748591D2*
X1387594D1*
X1392404D2*
X1397540D1*
X1416927D2*
X1422159D1*
X1428895D2*
X1435466D1*
X1443855D2*
X1449839D1*
X1458815D2*
X1473775D1*
X1479759D2*
X1497246D1*
X1517547D2*
X1520568D1*
X1527631D2*
X1530623D1*
X1542591D2*
X1548575D1*
X1557551D2*
X1561931D1*
X1381023Y1745599D2*
X1385834D1*
X1394164D2*
X1398975D1*
X1404959D2*
X1422595D1*
X1428895D2*
X1433706D1*
X1443855D2*
X1449839D1*
X1458815D2*
X1464799D1*
X1470783D2*
X1496479D1*
X1509739D2*
X1521138D1*
X1527631D2*
X1530623D1*
X1542591D2*
X1562512D1*
X1381023Y1742607D2*
X1384763D1*
X1395234D2*
X1422795D1*
X1428895D2*
X1432635D1*
X1443855D2*
X1449839D1*
X1458815D2*
X1464799D1*
X1470783D2*
X1479759D1*
X1485743D2*
X1495581D1*
X1504559D2*
X1521447D1*
X1527631D2*
X1530623D1*
X1542591D2*
X1561706D1*
X1381023Y1739615D2*
X1384015D1*
X1395983D2*
X1422911D1*
X1428895D2*
X1431887D1*
X1443855D2*
X1464799D1*
X1470783D2*
X1479759D1*
X1485743D2*
X1494719D1*
X1500703D2*
X1521647D1*
X1527631D2*
X1530623D1*
X1542591D2*
X1560543D1*
X1458815Y1928111D2*
X1457780Y1925119D1*
X1456750Y1922127D1*
X1455457Y1919135D1*
X1453624Y1916143D1*
X1449085Y1913151D1*
X1443855Y1910159D1*
X1485743Y1928111D2*
X1486777Y1925119D1*
X1487808Y1922127D1*
X1489101Y1919135D1*
X1490933Y1916143D1*
X1495472Y1913151D1*
X1500703Y1910159D1*
X1416927Y1919135D2*
X1412912Y1916143D1*
X1409029Y1913151D1*
X1405468Y1910159D1*
X1402167Y1907167D1*
X1398975Y1904175D1*
X1400944Y1901183D1*
X1403034Y1898191D1*
X1405342Y1895199D1*
X1407531Y1892207D1*
X1409390Y1889215D1*
X1409972Y1886223D1*
X1409282Y1883231D1*
X1408117Y1880239D1*
X1403726Y1877247D1*
X1397200Y1874255D1*
X1390447Y1871263D1*
X1384897Y1868271D1*
X1382533Y1865279D1*
X1381719Y1862287D1*
X1381328Y1859295D1*
X1381177Y1856303D1*
X1382047Y1853311D1*
X1386391Y1850319D1*
X1392744Y1847327D1*
X1399243Y1844335D1*
X1404085Y1841343D1*
X1407694Y1838351D1*
X1409455Y1835359D1*
X1409965Y1832367D1*
X1408904Y1829375D1*
X1407142Y1826383D1*
X1405079Y1823391D1*
X1403063Y1820399D1*
X1401057Y1817407D1*
X1398975Y1814415D1*
X1402431Y1811423D1*
X1406190Y1808431D1*
X1410081Y1805439D1*
X1413935Y1802447D1*
X1527631Y1919135D2*
X1521647Y1916143D1*
X1515663Y1913151D1*
X1509679Y1910159D1*
X1422911Y1916143D2*
X1428895Y1913151D1*
X1434879Y1910159D1*
X1530623Y1916143D2*
X1534996Y1913151D1*
X1538850Y1910159D1*
X1542300Y1907167D1*
X1545583Y1904175D1*
X1543614Y1901183D1*
X1541524Y1898191D1*
X1539216Y1895199D1*
X1537027Y1892207D1*
X1535168Y1889215D1*
X1534586Y1886223D1*
X1535275Y1883231D1*
X1536441Y1880239D1*
X1540831Y1877247D1*
X1547358Y1874255D1*
X1554111Y1871263D1*
X1559661Y1868271D1*
X1562024Y1865279D1*
X1562839Y1862287D1*
X1563229Y1859295D1*
X1563381Y1856303D1*
X1562510Y1853311D1*
X1558167Y1850319D1*
X1551813Y1847327D1*
X1545314Y1844335D1*
X1540472Y1841343D1*
X1536863Y1838351D1*
X1535102Y1835359D1*
X1534593Y1832367D1*
X1535654Y1829375D1*
X1537415Y1826383D1*
X1539479Y1823391D1*
X1541494Y1820399D1*
X1543500Y1817407D1*
X1545583Y1814415D1*
X1542126Y1811423D1*
X1538367Y1808431D1*
X1534477Y1805439D1*
X1530623Y1802447D1*
X1473775Y1880239D2*
X1465987Y1877247D1*
X1459600Y1874255D1*
X1454997Y1871263D1*
X1451867Y1868271D1*
X1449731Y1865279D1*
X1448111Y1862287D1*
X1447935Y1859295D1*
X1448442Y1856303D1*
X1449567Y1853311D1*
X1451334Y1850319D1*
X1453834Y1847327D1*
X1456663Y1844335D1*
X1459329Y1841343D1*
X1460442Y1838351D1*
X1460041Y1835359D1*
X1459130Y1832367D1*
X1457900Y1829375D1*
X1456508Y1826383D1*
X1455054Y1823391D1*
X1453570Y1820399D1*
X1452072Y1817407D1*
X1450498Y1814415D1*
X1448753Y1811423D1*
X1446847Y1808431D1*
X1470783Y1880239D2*
X1478571Y1877247D1*
X1484958Y1874255D1*
X1489561Y1871263D1*
X1492691Y1868271D1*
X1494826Y1865279D1*
X1496447Y1862287D1*
X1496622Y1859295D1*
X1496116Y1856303D1*
X1494991Y1853311D1*
X1493223Y1850319D1*
X1490723Y1847327D1*
X1487895Y1844335D1*
X1485229Y1841343D1*
X1484115Y1838351D1*
X1484516Y1835359D1*
X1485428Y1832367D1*
X1486658Y1829375D1*
X1488050Y1826383D1*
X1489503Y1823391D1*
X1490987Y1820399D1*
X1492485Y1817407D1*
X1494060Y1814415D1*
X1495805Y1811423D1*
X1497711Y1808431D1*
X1434879Y1811423D2*
X1431337Y1808431D1*
X1427295Y1805439D1*
X1422911Y1802447D1*
X1437871Y1811423D2*
X1440863Y1808431D1*
X1506687Y1811423D2*
X1503695Y1808431D1*
X1509679Y1811423D2*
X1513221Y1808431D1*
X1517263Y1805439D1*
X1521647Y1802447D1*
X1360079Y1784495D2*
Y1781503D1*
Y1778511D1*
Y1775519D1*
Y1772527D1*
Y1769535D1*
Y1766543D1*
X1372047Y1784495D2*
X1373428Y1781503D1*
X1374276Y1778511D1*
X1374596Y1775519D1*
X1374327Y1772527D1*
X1373385Y1769535D1*
X1372047Y1766543D1*
X1381023Y1784495D2*
Y1781503D1*
Y1778511D1*
Y1775519D1*
Y1772527D1*
Y1769535D1*
Y1766543D1*
Y1763551D1*
Y1760559D1*
Y1757567D1*
Y1754575D1*
Y1751583D1*
Y1748591D1*
Y1745599D1*
Y1742607D1*
Y1739615D1*
X1398975Y1784495D2*
Y1781503D1*
X1404959Y1784495D2*
Y1781503D1*
X1419919Y1784495D2*
X1425903D2*
X1443855D2*
X1445236Y1781503D1*
X1446095Y1778511D1*
X1446530Y1775519D1*
X1446723Y1772527D1*
X1446804Y1769535D1*
X1446847Y1766543D1*
X1461807Y1784495D2*
X1461795Y1781503D1*
X1461681Y1778511D1*
X1461219Y1775519D1*
X1460196Y1772527D1*
X1458815Y1769535D1*
X1461807Y1766543D1*
X1460426Y1763551D1*
X1459563Y1760559D1*
X1459106Y1757567D1*
X1458815Y1754575D1*
X1428895D1*
Y1751583D1*
Y1748591D1*
Y1745599D1*
Y1742607D1*
Y1739615D1*
X1479759Y1784495D2*
X1485743D2*
X1500703D2*
X1506687D2*
X1512671D2*
Y1781503D1*
Y1778511D1*
Y1775519D1*
Y1772527D1*
X1521647Y1784495D2*
Y1781503D1*
Y1778511D1*
Y1775519D1*
Y1772527D1*
X1527631Y1784495D2*
Y1781503D1*
Y1778511D1*
Y1775519D1*
Y1772527D1*
Y1769535D1*
Y1766543D1*
X1533615Y1784495D2*
Y1781503D1*
Y1778511D1*
Y1775519D1*
Y1772527D1*
Y1769535D1*
Y1766543D1*
X1566527Y1784495D2*
X1572511D2*
X1584479D2*
Y1781503D1*
Y1778511D1*
Y1775519D1*
Y1772527D1*
Y1769535D1*
Y1766543D1*
X1366063Y1781503D2*
X1369055Y1778511D1*
X1372047Y1775519D1*
X1369055Y1772527D1*
X1384015Y1781503D2*
X1384565Y1778511D1*
X1385615Y1775519D1*
X1387007Y1772527D1*
X1392991Y1781503D2*
Y1778511D1*
Y1775519D1*
Y1772527D1*
X1431887Y1781503D2*
Y1778511D1*
Y1775519D1*
Y1772527D1*
Y1769535D1*
Y1766543D1*
X1440863Y1781503D2*
Y1778511D1*
Y1775519D1*
Y1772527D1*
Y1769535D1*
Y1766543D1*
X1479759Y1781503D2*
X1476767Y1778511D1*
X1479759Y1781503D2*
X1482751Y1778511D1*
X1488735Y1781503D2*
Y1778511D1*
Y1775519D1*
Y1772527D1*
X1497711Y1781503D2*
Y1778511D1*
Y1775519D1*
Y1772527D1*
X1536607Y1781503D2*
Y1778511D1*
Y1775519D1*
Y1772527D1*
Y1769535D1*
Y1766543D1*
X1548575Y1781503D2*
X1548587Y1778511D1*
X1548700Y1775519D1*
X1549163Y1772527D1*
X1550186Y1769535D1*
X1551567Y1766543D1*
X1557551Y1781503D2*
X1554559Y1778511D1*
X1551567Y1775519D1*
X1554559Y1772527D1*
X1569519Y1781503D2*
X1568747Y1778511D1*
X1566401Y1775519D1*
X1563535Y1772527D1*
X1363071D2*
X1410943Y1775519D2*
X1407951Y1772527D1*
X1413935Y1775519D2*
X1416927Y1772527D1*
X1422911Y1775519D2*
X1419919Y1772527D1*
X1422911Y1775519D2*
X1425903Y1772527D1*
X1467791Y1775519D2*
X1464799Y1772527D1*
X1470783Y1775519D2*
X1473775Y1772527D1*
X1578495Y1775519D2*
X1575503Y1772527D1*
X1401967D2*
X1397713Y1769535D1*
X1392994Y1766543D1*
X1388860Y1763551D1*
X1386073Y1760559D1*
X1384015Y1757567D1*
X1390563Y1754575D1*
X1395658Y1751583D1*
X1397540Y1748591D1*
X1398975Y1745599D1*
X1401967Y1772527D2*
X1404959Y1769535D1*
X1407951Y1766543D1*
X1500703Y1772527D2*
Y1769535D1*
Y1766543D1*
X1503695Y1772527D2*
X1506687Y1769535D1*
X1509679Y1766543D1*
X1422911Y1769535D2*
X1419919Y1766543D1*
X1422911Y1769535D2*
X1425903Y1766543D1*
X1488735Y1769535D2*
X1479063Y1766543D1*
X1471556Y1763551D1*
X1465547Y1760559D1*
X1467713Y1757567D1*
X1470060Y1754575D1*
X1472071Y1751583D1*
X1473775Y1748591D1*
X1482751Y1769535D2*
X1485743Y1766543D1*
X1569519Y1769535D2*
X1566527Y1766543D1*
X1569519Y1769535D2*
X1572511Y1766543D1*
X1404959Y1754575D2*
X1410569Y1751583D1*
X1416927Y1748591D1*
X1404959Y1745599D1*
X1419919Y1754575D2*
X1421300Y1751583D1*
X1422159Y1748591D1*
X1422595Y1745599D1*
X1422795Y1742607D1*
X1422911Y1739615D1*
X1479759Y1754575D2*
Y1751583D1*
Y1748591D1*
X1485743Y1754575D2*
Y1751583D1*
X1494719Y1754575D2*
Y1751583D1*
X1518655Y1754575D2*
X1519678Y1751583D1*
X1520568Y1748591D1*
X1521138Y1745599D1*
X1521447Y1742607D1*
X1521647Y1739615D1*
X1527631Y1754575D2*
Y1751583D1*
Y1748591D1*
Y1745599D1*
Y1742607D1*
Y1739615D1*
X1557551Y1754575D2*
X1559943Y1751583D1*
X1561931Y1748591D1*
X1562512Y1745599D1*
X1561706Y1742607D1*
X1560543Y1739615D1*
X1389999Y1751583D2*
X1387594Y1748591D1*
X1385834Y1745599D1*
X1384763Y1742607D1*
X1384015Y1739615D1*
X1389999Y1751583D2*
X1392404Y1748591D1*
X1394164Y1745599D1*
X1395234Y1742607D1*
X1395983Y1739615D1*
X1437871Y1751583D2*
X1435466Y1748591D1*
X1433706Y1745599D1*
X1432635Y1742607D1*
X1431887Y1739615D1*
X1443855Y1751583D2*
Y1748591D1*
Y1745599D1*
Y1742607D1*
Y1739615D1*
X1449839Y1751583D2*
Y1748591D1*
Y1745599D1*
Y1742607D1*
X1458815Y1751583D2*
Y1748591D1*
Y1745599D1*
Y1742607D1*
X1497711Y1751583D2*
X1497246Y1748591D1*
X1496479Y1745599D1*
X1495581Y1742607D1*
X1494719Y1739615D1*
X1527631Y1751583D2*
X1517547Y1748591D1*
X1509739Y1745599D1*
X1504559Y1742607D1*
X1500703Y1739615D1*
X1530623Y1751583D2*
Y1748591D1*
Y1745599D1*
Y1742607D1*
Y1739615D1*
X1542591Y1751583D2*
Y1748591D1*
Y1745599D1*
Y1742607D1*
Y1739615D1*
X1551567Y1751583D2*
X1548575Y1748591D1*
X1554559Y1751583D2*
X1557551Y1748591D1*
X1464799D2*
Y1745599D1*
Y1742607D1*
Y1739615D1*
X1470783Y1748591D2*
Y1745599D1*
Y1742607D1*
Y1739615D1*
X1479759Y1745599D2*
Y1742607D1*
Y1739615D1*
X1485743Y1745599D2*
Y1742607D1*
Y1739615D1*
X1145528Y2182018D2*
D57*
X1105336Y2166676D1*
X1145528Y2151377D1*
X1132131Y2157125D2*
Y2176270D1*
X1113030Y2194370D2*
X1111084Y2198217D1*
X1105380Y2203965D1*
X1145528D1*
X1143784Y641782D2*
X1183976D1*
Y655179D1*
X1182031Y660927D1*
X1178228Y664774D1*
X1174381Y666675D1*
X1168677Y668577D1*
X1159083D1*
X1153335Y666676D1*
X1149532Y664774D1*
X1145685Y660927D1*
X1143784Y655179D1*
Y641782D1*
X1151478Y680928D2*
X1149532Y684775D1*
X1143828Y690523D1*
X1183976D1*
X954831Y633237D2*
X995023D1*
Y646635D1*
X993078Y652383D1*
X989275Y656229D1*
X985428Y658131D1*
X979725Y660032D1*
X970130D1*
X964382Y658131D1*
X960579Y656229D1*
X956733Y652383D1*
X954831Y646635D1*
Y633237D1*
X964426Y674329D2*
X962525D1*
X958678Y676230D1*
X956777Y678131D1*
X954875Y681978D1*
Y689627D1*
X956777Y693430D1*
X958678Y695331D1*
X962525Y697277D1*
X966327D1*
X970174Y695331D1*
X975878Y691529D1*
X995023Y672383D1*
Y699178D1*
X762682Y633182D2*
X802874D1*
Y646579D1*
X800928Y652328D1*
X797126Y656174D1*
X793279Y658076D1*
X787575Y659977D1*
X777980D1*
X772232Y658076D1*
X768430Y656174D1*
X764583Y652328D1*
X762682Y646580D1*
Y633182D1*
X762726Y676175D2*
Y697177D1*
X778024Y685726D1*
Y691474D1*
X779926Y695276D1*
X781827Y697177D1*
X787575Y699123D1*
X791378D1*
X797126Y697177D1*
X800972Y693375D1*
X802874Y687627D1*
Y681879D1*
X800972Y676175D1*
X799027Y674274D1*
X795224Y672328D1*
X573705Y632232D2*
X613897D1*
Y645629D1*
X611952Y651377D1*
X608149Y655224D1*
X604302Y657125D1*
X598599Y659026D1*
X589004D1*
X583256Y657125D1*
X579453Y655224D1*
X575607Y651377D1*
X573705Y645629D1*
Y632232D1*
X613897Y690523D2*
X573749D1*
X600500Y671378D1*
Y700073D1*
X520916Y824322D2*
X551514D1*
X557262Y822420D1*
X559163Y820475D1*
X561108Y816672D1*
Y812826D1*
X559163Y809023D1*
X557262Y807122D1*
X551513Y805176D1*
X547711D1*
X528610Y836673D2*
X526664Y840520D1*
X520961Y846268D1*
X561108D1*
X446764Y1902075D2*
Y1871478D1*
X444862Y1865729D1*
X442917Y1863828D1*
X439114Y1861883D1*
X435268D1*
X431465Y1863828D1*
X429564Y1865729D1*
X427618Y1871478D1*
Y1875280D1*
X461061Y1892480D2*
Y1894381D1*
X462962Y1898228D1*
X464863Y1900129D1*
X468710Y1902031D1*
X476359D1*
X480162Y1900129D1*
X482063Y1898228D1*
X484008Y1894381D1*
Y1890579D1*
X482063Y1886732D1*
X478260Y1881028D1*
X459115Y1861883D1*
X485910D1*
X937449Y584185D2*
Y553588D1*
X935547Y547840D1*
X933602Y545938D1*
X929799Y543993D1*
X925953D1*
X922150Y545938D1*
X920249Y547840D1*
X918303Y553588D1*
Y557390D1*
X953647Y584141D2*
X974649D1*
X963197Y568842D1*
X968945D1*
X972748Y566941D1*
X974649Y565040D1*
X976595Y559292D1*
Y555489D1*
X974649Y549741D1*
X970847Y545894D1*
X965099Y543993D1*
X959351D1*
X953647Y545894D1*
X951746Y547840D1*
X949800Y551642D1*
X1330096Y1974279D2*
Y1945584D1*
X1331997Y1939835D1*
X1335844Y1936033D1*
X1341592Y1934087D1*
X1345395D1*
X1351143Y1936033D1*
X1354989Y1939835D1*
X1356891Y1945584D1*
Y1974279D1*
X1369242Y1966586D2*
X1373089Y1968531D1*
X1378837Y1974235D1*
Y1934087D1*
M02*
