G04 DipTrace 3.0.0.2*
G04 BottomMask.gbr*
%MOIN*%
G04 #@! TF.FileFunction,Soldermask,Bot*
G04 #@! TF.Part,Single*
%ADD35C,0.159449*%
%ADD46R,0.033465X0.049213*%
%ADD50C,0.066929*%
%ADD52R,0.066929X0.066929*%
%ADD54R,0.066929X0.059055*%
%ADD56R,0.059055X0.066929*%
%ADD60R,0.067717X0.167717*%
%FSLAX26Y26*%
G04*
G70*
G90*
G75*
G01*
G04 BotMask*
%LPD*%
D60*
X856588Y2175596D3*
X1056982Y2177565D3*
D56*
X1351103Y599103D3*
X1276299D3*
D54*
X556168Y1610389D3*
Y1685192D3*
D35*
X1490764Y2051134D3*
D52*
X457349Y1193509D3*
D50*
Y1093509D3*
Y993509D3*
Y893509D3*
D52*
X456764Y1393496D3*
D50*
Y1493496D3*
Y1593496D3*
Y1693496D3*
Y1793496D3*
D46*
X1093496Y1236339D3*
X1168299D3*
X1130898Y1145788D3*
X1097701Y852331D3*
X1172504D3*
X1135103Y761780D3*
D54*
X1299213Y1220473D3*
Y1145670D3*
D56*
X1164701Y1010701D3*
X1089898D3*
D54*
X1299213Y885827D3*
Y811024D3*
D56*
X1164504Y641331D3*
X1089701D3*
D54*
X836701Y733701D3*
Y658898D3*
X966536Y734252D3*
Y659449D3*
X561024Y1470473D3*
Y1395670D3*
D52*
X1437126Y1675701D3*
D50*
X1537126D3*
X1437126Y1575701D3*
X1537126D3*
X1437126Y1475701D3*
X1537126D3*
X1437126Y1375701D3*
X1537126D3*
X1437126Y1275701D3*
X1537126D3*
X1437126Y1175701D3*
X1537126D3*
X1437126Y1075701D3*
X1537126D3*
X1437126Y975701D3*
X1537126D3*
X1437126Y875701D3*
X1537126D3*
X1437126Y775701D3*
X1537126D3*
X1437126Y675701D3*
X1537126D3*
X1437126Y575701D3*
X1537126D3*
X1437126Y475701D3*
X1537126D3*
M02*
