G04 DipTrace 3.0.0.2*
G04 BottomSilk.gbr*
%MOIN*%
G04 #@! TF.FileFunction,Legend,Bot*
G04 #@! TF.Part,Single*
%ADD10C,0.01*%
%ADD12C,0.002992*%
%ADD28C,0.015404*%
%ADD62C,0.006176*%
%ADD63C,0.00772*%
%FSLAX26Y26*%
G04*
G70*
G90*
G75*
G01*
G04 BotSilk*
%LPD*%
X823769Y2261170D2*
D10*
X891761D1*
Y2092171D1*
X823769D1*
Y2261170D1*
X1024769Y2263171D2*
X1091769D1*
Y2093163D1*
X1024769D1*
Y2263171D1*
X1392462Y573532D2*
Y624673D1*
X530597Y1569029D2*
X581739D1*
D28*
X1062647Y1251048D3*
X1071848Y1200906D2*
D10*
X1189953D1*
Y1181221D1*
X1071848D1*
Y1200906D1*
D28*
X1066852Y867040D3*
X1076053Y816898D2*
D10*
X1194158D1*
Y797213D1*
X1076053D1*
Y816898D1*
X698815Y1605145D2*
D12*
X710783D1*
X699277Y1602153D2*
X715156D1*
X700019Y1599161D2*
X718995D1*
X700794Y1596169D2*
X722317D1*
X701318Y1593177D2*
X725121D1*
X701607Y1590185D2*
X727462D1*
X701840Y1587193D2*
X729612D1*
X782591D2*
X788575D1*
X702285Y1584201D2*
X731711D1*
X776149D2*
X785583D1*
X703139Y1581209D2*
X733712D1*
X770288D2*
X803535D1*
X704411Y1578217D2*
X735804D1*
X764797D2*
X803535D1*
X706162Y1575225D2*
X738175D1*
X758941D2*
X785583D1*
X708528Y1572233D2*
X740703D1*
X752671D2*
X783849D1*
X711542Y1569241D2*
X781255D1*
X715118Y1566249D2*
X777697D1*
X718934Y1563257D2*
X773615D1*
X722751Y1560265D2*
X780163D1*
X716179Y1557273D2*
X761018D1*
X765189D2*
X767081D1*
X779049D2*
X785258D1*
X708964Y1554281D2*
X751144D1*
X766239D2*
X769023D1*
X783983D2*
X787140D1*
X615039Y1551289D2*
X632991D1*
X701058D2*
X743616D1*
X767631D2*
X770623D1*
X788575D2*
D3*
X627848Y1548297D2*
X718954D1*
X728147D2*
X740193D1*
X641967Y1545305D2*
X699145D1*
X726905D2*
X738888D1*
X634730Y1542313D2*
X678606D1*
X724915D2*
X738202D1*
X818495D2*
X827471D1*
X626606Y1539321D2*
X659229D1*
X722408D2*
X729197D1*
X734719D2*
X737900D1*
X811718D2*
X834248D1*
X618178Y1536329D2*
X642790D1*
X719627D2*
X726935D1*
X734719D2*
X737779D1*
X806116D2*
X839849D1*
X610403Y1533337D2*
X629377D1*
X716730D2*
X724613D1*
X734719D2*
X737746D1*
X801688D2*
X844278D1*
X604322Y1530345D2*
X618004D1*
X713883D2*
X721761D1*
X734707D2*
X737836D1*
X798028D2*
X806527D1*
X827471D2*
X847950D1*
X600200Y1527353D2*
X607490D1*
X711365D2*
X718306D1*
X734590D2*
X738200D1*
X794853D2*
X803535D1*
X830463D2*
X851240D1*
X597087Y1524361D2*
D3*
X709400D2*
X714556D1*
X734093D2*
X738801D1*
X792141D2*
X800554D1*
X833455D2*
X854399D1*
X860383D2*
X869359D1*
X707791Y1521369D2*
X710783D1*
X732889D2*
X739374D1*
X789941D2*
X797679D1*
X836447D2*
X875343D1*
X730975Y1518377D2*
X738722D1*
X788199D2*
X795174D1*
X839427D2*
X881315D1*
X728735Y1515385D2*
X737711D1*
X786938D2*
X793291D1*
X842302D2*
X887194D1*
X786204Y1512393D2*
X791900D1*
X844796D2*
X892797D1*
X785842Y1509401D2*
X790695D1*
X846573D2*
X898052D1*
X785684Y1506409D2*
X789717D1*
X847583D2*
X903152D1*
X785620Y1503417D2*
X789123D1*
X848072D2*
X908128D1*
X785596Y1500425D2*
X788919D1*
X848282D2*
X912725D1*
X785587Y1497433D2*
X789163D1*
X848366D2*
X916981D1*
X785584Y1494441D2*
X789823D1*
X848398D2*
X921126D1*
X785595Y1491449D2*
X790568D1*
X848397D2*
X925087D1*
X785700Y1488457D2*
X791082D1*
X848296D2*
X928783D1*
X786081Y1485465D2*
X791369D1*
X847916D2*
X932462D1*
X786797Y1482473D2*
X791600D1*
X847200D2*
X936308D1*
X787565Y1479481D2*
X792034D1*
X846433D2*
X940112D1*
X788086Y1476489D2*
X792770D1*
X845899D2*
X923215D1*
X932065D2*
X943542D1*
X788364Y1473497D2*
X793545D1*
X845517D2*
X917231D1*
X934557D2*
X946426D1*
X788491Y1470505D2*
X794057D1*
X845008D2*
X920773D1*
X936345D2*
X948749D1*
X788532Y1467513D2*
X794231D1*
X844239D2*
X924815D1*
X937423D2*
X950868D1*
X788447Y1464521D2*
X793976D1*
X843452D2*
X929199D1*
X938175D2*
X953510D1*
X788073Y1461529D2*
X793312D1*
X842911D2*
X957291D1*
X787359Y1458537D2*
X792566D1*
X842526D2*
X961993D1*
X734719Y1455545D2*
X758655D1*
X786592D2*
X792028D1*
X842005D2*
X966848D1*
X733349Y1452553D2*
X764639D1*
X786069D2*
X791525D1*
X841119D2*
X971498D1*
X732607Y1449561D2*
X770623D1*
X785776D2*
X790825D1*
X839822D2*
X975834D1*
X732355Y1446569D2*
X776607D1*
X785583D2*
X788462D1*
X837964D2*
X979938D1*
X733637Y1443577D2*
X785583D1*
X835242D2*
X984009D1*
X735822Y1440585D2*
X797551D1*
X831606D2*
X987927D1*
X739191Y1437593D2*
X809519D1*
X827471D2*
X991505D1*
X743911Y1434601D2*
X994810D1*
X749618Y1431609D2*
X998031D1*
X755663Y1428617D2*
X1001355D1*
X752671Y1425625D2*
X1004704D1*
X755663Y1422633D2*
X1007754D1*
X758643Y1419641D2*
X1010503D1*
X761530Y1416649D2*
X1013252D1*
X764141Y1413657D2*
X1016093D1*
X766416Y1410665D2*
X1019011D1*
X768641Y1407673D2*
X1021971D1*
X771111Y1404681D2*
X1024938D1*
X773826Y1401689D2*
X1027820D1*
X776691Y1398697D2*
X1030429D1*
X779630Y1395705D2*
X1032704D1*
X782602Y1392713D2*
X1034917D1*
X785587Y1389721D2*
X1037282D1*
X788576Y1386729D2*
X1039615D1*
X791567Y1383737D2*
X911247D1*
X917231D2*
X1041752D1*
X794559Y1380745D2*
X1043819D1*
X797551Y1377753D2*
X908255D1*
X914239D2*
X1045876D1*
X800543Y1374761D2*
X905263D1*
X911247D2*
X1047762D1*
X803535Y1371769D2*
X902271D1*
X908255D2*
X1049464D1*
X806527Y1368777D2*
X899279D1*
X905263D2*
X935183D1*
X941167D2*
X1051059D1*
X809530Y1365785D2*
X884319D1*
X899279D2*
X1052593D1*
X812628Y1362793D2*
X1054095D1*
X815989Y1359801D2*
X1055501D1*
X819581Y1356809D2*
X1056714D1*
X822842Y1353817D2*
X1057768D1*
X825514Y1350825D2*
X1058834D1*
X826408Y1347833D2*
X1059857D1*
X826824Y1344841D2*
X1060821D1*
X826036Y1341849D2*
X1061838D1*
X824832Y1338857D2*
X1062752D1*
X823226Y1335865D2*
X1063434D1*
X821370Y1332873D2*
X1064114D1*
X819565Y1329881D2*
X1064966D1*
X817881Y1326889D2*
X1065788D1*
X816203Y1323897D2*
X1066331D1*
X814385Y1320905D2*
X1066616D1*
X812432Y1317913D2*
X842317D1*
X848301D2*
X1066745D1*
X810490Y1314921D2*
X841933D1*
X850909D2*
X1066799D1*
X808425Y1311929D2*
X841216D1*
X853172D2*
X1066819D1*
X806120Y1308937D2*
X840449D1*
X855292D2*
X911247D1*
X917231D2*
X1066827D1*
X803809Y1305945D2*
X839927D1*
X857369D2*
X1066829D1*
X801681Y1302953D2*
X839650D1*
X859262D2*
X914239D1*
X920223D2*
X1066830D1*
X799617Y1299961D2*
X839523D1*
X860967D2*
X1066831D1*
X797561Y1296969D2*
X839470D1*
X862563D2*
X917231D1*
X923215D2*
X1066831D1*
X795676Y1293977D2*
X839450D1*
X864097D2*
X1066819D1*
X793973Y1290985D2*
X839431D1*
X865599D2*
X887311D1*
X893295D2*
X920223D1*
X926207D2*
X1066714D1*
X792378Y1287993D2*
X839323D1*
X866994D2*
X887311D1*
X893295D2*
X1066333D1*
X790844Y1285001D2*
X838929D1*
X868113D2*
X887311D1*
X893295D2*
X922627D1*
X928725D2*
X1065616D1*
X789342Y1282009D2*
X838084D1*
X868890D2*
X887322D1*
X893306D2*
X924377D1*
X930846D2*
X1064849D1*
X787936Y1279017D2*
X836713D1*
X869610D2*
X887428D1*
X893412D2*
X925379D1*
X932460D2*
X1064315D1*
X786724Y1276025D2*
X834549D1*
X870477D2*
X887809D1*
X893793D2*
X925853D1*
X933656D2*
X1063933D1*
X785670Y1273033D2*
X831152D1*
X871305D2*
X888526D1*
X894510D2*
X925946D1*
X933405D2*
X1063424D1*
X784615Y1270041D2*
X826205D1*
X871850D2*
X889301D1*
X895285D2*
X925532D1*
X932710D2*
X1062655D1*
X783709Y1267049D2*
X819762D1*
X872136D2*
X889868D1*
X895852D2*
X924360D1*
X931730D2*
X1061856D1*
X783240Y1264057D2*
X812606D1*
X872265D2*
X890303D1*
X896287D2*
X922458D1*
X929209D2*
X1061222D1*
X783145Y1261065D2*
X805469D1*
X872319D2*
X920223D1*
X926207D2*
X1060561D1*
X784220Y1258073D2*
X798455D1*
X872339D2*
X914239D1*
X920223D2*
X1059716D1*
X785583Y1255081D2*
X791567D1*
X872347D2*
X893295D1*
X899279D2*
X911247D1*
X917231D2*
X1058885D1*
X872349Y1252089D2*
X1058237D1*
X872350Y1249097D2*
X896287D1*
X905263D2*
D3*
X911247D2*
X1057571D1*
X872351Y1246105D2*
X1056713D1*
X872351Y1243113D2*
X1055788D1*
X872351Y1240121D2*
X1054864D1*
X872339Y1237129D2*
X1053851D1*
X872234Y1234137D2*
X1052840D1*
X871853Y1231145D2*
X1051800D1*
X871136Y1228153D2*
X1050463D1*
X870369Y1225161D2*
X1048879D1*
X1054863D2*
X1057855D1*
X869847Y1222169D2*
X1060847D1*
X869570Y1219177D2*
X1046361D1*
X1052345D2*
X1063839D1*
X869443Y1216185D2*
X1044216D1*
X1050200D2*
X1066831D1*
X869390Y1213193D2*
X1042391D1*
X1048375D2*
X1069823D1*
X869370Y1210201D2*
X1040745D1*
X1046729D2*
X1072815D1*
X869351Y1207209D2*
X1039180D1*
X1045175D2*
X1075807D1*
X869243Y1204217D2*
X1037565D1*
X1043654D2*
X1078799D1*
X868861Y1201225D2*
X1035775D1*
X1042141D2*
X1081791D1*
X868144Y1198233D2*
X1033833D1*
X1040546D2*
X1084771D1*
X867365Y1195241D2*
X1031907D1*
X1038763D2*
X1087658D1*
X866738Y1192249D2*
X1029937D1*
X1036824D2*
X1090269D1*
X770623Y1189257D2*
X785583D1*
X866079D2*
X1027911D1*
X1034888D2*
X1092544D1*
X759825Y1186265D2*
X786952D1*
X865224D2*
X1025962D1*
X1032820D2*
X1094757D1*
X748963Y1183273D2*
X787706D1*
X864299D2*
X1024001D1*
X1030458D2*
X1097110D1*
X597087Y1180281D2*
X609055D1*
X738972D2*
X787993D1*
X863364D2*
X1021951D1*
X1027935D2*
X1099327D1*
X597098Y1177289D2*
X638374D1*
X730166D2*
X787169D1*
X862258D2*
X1100954D1*
X597215Y1174297D2*
X666162D1*
X721923D2*
X785924D1*
X860968D2*
X1018959D1*
X1024943D2*
X1102032D1*
X597725Y1171305D2*
X692831D1*
X713775D2*
X784100D1*
X859571D2*
X1015967D1*
X1021951D2*
X1101785D1*
X598694Y1168313D2*
X781467D1*
X858125D2*
X1100146D1*
X601320Y1165321D2*
X778123D1*
X856740D2*
X1012975D1*
X1018959D2*
X1098121D1*
X604607Y1162329D2*
X774523D1*
X855524D2*
X1009983D1*
X1015967D2*
X1095864D1*
X608171Y1159337D2*
X771074D1*
X854367D2*
X1006991D1*
X1012975D2*
X1093228D1*
X611605Y1156345D2*
X767828D1*
X852920D2*
X1090092D1*
X614845Y1153353D2*
X764718D1*
X851182D2*
X1086502D1*
X617952Y1150361D2*
X761677D1*
X849439D2*
X1082892D1*
X621005Y1147369D2*
X758665D1*
X847783D2*
X1079764D1*
X624121Y1144377D2*
X755666D1*
X846117D2*
X1077101D1*
X627501Y1141385D2*
X752672D1*
X844303D2*
X1074276D1*
X631212Y1138393D2*
X749691D1*
X842351D2*
X1070761D1*
X634984Y1135401D2*
X746804D1*
X840409D2*
X1066936D1*
X638603Y1132409D2*
X744195D1*
X838345D2*
X1063562D1*
X642254Y1129417D2*
X741945D1*
X836040D2*
X1060653D1*
X646090Y1126425D2*
X739843D1*
X833729D2*
X1057371D1*
X649913Y1123433D2*
X737711D1*
X831589D2*
X1053101D1*
X653552Y1120441D2*
X739217D1*
X829420D2*
X1048398D1*
X657210Y1117449D2*
X740565D1*
X826971D2*
X1044249D1*
X661037Y1114457D2*
X742110D1*
X824264D2*
X1040932D1*
X664744Y1111465D2*
X743904D1*
X821401D2*
X1038227D1*
X667885Y1108473D2*
X745769D1*
X818451D2*
X1035496D1*
X670329Y1105481D2*
X747825D1*
X815374D2*
X1032339D1*
X672197Y1102489D2*
X750327D1*
X811997D2*
X1028997D1*
X673727Y1099497D2*
X753395D1*
X808186D2*
X1025452D1*
X675227Y1096505D2*
X756955D1*
X804046D2*
X1021127D1*
X681131Y1093513D2*
X760541D1*
X799828D2*
X1015714D1*
X691244Y1090521D2*
X763536D1*
X795905D2*
X1008656D1*
X703968Y1087529D2*
X765925D1*
X792724D2*
X929313D1*
X935733D2*
X998672D1*
X716597Y1084537D2*
X766885D1*
X790408D2*
X923689D1*
X945759D2*
X985604D1*
X728735Y1081545D2*
X767631D1*
X788575D2*
X918195D1*
X956127D2*
X971087D1*
X798953Y1078553D2*
X912061D1*
X809519Y1075561D2*
X904598D1*
X719759Y1072569D2*
X734719D1*
X767631D2*
X785583D1*
X884319D2*
X896287D1*
X719759Y1069577D2*
X809519D1*
X818495D2*
X836447D1*
X734719Y1066585D2*
X836447D1*
X896287D2*
X902271D1*
X701807Y1063593D2*
X707791D1*
X785583D2*
X821487D1*
X845423D2*
X917231D1*
X1054863D2*
X1084783D1*
X1114703D2*
X1144623D1*
X706056Y1060601D2*
X716767D1*
X845423D2*
X932191D1*
X956127D2*
X983055D1*
X1039903D2*
X1149391D1*
X711208Y1057609D2*
X779599D1*
X896287D2*
X995949D1*
X1045887D2*
X1048879D1*
X1072815D2*
X1153599D1*
X716767Y1054617D2*
X806527D1*
X827471D2*
X869359D1*
X908255D2*
X1005475D1*
X754013Y1051625D2*
X875135D1*
X1006991D2*
X1012975D1*
X774799Y1048633D2*
X879977D1*
X794559Y1045641D2*
X821487D1*
X872351D2*
X884319D1*
X854399Y1036665D2*
X860383D1*
X857204Y1033673D2*
X869359D1*
X923215D2*
X935183D1*
X860383Y1030681D2*
X956127D1*
X698815Y1605145D2*
X699277Y1602153D1*
X700019Y1599161D1*
X700794Y1596169D1*
X701318Y1593177D1*
X701607Y1590185D1*
X701840Y1587193D1*
X702285Y1584201D1*
X703139Y1581209D1*
X704411Y1578217D1*
X706162Y1575225D1*
X708528Y1572233D1*
X711542Y1569241D1*
X715118Y1566249D1*
X718934Y1563257D1*
X722751Y1560265D1*
X716179Y1557273D1*
X708964Y1554281D1*
X701058Y1551289D1*
X692831Y1548297D1*
X710783Y1605145D2*
X715156Y1602153D1*
X718995Y1599161D1*
X722317Y1596169D1*
X725121Y1593177D1*
X727462Y1590185D1*
X729612Y1587193D1*
X731711Y1584201D1*
X733712Y1581209D1*
X735804Y1578217D1*
X738175Y1575225D1*
X740703Y1572233D1*
X782591Y1587193D2*
X776149Y1584201D1*
X770288Y1581209D1*
X764797Y1578217D1*
X758941Y1575225D1*
X752671Y1572233D1*
X788575Y1587193D2*
X785583Y1584201D1*
X803535Y1581209D1*
Y1578217D1*
Y1575225D1*
X785583D1*
X783849Y1572233D1*
X781255Y1569241D1*
X777697Y1566249D1*
X773615Y1563257D1*
X780163Y1560265D1*
X785258Y1557273D1*
X787140Y1554281D1*
X788575Y1551289D1*
X773615Y1560265D2*
X761018Y1557273D1*
X751144Y1554281D1*
X743616Y1551289D1*
X740193Y1548297D1*
X738888Y1545305D1*
X738202Y1542313D1*
X737900Y1539321D1*
X737779Y1536329D1*
X737746Y1533337D1*
X737836Y1530345D1*
X738200Y1527353D1*
X738801Y1524361D1*
X739374Y1521369D1*
X738722Y1518377D1*
X737711Y1515385D1*
X764639Y1560265D2*
X765189Y1557273D1*
X766239Y1554281D1*
X767631Y1551289D1*
X764639Y1560265D2*
X767081Y1557273D1*
X769023Y1554281D1*
X770623Y1551289D1*
X773615Y1560265D2*
X779049Y1557273D1*
X783983Y1554281D1*
X788575Y1551289D1*
X615039D2*
X627848Y1548297D1*
X641967Y1545305D1*
X634730Y1542313D1*
X626606Y1539321D1*
X618178Y1536329D1*
X610403Y1533337D1*
X604322Y1530345D1*
X600200Y1527353D1*
X597087Y1524361D1*
X632991Y1551289D2*
Y1548297D1*
X737711Y1551289D2*
X718954Y1548297D1*
X699145Y1545305D1*
X678606Y1542313D1*
X659229Y1539321D1*
X642790Y1536329D1*
X629377Y1533337D1*
X618004Y1530345D1*
X607490Y1527353D1*
X597087Y1524361D1*
X728735Y1551289D2*
X728147Y1548297D1*
X726905Y1545305D1*
X724915Y1542313D1*
X722408Y1539321D1*
X719627Y1536329D1*
X716730Y1533337D1*
X713883Y1530345D1*
X711365Y1527353D1*
X709400Y1524361D1*
X707791Y1521369D1*
X818495Y1542313D2*
X811718Y1539321D1*
X806116Y1536329D1*
X801688Y1533337D1*
X798028Y1530345D1*
X794853Y1527353D1*
X792141Y1524361D1*
X789941Y1521369D1*
X788199Y1518377D1*
X786938Y1515385D1*
X786204Y1512393D1*
X785842Y1509401D1*
X785684Y1506409D1*
X785620Y1503417D1*
X785596Y1500425D1*
X785587Y1497433D1*
X785584Y1494441D1*
X785595Y1491449D1*
X785700Y1488457D1*
X786081Y1485465D1*
X786797Y1482473D1*
X787565Y1479481D1*
X788086Y1476489D1*
X788364Y1473497D1*
X788491Y1470505D1*
X788532Y1467513D1*
X788447Y1464521D1*
X788073Y1461529D1*
X787359Y1458537D1*
X786592Y1455545D1*
X786069Y1452553D1*
X785776Y1449561D1*
X785583Y1446569D1*
X827471Y1542313D2*
X834248Y1539321D1*
X839849Y1536329D1*
X844278Y1533337D1*
X847950Y1530345D1*
X851240Y1527353D1*
X854399Y1524361D1*
X731727Y1542313D2*
X729197Y1539321D1*
X726935Y1536329D1*
X724613Y1533337D1*
X721761Y1530345D1*
X718306Y1527353D1*
X714556Y1524361D1*
X710783Y1521369D1*
X734719Y1542313D2*
Y1539321D1*
Y1536329D1*
Y1533337D1*
X734707Y1530345D1*
X734590Y1527353D1*
X734093Y1524361D1*
X732889Y1521369D1*
X730975Y1518377D1*
X728735Y1515385D1*
X809519Y1533337D2*
X806527Y1530345D1*
X803535Y1527353D1*
X800554Y1524361D1*
X797679Y1521369D1*
X795174Y1518377D1*
X793291Y1515385D1*
X791900Y1512393D1*
X790695Y1509401D1*
X789717Y1506409D1*
X789123Y1503417D1*
X788919Y1500425D1*
X789163Y1497433D1*
X789823Y1494441D1*
X790568Y1491449D1*
X791082Y1488457D1*
X791369Y1485465D1*
X791600Y1482473D1*
X792034Y1479481D1*
X792770Y1476489D1*
X793545Y1473497D1*
X794057Y1470505D1*
X794231Y1467513D1*
X793976Y1464521D1*
X793312Y1461529D1*
X792566Y1458537D1*
X792028Y1455545D1*
X791525Y1452553D1*
X790825Y1449561D1*
X788462Y1446569D1*
X785583Y1443577D1*
X797551Y1440585D1*
X809519Y1437593D1*
X824479Y1533337D2*
X827471Y1530345D1*
X830463Y1527353D1*
X833455Y1524361D1*
X836447Y1521369D1*
X839427Y1518377D1*
X842302Y1515385D1*
X844796Y1512393D1*
X846573Y1509401D1*
X847583Y1506409D1*
X848072Y1503417D1*
X848282Y1500425D1*
X848366Y1497433D1*
X848398Y1494441D1*
X848397Y1491449D1*
X848296Y1488457D1*
X847916Y1485465D1*
X847200Y1482473D1*
X846433Y1479481D1*
X845899Y1476489D1*
X845517Y1473497D1*
X845008Y1470505D1*
X844239Y1467513D1*
X843452Y1464521D1*
X842911Y1461529D1*
X842526Y1458537D1*
X842005Y1455545D1*
X841119Y1452553D1*
X839822Y1449561D1*
X837964Y1446569D1*
X835242Y1443577D1*
X831606Y1440585D1*
X827471Y1437593D1*
X860383Y1524361D2*
X869359D2*
X875343Y1521369D1*
X881315Y1518377D1*
X887194Y1515385D1*
X892797Y1512393D1*
X898052Y1509401D1*
X903152Y1506409D1*
X908128Y1503417D1*
X912725Y1500425D1*
X916981Y1497433D1*
X921126Y1494441D1*
X925087Y1491449D1*
X928783Y1488457D1*
X932462Y1485465D1*
X936308Y1482473D1*
X940112Y1479481D1*
X943542Y1476489D1*
X946426Y1473497D1*
X948749Y1470505D1*
X950868Y1467513D1*
X953510Y1464521D1*
X957291Y1461529D1*
X961993Y1458537D1*
X966848Y1455545D1*
X971498Y1452553D1*
X975834Y1449561D1*
X979938Y1446569D1*
X984009Y1443577D1*
X987927Y1440585D1*
X991505Y1437593D1*
X994810Y1434601D1*
X998031Y1431609D1*
X1001355Y1428617D1*
X1004704Y1425625D1*
X1007754Y1422633D1*
X1010503Y1419641D1*
X1013252Y1416649D1*
X1016093Y1413657D1*
X1019011Y1410665D1*
X1021971Y1407673D1*
X1024938Y1404681D1*
X1027820Y1401689D1*
X1030429Y1398697D1*
X1032704Y1395705D1*
X1034917Y1392713D1*
X1037282Y1389721D1*
X1039615Y1386729D1*
X1041752Y1383737D1*
X1043819Y1380745D1*
X1045876Y1377753D1*
X1047762Y1374761D1*
X1049464Y1371769D1*
X1051059Y1368777D1*
X1052593Y1365785D1*
X1054095Y1362793D1*
X1055501Y1359801D1*
X1056714Y1356809D1*
X1057768Y1353817D1*
X1058834Y1350825D1*
X1059857Y1347833D1*
X1060821Y1344841D1*
X1061838Y1341849D1*
X1062752Y1338857D1*
X1063434Y1335865D1*
X1064114Y1332873D1*
X1064966Y1329881D1*
X1065788Y1326889D1*
X1066331Y1323897D1*
X1066616Y1320905D1*
X1066745Y1317913D1*
X1066799Y1314921D1*
X1066819Y1311929D1*
X1066827Y1308937D1*
X1066829Y1305945D1*
X1066830Y1302953D1*
X1066831Y1299961D1*
Y1296969D1*
X1066819Y1293977D1*
X1066714Y1290985D1*
X1066333Y1287993D1*
X1065616Y1285001D1*
X1064849Y1282009D1*
X1064315Y1279017D1*
X1063933Y1276025D1*
X1063424Y1273033D1*
X1062655Y1270041D1*
X1061856Y1267049D1*
X1061222Y1264057D1*
X1060561Y1261065D1*
X1059716Y1258073D1*
X1058885Y1255081D1*
X1058237Y1252089D1*
X1057571Y1249097D1*
X1056713Y1246105D1*
X1055788Y1243113D1*
X1054864Y1240121D1*
X1053851Y1237129D1*
X1052840Y1234137D1*
X1051800Y1231145D1*
X1050463Y1228153D1*
X1048879Y1225161D1*
X929199Y1479481D2*
X923215Y1476489D1*
X917231Y1473497D1*
X920773Y1470505D1*
X924815Y1467513D1*
X929199Y1464521D1*
Y1479481D2*
X932065Y1476489D1*
X934557Y1473497D1*
X936345Y1470505D1*
X937423Y1467513D1*
X938175Y1464521D1*
X734719Y1455545D2*
X733349Y1452553D1*
X732607Y1449561D1*
X732355Y1446569D1*
X733637Y1443577D1*
X735822Y1440585D1*
X739191Y1437593D1*
X743911Y1434601D1*
X749618Y1431609D1*
X755663Y1428617D1*
X752671Y1425625D1*
X755663Y1422633D1*
X758643Y1419641D1*
X761530Y1416649D1*
X764141Y1413657D1*
X766416Y1410665D1*
X768641Y1407673D1*
X771111Y1404681D1*
X773826Y1401689D1*
X776691Y1398697D1*
X779630Y1395705D1*
X782602Y1392713D1*
X785587Y1389721D1*
X788576Y1386729D1*
X791567Y1383737D1*
X794559Y1380745D1*
X797551Y1377753D1*
X800543Y1374761D1*
X803535Y1371769D1*
X806527Y1368777D1*
X809530Y1365785D1*
X812628Y1362793D1*
X815989Y1359801D1*
X819581Y1356809D1*
X822842Y1353817D1*
X825514Y1350825D1*
X826408Y1347833D1*
X826824Y1344841D1*
X826036Y1341849D1*
X824832Y1338857D1*
X823226Y1335865D1*
X821370Y1332873D1*
X819565Y1329881D1*
X817881Y1326889D1*
X816203Y1323897D1*
X814385Y1320905D1*
X812432Y1317913D1*
X810490Y1314921D1*
X808425Y1311929D1*
X806120Y1308937D1*
X803809Y1305945D1*
X801681Y1302953D1*
X799617Y1299961D1*
X797561Y1296969D1*
X795676Y1293977D1*
X793973Y1290985D1*
X792378Y1287993D1*
X790844Y1285001D1*
X789342Y1282009D1*
X787936Y1279017D1*
X786724Y1276025D1*
X785670Y1273033D1*
X784615Y1270041D1*
X783709Y1267049D1*
X783240Y1264057D1*
X783145Y1261065D1*
X784220Y1258073D1*
X785583Y1255081D1*
X758655Y1455545D2*
X764639Y1452553D1*
X770623Y1449561D1*
X776607Y1446569D1*
X914239Y1386729D2*
X911247Y1383737D1*
X914239Y1386729D2*
X917231Y1383737D1*
X911247Y1380745D2*
X908255Y1377753D1*
X905263Y1374761D1*
X902271Y1371769D1*
X899279Y1368777D1*
X917231Y1380745D2*
X914239Y1377753D1*
X911247Y1374761D1*
X908255Y1371769D1*
X905263Y1368777D1*
X938175Y1371769D2*
X935183Y1368777D1*
X938175Y1371769D2*
X941167Y1368777D1*
X887311D2*
X884319Y1365785D1*
X899279D2*
X842431Y1320905D2*
X842317Y1317913D1*
X841933Y1314921D1*
X841216Y1311929D1*
X840449Y1308937D1*
X839927Y1305945D1*
X839650Y1302953D1*
X839523Y1299961D1*
X839470Y1296969D1*
X839450Y1293977D1*
X839431Y1290985D1*
X839323Y1287993D1*
X838929Y1285001D1*
X838084Y1282009D1*
X836713Y1279017D1*
X834549Y1276025D1*
X831152Y1273033D1*
X826205Y1270041D1*
X819762Y1267049D1*
X812606Y1264057D1*
X805469Y1261065D1*
X798455Y1258073D1*
X791567Y1255081D1*
X845423Y1320905D2*
X848301Y1317913D1*
X850909Y1314921D1*
X853172Y1311929D1*
X855292Y1308937D1*
X857369Y1305945D1*
X859262Y1302953D1*
X860967Y1299961D1*
X862563Y1296969D1*
X864097Y1293977D1*
X865599Y1290985D1*
X866994Y1287993D1*
X868113Y1285001D1*
X868890Y1282009D1*
X869610Y1279017D1*
X870477Y1276025D1*
X871305Y1273033D1*
X871850Y1270041D1*
X872136Y1267049D1*
X872265Y1264057D1*
X872319Y1261065D1*
X872339Y1258073D1*
X872347Y1255081D1*
X872349Y1252089D1*
X872350Y1249097D1*
X872351Y1246105D1*
Y1243113D1*
Y1240121D1*
X872339Y1237129D1*
X872234Y1234137D1*
X871853Y1231145D1*
X871136Y1228153D1*
X870369Y1225161D1*
X869847Y1222169D1*
X869570Y1219177D1*
X869443Y1216185D1*
X869390Y1213193D1*
X869370Y1210201D1*
X869351Y1207209D1*
X869243Y1204217D1*
X868861Y1201225D1*
X868144Y1198233D1*
X867365Y1195241D1*
X866738Y1192249D1*
X866079Y1189257D1*
X865224Y1186265D1*
X864299Y1183273D1*
X863364Y1180281D1*
X862258Y1177289D1*
X860968Y1174297D1*
X859571Y1171305D1*
X858125Y1168313D1*
X856740Y1165321D1*
X855524Y1162329D1*
X854367Y1159337D1*
X852920Y1156345D1*
X851182Y1153353D1*
X849439Y1150361D1*
X847783Y1147369D1*
X846117Y1144377D1*
X844303Y1141385D1*
X842351Y1138393D1*
X840409Y1135401D1*
X838345Y1132409D1*
X836040Y1129417D1*
X833729Y1126425D1*
X831589Y1123433D1*
X829420Y1120441D1*
X826971Y1117449D1*
X824264Y1114457D1*
X821401Y1111465D1*
X818451Y1108473D1*
X815374Y1105481D1*
X811997Y1102489D1*
X808186Y1099497D1*
X804046Y1096505D1*
X799828Y1093513D1*
X795905Y1090521D1*
X792724Y1087529D1*
X790408Y1084537D1*
X788575Y1081545D1*
X798953Y1078553D1*
X809519Y1075561D1*
X914239Y1311929D2*
X911247Y1308937D1*
X914239Y1311929D2*
X917231Y1308937D1*
Y1305945D2*
X914239Y1302953D1*
X917231Y1305945D2*
X920223Y1302953D1*
Y1299961D2*
X917231Y1296969D1*
X920223Y1299961D2*
X923215Y1296969D1*
X887311Y1293977D2*
Y1290985D1*
Y1287993D1*
Y1285001D1*
X887322Y1282009D1*
X887428Y1279017D1*
X887809Y1276025D1*
X888526Y1273033D1*
X889301Y1270041D1*
X889868Y1267049D1*
X890303Y1264057D1*
X893295Y1293977D2*
Y1290985D1*
Y1287993D1*
Y1285001D1*
X893306Y1282009D1*
X893412Y1279017D1*
X893793Y1276025D1*
X894510Y1273033D1*
X895285Y1270041D1*
X895852Y1267049D1*
X896287Y1264057D1*
X923215Y1293977D2*
X920223Y1290985D1*
X923215Y1293977D2*
X926207Y1290985D1*
X920223Y1287993D2*
X922627Y1285001D1*
X924377Y1282009D1*
X925379Y1279017D1*
X925853Y1276025D1*
X925946Y1273033D1*
X925532Y1270041D1*
X924360Y1267049D1*
X922458Y1264057D1*
X920223Y1261065D1*
X926207Y1287993D2*
X928725Y1285001D1*
X930846Y1282009D1*
X932460Y1279017D1*
X933656Y1276025D1*
X933405Y1273033D1*
X932710Y1270041D1*
X931730Y1267049D1*
X929209Y1264057D1*
X926207Y1261065D1*
X917231D2*
X914239Y1258073D1*
X911247Y1255081D1*
X920223Y1258073D2*
X917231Y1255081D1*
X896287Y1258073D2*
X893295Y1255081D1*
X896287Y1258073D2*
X899279Y1255081D1*
Y1252089D2*
X896287Y1249097D1*
X902271Y1252089D2*
X905263Y1249097D1*
X908255Y1252089D2*
X911247Y1249097D1*
X1054863Y1225161D2*
X1057855D2*
X1060847Y1222169D1*
X1063839Y1219177D1*
X1066831Y1216185D1*
X1069823Y1213193D1*
X1072815Y1210201D1*
X1075807Y1207209D1*
X1078799Y1204217D1*
X1081791Y1201225D1*
X1084771Y1198233D1*
X1087658Y1195241D1*
X1090269Y1192249D1*
X1092544Y1189257D1*
X1094757Y1186265D1*
X1097110Y1183273D1*
X1099327Y1180281D1*
X1100954Y1177289D1*
X1102032Y1174297D1*
X1101785Y1171305D1*
X1100146Y1168313D1*
X1098121Y1165321D1*
X1095864Y1162329D1*
X1093228Y1159337D1*
X1090092Y1156345D1*
X1086502Y1153353D1*
X1082892Y1150361D1*
X1079764Y1147369D1*
X1077101Y1144377D1*
X1074276Y1141385D1*
X1070761Y1138393D1*
X1066936Y1135401D1*
X1063562Y1132409D1*
X1060653Y1129417D1*
X1057371Y1126425D1*
X1053101Y1123433D1*
X1048398Y1120441D1*
X1044249Y1117449D1*
X1040932Y1114457D1*
X1038227Y1111465D1*
X1035496Y1108473D1*
X1032339Y1105481D1*
X1028997Y1102489D1*
X1025452Y1099497D1*
X1021127Y1096505D1*
X1015714Y1093513D1*
X1008656Y1090521D1*
X998672Y1087529D1*
X985604Y1084537D1*
X971087Y1081545D1*
X1048879Y1222169D2*
X1046361Y1219177D1*
X1044216Y1216185D1*
X1042391Y1213193D1*
X1040745Y1210201D1*
X1039180Y1207209D1*
X1037565Y1204217D1*
X1035775Y1201225D1*
X1033833Y1198233D1*
X1031907Y1195241D1*
X1029937Y1192249D1*
X1027911Y1189257D1*
X1025962Y1186265D1*
X1024001Y1183273D1*
X1021951Y1180281D1*
X1054863Y1222169D2*
X1052345Y1219177D1*
X1050200Y1216185D1*
X1048375Y1213193D1*
X1046729Y1210201D1*
X1045175Y1207209D1*
X1043654Y1204217D1*
X1042141Y1201225D1*
X1040546Y1198233D1*
X1038763Y1195241D1*
X1036824Y1192249D1*
X1034888Y1189257D1*
X1032820Y1186265D1*
X1030458Y1183273D1*
X1027935Y1180281D1*
X770623Y1189257D2*
X759825Y1186265D1*
X748963Y1183273D1*
X738972Y1180281D1*
X730166Y1177289D1*
X721923Y1174297D1*
X713775Y1171305D1*
X785583Y1189257D2*
X786952Y1186265D1*
X787706Y1183273D1*
X787993Y1180281D1*
X787169Y1177289D1*
X785924Y1174297D1*
X784100Y1171305D1*
X781467Y1168313D1*
X778123Y1165321D1*
X774523Y1162329D1*
X771074Y1159337D1*
X767828Y1156345D1*
X764718Y1153353D1*
X761677Y1150361D1*
X758665Y1147369D1*
X755666Y1144377D1*
X752672Y1141385D1*
X749691Y1138393D1*
X746804Y1135401D1*
X744195Y1132409D1*
X741945Y1129417D1*
X739843Y1126425D1*
X737711Y1123433D1*
X739217Y1120441D1*
X740565Y1117449D1*
X742110Y1114457D1*
X743904Y1111465D1*
X745769Y1108473D1*
X747825Y1105481D1*
X750327Y1102489D1*
X753395Y1099497D1*
X756955Y1096505D1*
X760541Y1093513D1*
X763536Y1090521D1*
X765925Y1087529D1*
X766885Y1084537D1*
X767631Y1081545D1*
X597087Y1180281D2*
X597098Y1177289D1*
X597215Y1174297D1*
X597725Y1171305D1*
X598694Y1168313D1*
X601320Y1165321D1*
X604607Y1162329D1*
X608171Y1159337D1*
X611605Y1156345D1*
X614845Y1153353D1*
X617952Y1150361D1*
X621005Y1147369D1*
X624121Y1144377D1*
X627501Y1141385D1*
X631212Y1138393D1*
X634984Y1135401D1*
X638603Y1132409D1*
X642254Y1129417D1*
X646090Y1126425D1*
X649913Y1123433D1*
X653552Y1120441D1*
X657210Y1117449D1*
X661037Y1114457D1*
X664744Y1111465D1*
X667885Y1108473D1*
X670329Y1105481D1*
X672197Y1102489D1*
X673727Y1099497D1*
X675227Y1096505D1*
X681131Y1093513D1*
X691244Y1090521D1*
X703968Y1087529D1*
X716597Y1084537D1*
X728735Y1081545D1*
X609055Y1180281D2*
X638374Y1177289D1*
X666162Y1174297D1*
X692831Y1171305D1*
X1021951Y1177289D2*
X1018959Y1174297D1*
X1015967Y1171305D1*
X1027935Y1177289D2*
X1024943Y1174297D1*
X1021951Y1171305D1*
X1015967Y1168313D2*
X1012975Y1165321D1*
X1009983Y1162329D1*
X1006991Y1159337D1*
X1021951Y1168313D2*
X1018959Y1165321D1*
X1015967Y1162329D1*
X1012975Y1159337D1*
X935183Y1090521D2*
X929313Y1087529D1*
X923689Y1084537D1*
X918195Y1081545D1*
X912061Y1078553D1*
X904598Y1075561D1*
X896287Y1072569D1*
X926207Y1090521D2*
X935733Y1087529D1*
X945759Y1084537D1*
X956127Y1081545D1*
X719759Y1072569D2*
Y1069577D1*
X734719Y1066585D1*
Y1072569D2*
X767631D2*
X785583D2*
X809519Y1069577D1*
X881327Y1075561D2*
X884319Y1072569D1*
X818495Y1069577D2*
X836447D2*
Y1066585D1*
X821487Y1063593D1*
X896287Y1066585D2*
Y1063593D1*
X902271Y1066585D2*
X917231Y1063593D1*
X932191Y1060601D1*
X701807Y1063593D2*
X706056Y1060601D1*
X711208Y1057609D1*
X716767Y1054617D1*
X707791Y1063593D2*
X716767Y1060601D1*
X725743Y1057609D1*
X782591Y1066585D2*
X785583Y1063593D1*
X845423D2*
Y1060601D1*
X1054863Y1063593D2*
X1039903Y1060601D1*
X1045887Y1057609D1*
X1084783Y1063593D2*
X1114703D2*
X1144623D2*
X1149391Y1060601D1*
X1153599Y1057609D1*
X956127Y1060601D2*
X983055D2*
X995949Y1057609D1*
X1005475Y1054617D1*
X1012975Y1051625D1*
X779599Y1057609D2*
X806527Y1054617D1*
X884319Y1060601D2*
X896287Y1057609D1*
X908255Y1054617D1*
X1051871Y1060601D2*
X1048879Y1057609D1*
X1069823Y1060601D2*
X1072815Y1057609D1*
X827471Y1054617D2*
X869359D2*
X875135Y1051625D1*
X879977Y1048633D1*
X884319Y1045641D1*
X731727Y1054617D2*
X754013Y1051625D1*
X774799Y1048633D1*
X794559Y1045641D1*
X1003999Y1054617D2*
X1006991Y1051625D1*
X824479Y1048633D2*
X821487Y1045641D1*
X869359Y1048633D2*
X872351Y1045641D1*
X854399Y1036665D2*
X857204Y1033673D1*
X860383Y1030681D1*
Y1036665D2*
X869359Y1033673D1*
X878335Y1030681D1*
X923215Y1033673D2*
Y1030681D1*
X935183Y1033673D2*
X956127Y1030681D1*
X1318211Y677658D2*
D62*
X1320112Y681461D1*
X1323959Y685307D1*
X1327761Y687209D1*
X1335411D1*
X1339257Y685307D1*
X1343060Y681461D1*
X1345005Y677658D1*
X1346907Y671910D1*
Y662315D1*
X1345005Y656611D1*
X1343060Y652765D1*
X1339257Y648962D1*
X1335411Y647017D1*
X1327761D1*
X1323959Y648962D1*
X1320112Y652765D1*
X1318211Y656611D1*
X1305859Y679515D2*
X1302012Y681461D1*
X1296264Y687164D1*
Y647017D1*
X561393Y1759810D2*
X563295Y1763613D1*
X567141Y1767460D1*
X570944Y1769361D1*
X578593D1*
X582440Y1767460D1*
X586242Y1763613D1*
X588188Y1759810D1*
X590089Y1754062D1*
Y1744467D1*
X588188Y1738764D1*
X586242Y1734917D1*
X582440Y1731114D1*
X578593Y1729169D1*
X570944D1*
X567141Y1731114D1*
X563295Y1734917D1*
X561393Y1738764D1*
X547096Y1759766D2*
Y1761667D1*
X545195Y1765514D1*
X543294Y1767415D1*
X539447Y1769317D1*
X531798D1*
X527995Y1767415D1*
X526094Y1765514D1*
X524148Y1761667D1*
Y1757865D1*
X526094Y1754018D1*
X529896Y1748314D1*
X549042Y1729169D1*
X522247D1*
X1137247Y1317337D2*
X1141049Y1315480D1*
X1144896Y1311633D1*
X1146797Y1307787D1*
X1148743Y1302039D1*
Y1292488D1*
X1146797Y1286740D1*
X1144896Y1282937D1*
X1141049Y1279091D1*
X1137247Y1277189D1*
X1129597D1*
X1125751Y1279091D1*
X1121948Y1282937D1*
X1120047Y1286740D1*
X1118101Y1292488D1*
Y1302039D1*
X1120047Y1307787D1*
X1121948Y1311633D1*
X1125751Y1315480D1*
X1129597Y1317337D1*
X1137247D1*
X1131499Y1284839D2*
X1120047Y1273343D1*
X1105750Y1309644D2*
X1101903Y1311589D1*
X1096155Y1317293D1*
Y1277145D1*
X1150051Y933329D2*
X1153854Y931472D1*
X1157701Y927626D1*
X1159602Y923779D1*
X1161548Y918031D1*
Y908480D1*
X1159602Y902732D1*
X1157701Y898930D1*
X1153854Y895083D1*
X1150051Y893182D1*
X1142402D1*
X1138555Y895083D1*
X1134753Y898930D1*
X1132852Y902732D1*
X1130906Y908480D1*
Y918031D1*
X1132852Y923779D1*
X1134753Y927626D1*
X1138555Y931472D1*
X1142402Y933329D1*
X1150051D1*
X1144303Y900831D2*
X1132852Y889335D1*
X1116609Y923735D2*
Y925636D1*
X1114708Y929483D1*
X1112807Y931384D1*
X1108960Y933285D1*
X1101311D1*
X1097508Y931384D1*
X1095607Y929483D1*
X1093661Y925636D1*
Y921833D1*
X1095607Y917987D1*
X1099409Y912283D1*
X1118555Y893137D1*
X1091760D1*
X1230252Y1207442D2*
Y1190242D1*
X1228307Y1184494D1*
X1226405Y1182548D1*
X1222603Y1180647D1*
X1218756D1*
X1214954Y1182548D1*
X1213008Y1184494D1*
X1211107Y1190242D1*
Y1207442D1*
X1251299D1*
X1230252Y1194044D2*
X1251299Y1180647D1*
X1218800Y1168296D2*
X1216855Y1164449D1*
X1211151Y1158701D1*
X1251299D1*
X1160270Y1079662D2*
X1143070D1*
X1137322Y1081607D1*
X1135376Y1083508D1*
X1133475Y1087311D1*
Y1091158D1*
X1135376Y1094960D1*
X1137322Y1096906D1*
X1143070Y1098807D1*
X1160270D1*
Y1058615D1*
X1146872Y1079662D2*
X1133475Y1058615D1*
X1119178Y1089212D2*
Y1091114D1*
X1117277Y1094960D1*
X1115376Y1096862D1*
X1111529Y1098763D1*
X1103880D1*
X1100077Y1096862D1*
X1098176Y1094960D1*
X1096230Y1091114D1*
Y1087311D1*
X1098176Y1083464D1*
X1101978Y1077760D1*
X1121124Y1058615D1*
X1094329D1*
X1230252Y881396D2*
Y864196D1*
X1228307Y858448D1*
X1226405Y856502D1*
X1222603Y854601D1*
X1218756D1*
X1214954Y856502D1*
X1213008Y858448D1*
X1211107Y864196D1*
Y881396D1*
X1251299D1*
X1230252Y867998D2*
X1251299Y854601D1*
X1211151Y838403D2*
Y817401D1*
X1226450Y828852D1*
Y823104D1*
X1228351Y819302D1*
X1230252Y817401D1*
X1236000Y815455D1*
X1239803D1*
X1245551Y817401D1*
X1249398Y821203D1*
X1251299Y826951D1*
Y832699D1*
X1249398Y838403D1*
X1247452Y840304D1*
X1243650Y842250D1*
X1161024Y710292D2*
X1143824D1*
X1138076Y712237D1*
X1136130Y714138D1*
X1134229Y717941D1*
Y721788D1*
X1136130Y725590D1*
X1138076Y727536D1*
X1143824Y729437D1*
X1161024D1*
Y689245D1*
X1147626Y710292D2*
X1134229Y689245D1*
X1102732D2*
Y729393D1*
X1121878Y702642D1*
X1093182D1*
X767740Y729270D2*
Y712070D1*
X765795Y706322D1*
X763894Y704376D1*
X760091Y702475D1*
X756244D1*
X752442Y704376D1*
X750496Y706322D1*
X748595Y712070D1*
Y729270D1*
X788787D1*
X767740Y715873D2*
X788787Y702475D1*
X748639Y667176D2*
Y686277D1*
X765839Y688178D1*
X763938Y686277D1*
X761992Y680529D1*
Y674825D1*
X763938Y669077D1*
X767740Y665230D1*
X773488Y663329D1*
X777291D1*
X783039Y665230D1*
X786886Y669077D1*
X788787Y674825D1*
Y680529D1*
X786886Y686277D1*
X784940Y688178D1*
X781138Y690124D1*
X897575Y729821D2*
Y712621D1*
X895630Y706873D1*
X893728Y704928D1*
X889926Y703026D1*
X886079D1*
X882276Y704928D1*
X880331Y706873D1*
X878430Y712621D1*
Y729821D1*
X918622D1*
X897575Y716424D2*
X918622Y703026D1*
Y683026D2*
X878474Y663880D1*
Y690675D1*
X592093Y1337367D2*
X574893D1*
X569145Y1339312D1*
X567200Y1341213D1*
X565298Y1345016D1*
Y1348863D1*
X567200Y1352665D1*
X569145Y1354611D1*
X574893Y1356512D1*
X592093D1*
Y1316320D1*
X578696Y1337367D2*
X565298Y1316320D1*
X552947Y1343115D2*
Y1302923D1*
Y1337367D2*
X549100Y1341169D1*
X545298Y1343115D1*
X539550D1*
X535703Y1341169D1*
X531900Y1337367D1*
X529955Y1331619D1*
Y1327772D1*
X531900Y1322068D1*
X535703Y1318221D1*
X539550Y1316320D1*
X545298D1*
X549100Y1318221D1*
X552947Y1322068D1*
X1559006Y1814622D2*
D63*
X1537506D1*
X1530321Y1817053D1*
X1527889Y1819430D1*
X1525512Y1824183D1*
Y1828992D1*
X1527889Y1833745D1*
X1530321Y1836177D1*
X1537506Y1838553D1*
X1559006D1*
Y1788313D1*
X1542259Y1814622D2*
X1525512Y1788313D1*
X1510073Y1807437D2*
X1481388D1*
Y1812245D1*
X1483765Y1817053D1*
X1486141Y1819430D1*
X1490950Y1821807D1*
X1498135D1*
X1502888Y1819430D1*
X1507697Y1814622D1*
X1510073Y1807437D1*
Y1802683D1*
X1507697Y1795498D1*
X1502888Y1790745D1*
X1498135Y1788313D1*
X1490950D1*
X1486141Y1790745D1*
X1481388Y1795498D1*
X1465949Y1821807D2*
X1451579Y1788313D1*
X1437264Y1821807D1*
X1358854Y1838498D2*
X1366039Y1836121D1*
X1370847Y1828936D1*
X1373224Y1816998D1*
Y1809813D1*
X1370847Y1797875D1*
X1366039Y1790690D1*
X1358854Y1788313D1*
X1354101D1*
X1346916Y1790690D1*
X1342162Y1797875D1*
X1339731Y1809813D1*
Y1816998D1*
X1342162Y1828936D1*
X1346916Y1836121D1*
X1354101Y1838498D1*
X1358854D1*
X1342162Y1828936D2*
X1370847Y1797875D1*
X1321915Y1793122D2*
X1324291Y1790690D1*
X1321915Y1788313D1*
X1319483Y1790690D1*
X1321915Y1793122D1*
X1294482Y1788313D2*
X1270550Y1838498D1*
X1304044D1*
M02*
