M48
INCH
T01C0.0157
T02C0.0354
T03C0.1594
%
T01
X+009055Y+020472
X+009055Y+019685
X+008268Y+019685
X+008268Y+020472
X+007480Y+020472
X+007480Y+019685
X+007480Y+018898
X+007480Y+018110
X+008268Y+018110
X+008268Y+017323
X+009055Y+017323
X+009843Y+017323
X+010630Y+017323
X+010630Y+018110
X+011417Y+018110
X+011417Y+018898
X+011417Y+019685
X+010630Y+019685
X+010630Y+020472
X+011417Y+020472
X+011417Y+021260
X+011417Y+022047
X+012205Y+022047
X+012992Y+022047
X+012992Y+021260
X+012992Y+020472
X+012992Y+019685
X+012992Y+018898
X+012205Y+018898
X+012205Y+019685
X+012205Y+020472
X+012205Y+021260
X+013780Y+022047
X+014567Y+022047
X+015354Y+022047
X+015354Y+018898
X+014567Y+018898
X+013780Y+018898
X+014567Y+018110
X+015354Y+018110
X+012205Y+018110
X+012205Y+017323
X+011417Y+017323
X+009320Y+014070
X+010076Y+013217
X+012165Y+013219
X+012047Y+009270
X+012432Y+009144
X+013249Y+007164
X+013126Y+006576
X+013504Y+005236
X+011068Y+004462
X+010857Y+005707
X+009957Y+005327
X+009167Y+005307
X+009287Y+005797
X+007264Y+005774
X+006634Y+005762
X+006731Y+005051
X+006707Y+004539
X+007416Y+007793
X+006608Y+008581
X+005513Y+007810
X+010425Y+007916
X+007714Y+012277
X+006959Y+013297
X+007217Y+014259
X+007480Y+017323
X+006693Y+017323
X+006693Y+018110
X+006693Y+018898
X+006693Y+019685
X+005906Y+019685
X+005906Y+020472
X+005906Y+021260
X+006693Y+021260
X+006693Y+022047
X+007480Y+022047
X+007480Y+021260
X+006693Y+020472
X+005118Y+020472
X+005118Y+019685
X+005118Y+018898
X+005906Y+018898
X+004331Y+018898
X+004331Y+019685
X+004331Y+020472
X+004331Y+021260
X+004331Y+022047
X+005118Y+022047
X+005906Y+022047
X+005118Y+021260
T02
X+004573Y+011935
X+004573Y+010935
X+004573Y+009935
X+004573Y+008935
X+004568Y+013935
X+004568Y+014935
X+004568Y+015935
X+004568Y+016935
X+004568Y+017935
X+014371Y+016757
X+015371Y+016757
X+015371Y+015757
X+014371Y+015757
X+014371Y+014757
X+014371Y+013757
X+014371Y+012757
X+015371Y+012757
X+015371Y+013757
X+015371Y+014757
X+015371Y+011757
X+015371Y+010757
X+015371Y+009757
X+014371Y+009757
X+014371Y+010757
X+014371Y+011757
X+014371Y+008757
X+014371Y+007757
X+014371Y+006757
X+015371Y+006757
X+015371Y+007757
X+015371Y+008757
X+015371Y+005757
X+015371Y+004757
X+014371Y+004757
X+014371Y+005757
T03
X+014908Y+020511
T00
M30
