G04 DipTrace 3.0.0.2*
G04 Top.gbr*
%MOIN*%
G04 #@! TF.FileFunction,Copper,L1,Top*
G04 #@! TF.Part,Single*
G04 #@! TA.AperFunction,Conductor*
%ADD10C,0.01*%
%ADD14C,0.018*%
%ADD15C,0.009*%
%ADD16C,0.007*%
G04 #@! TA.AperFunction,ViaPad*
%ADD17C,0.031496*%
G04 #@! TA.AperFunction,CopperBalancing*
%ADD18C,0.025*%
%ADD19C,0.012992*%
%ADD20R,0.059843X0.159843*%
%ADD21R,0.033465X0.159843*%
%ADD22R,0.051181X0.059055*%
%ADD23R,0.059055X0.051181*%
G04 #@! TA.AperFunction,ComponentPad*
%ADD24R,0.059055X0.059055*%
%ADD25C,0.059055*%
%ADD27R,0.027559X0.062992*%
%ADD30R,0.089528X0.039764*%
%ADD31R,0.039764X0.089528*%
%ADD33R,0.043307X0.013583*%
%FSLAX26Y26*%
G04*
G70*
G90*
G75*
G01*
G04 Top*
%LPD*%
X1537126Y1575701D2*
D14*
Y1572559D1*
X1488189Y1523622D1*
Y1449082D1*
X1464305Y1425197D1*
X1401575D1*
X1381890Y1405512D1*
X1313221D1*
X1311772Y1406961D1*
X932016D1*
X1537126Y1575701D2*
D10*
X1581780D1*
X1586614Y1570866D1*
Y539370D1*
X1570866Y523622D1*
X1350394D1*
X456764Y1493496D2*
D14*
X501370D1*
X515748Y1507874D1*
X581331D1*
X582244Y1506961D1*
X1350394Y523622D2*
D10*
Y425197D1*
X1344898Y419701D1*
X1162977D1*
X1157481Y425197D1*
Y498819D1*
X1158662Y500000D1*
Y419701D1*
D15*
X631481D1*
D10*
X622701Y428481D1*
Y479536D1*
Y510701D1*
X644701Y532701D1*
X718701D1*
X720685Y530717D1*
X726378D1*
Y479536D2*
D16*
X622701D1*
X726378Y530717D2*
D10*
X754685D1*
X780701Y504701D1*
X830284D1*
X830709Y505126D1*
X726378Y530717D2*
Y577378D1*
X661811Y654331D2*
D14*
X850788D1*
X1042882D1*
X1042937Y654386D1*
X1231835D1*
X1231890Y654331D1*
X726378Y505126D2*
D10*
X673126D1*
X916717Y530717D2*
X830709D1*
X726378Y453945D2*
X670701D1*
X1106824Y446194D2*
D16*
Y500000D1*
X1108662D1*
X456764Y1593496D2*
D10*
X474746D1*
X510893Y1557349D1*
X581856D1*
X582244Y1556961D1*
X1062992Y2047244D2*
D16*
X1040158D1*
X1010630Y2076772D1*
Y2177171D1*
Y2247376D1*
X1009974Y2248032D1*
X905512Y2047244D2*
Y2177565D1*
Y2248819D1*
X906824Y2250131D1*
X857769Y2177565D2*
X905512D1*
X1057376Y2177171D2*
X1010630D1*
X582244Y856961D2*
D10*
X659586D1*
X660761Y858137D1*
X663386Y576247D2*
Y652756D1*
X661811Y654331D1*
X1231890D2*
X1309318D1*
X1312599Y657612D1*
X1311772Y856961D2*
Y760066D1*
X1287402Y735696D1*
Y682809D1*
X1312599Y657612D1*
X1437126Y1675701D2*
D14*
X1537126D1*
X1311772Y1206961D2*
D16*
X1359979D1*
X1377953Y1224935D1*
Y1348557D1*
X1369685Y1356824D1*
X1311908D1*
X1311772Y1356961D1*
Y1206961D2*
X1255507D1*
X1244488Y1217979D1*
Y1348032D1*
X1252231Y1355774D1*
X1310586D1*
X1311772Y1356961D2*
D14*
X1042919D1*
X1007612Y1321654D1*
X453150Y697507D2*
D16*
Y760236D1*
X514961Y822047D1*
Y937664D1*
X530578Y953281D1*
X578565D1*
X582244Y956961D1*
X452100Y569554D2*
Y617192D1*
X471654Y636746D1*
X575066D1*
X586352Y648032D1*
Y742914D1*
X620998Y777559D1*
X688583D1*
X724541Y813517D1*
Y870735D1*
X691339Y903937D1*
X585268D1*
X582244Y906961D1*
X997008Y1871725D2*
D17*
Y1971103D1*
X957769Y2010341D1*
Y2177171D1*
X721654Y1425853D2*
D10*
Y1570604D1*
X685171Y1607087D1*
X582370D1*
X582244Y1606961D1*
X456764Y1693496D2*
D16*
X483670D1*
X519685Y1657481D1*
X581725D1*
X582244Y1656961D1*
X456764Y1793496D2*
X486032D1*
X507874Y1771654D1*
Y1724410D1*
X523622Y1708662D1*
X580544D1*
X582244Y1706961D1*
X457349Y1193509D2*
Y1272441D1*
X514305Y1329397D1*
Y1445145D1*
X526641Y1457481D1*
X581725D1*
X582244Y1456961D1*
X695932Y1329659D2*
Y1368242D1*
X656956Y1407218D1*
X582502D1*
X582244Y1406961D1*
X771391Y1227691D2*
X704200D1*
X659449Y1272441D1*
Y1335433D1*
X637927Y1356956D1*
X582250D1*
X582244Y1356961D1*
X457349Y893509D2*
X421845D1*
X412599Y902756D1*
Y1130315D1*
X425853Y1143570D1*
X498163D1*
X513780Y1159187D1*
Y1291601D1*
X529397Y1307218D1*
X581987D1*
X582244Y1306961D1*
X1204725Y927034D2*
D10*
Y824410D1*
X1231496Y797638D1*
Y729528D1*
X1231890Y729134D1*
X526903Y569554D2*
D16*
X589370D1*
X604462Y584646D1*
Y713386D1*
X621523Y730446D1*
X660499D1*
X661811Y729134D1*
X1042937Y729189D2*
X1042520Y791578D1*
X527953Y697507D2*
Y757612D1*
X551313Y780971D1*
X741601Y779265D2*
X840945D1*
X850394Y769816D1*
Y729528D1*
X850788Y729134D1*
X995701Y532701D2*
Y501701D1*
X948701Y454701D1*
X831465D1*
X830709Y453945D1*
X1208662Y500000D2*
Y582740D1*
X1201701Y589701D1*
X1104701D1*
X1085701Y570701D1*
X1437126Y1075701D2*
D10*
Y1075210D1*
X1489502Y1022835D1*
Y633596D1*
X1482940Y627034D1*
X1364567D1*
X1316273Y578740D1*
Y519554D1*
X1296588Y499869D1*
X1208793D1*
X1208662Y500000D1*
X830709Y479536D2*
D16*
X938536D1*
X952701Y493701D1*
Y555701D1*
X928701Y579701D1*
X1058662Y500000D2*
Y538740D1*
X1018701Y578701D1*
X928701D1*
Y579701D1*
X1437126Y975701D2*
D10*
Y967179D1*
X1391864Y921916D1*
Y783334D1*
X1324935Y716404D1*
X1311772Y956961D2*
D16*
X1367036D1*
Y1101729D1*
X1381036Y1115729D1*
X1477154D1*
X1537126Y1175701D1*
X1243221Y914362D2*
X1250622Y906961D1*
X1311772D1*
X1537126Y1475701D2*
D10*
Y1447756D1*
X1489764Y1400394D1*
Y1232546D1*
X1479134Y1221916D1*
X1405381D1*
X1385958Y1202494D1*
Y1165617D1*
X1376247Y1155906D1*
X1312827D1*
X1311772Y1156961D1*
X1216536Y1321916D2*
Y1137927D1*
X1244488Y1109974D1*
X1308759D1*
X1311772Y1106961D1*
D17*
X932016Y1406961D3*
X1350394Y523622D3*
X726378Y577378D3*
X673126Y505126D3*
X916717Y530717D3*
X670701Y453945D3*
X673126Y505126D3*
X1106824Y446194D3*
X660761Y858137D3*
X663386Y576247D3*
X1312599Y657612D3*
X1007612Y1321654D3*
X660761Y858137D3*
X1007612Y1321654D3*
X721654Y1425853D3*
X695932Y1329659D3*
X771391Y1227691D3*
X1204725Y927034D3*
X1042520Y791578D3*
X551313Y780971D3*
X741601Y779265D3*
X995701Y532701D3*
X1085701Y570701D3*
X928701Y579701D3*
X1324935Y716404D3*
X928701Y579701D3*
X1216536Y1321916D3*
X905512Y2047244D3*
X1062992Y1968504D3*
X905512D3*
X1062992Y2047244D3*
X1220473Y1732284D3*
X1141732Y2047244D3*
Y1968504D3*
Y2125984D3*
Y2204725D3*
X1220473Y1968504D3*
Y2047244D3*
Y2125984D3*
Y2204725D3*
X1141732Y1889764D3*
X1220473D3*
X1299213D3*
Y1968504D3*
Y2047244D3*
Y2125984D3*
Y2204725D3*
X826772Y1968504D3*
Y2047244D3*
X748032Y1968504D3*
Y2047244D3*
Y2125984D3*
Y2204725D3*
Y1889764D3*
Y1811024D3*
X826772D3*
X1141732D3*
X1062992D3*
X669292D3*
Y1889764D3*
Y1968504D3*
Y2047244D3*
Y2125984D3*
Y2204725D3*
X590551Y1889764D3*
Y1968504D3*
Y2047244D3*
Y2125984D3*
Y2204725D3*
X511811Y1889764D3*
Y1968504D3*
Y2047244D3*
Y2125984D3*
Y2204725D3*
X433071Y1889764D3*
Y1968504D3*
Y2047244D3*
Y2125984D3*
Y2204725D3*
X1062992Y1732284D3*
X984252D3*
X905512D3*
X826772D3*
X748032D3*
X669292D3*
X1141732D3*
X1220473Y1811024D3*
X1377953Y2204725D3*
X1456693D3*
X1535433D3*
X1377953Y1889764D3*
X1456693D3*
X1535433D3*
X1456693Y1811024D3*
X1535433D3*
X1243221Y914362D3*
X434685Y2212238D2*
D18*
X804856D1*
X1110295D2*
X1573167D1*
X434685Y2187369D2*
X804856D1*
X1110295D2*
X1573167D1*
X434685Y2162500D2*
X804856D1*
X1110295D2*
X1419797D1*
X1561760D2*
X1573193D1*
X434685Y2137631D2*
X804856D1*
X1110295D2*
X1390208D1*
X434685Y2112763D2*
X804856D1*
X1110295D2*
X1372971D1*
X434685Y2087894D2*
X804856D1*
X1110295D2*
X1362815D1*
X434685Y2063025D2*
X920139D1*
X995403D2*
X1358079D1*
X434685Y2038156D2*
X920139D1*
X995403D2*
X1358176D1*
X434685Y2013288D2*
X920139D1*
X1007024D2*
X1363108D1*
X434685Y1988419D2*
X927805D1*
X1030071D2*
X1373557D1*
X434685Y1963550D2*
X952365D1*
X1034660D2*
X1391184D1*
X434685Y1938681D2*
X848117D1*
X945891D2*
X959348D1*
X1034660D2*
X1421555D1*
X1559953D2*
X1573164D1*
X434685Y1913813D2*
X754124D1*
X1139885D2*
X1573167D1*
X434685Y1888944D2*
X754124D1*
X1139885D2*
X1573167D1*
X434685Y1864075D2*
X754124D1*
X1139885D2*
X1573167D1*
X479583Y1839206D2*
X514475D1*
X649992D2*
X754124D1*
X1139885D2*
X1244016D1*
X1379533D2*
X1573167D1*
X504729Y1814337D2*
X514491D1*
X649992D2*
X754124D1*
X1139885D2*
X1244016D1*
X1379533D2*
X1573167D1*
X655999Y1789469D2*
X1238011D1*
X1385540D2*
X1573167D1*
X655999Y1764600D2*
X1238011D1*
X1385540D2*
X1573167D1*
X655999Y1739731D2*
X1238011D1*
X1385540D2*
X1573167D1*
X655999Y1714862D2*
X1238011D1*
X1489641D2*
X1503471D1*
X649992Y1689994D2*
X1238011D1*
X649992Y1665125D2*
X1238011D1*
X477044Y1640256D2*
X500511D1*
X649992D2*
X1238011D1*
X1489641D2*
X1499322D1*
X504240Y1615387D2*
X514486D1*
X715423D2*
X1238011D1*
X1385540D2*
X1404166D1*
X1470061D2*
X1504172D1*
X740276Y1590519D2*
X1238011D1*
X500823Y1565650D2*
X514473D1*
X649992D2*
X688059D1*
X749651D2*
X1238011D1*
X475579Y1540781D2*
X514475D1*
X649992D2*
X693675D1*
X749651D2*
X1238011D1*
X1385540D2*
X1398790D1*
X649992Y1515912D2*
X693675D1*
X749651D2*
X1238011D1*
X1385540D2*
X1395583D1*
X649992Y1491044D2*
X693675D1*
X749651D2*
X1238011D1*
X649992Y1466175D2*
X693675D1*
X749651D2*
X1238011D1*
X649992Y1441306D2*
X686351D1*
X756927D2*
X917941D1*
X946096D2*
X1238011D1*
X759172Y1416437D2*
X894553D1*
X735931Y1391568D2*
X896701D1*
X722404Y1366700D2*
X1244016D1*
X434685Y1341831D2*
X487815D1*
X732561D2*
X1183763D1*
X434685Y1316962D2*
X465452D1*
X732365D2*
X1178147D1*
X1385540D2*
X1396715D1*
X685931Y1292093D2*
X1188547D1*
X701067Y1267225D2*
X1188547D1*
X807024Y1242356D2*
X1188547D1*
X655999Y1217487D2*
X678000D1*
X808684D2*
X1188547D1*
X655999Y1192618D2*
X759739D1*
X783088D2*
X1188547D1*
X655999Y1167750D2*
X1188547D1*
X655999Y1142881D2*
X1188547D1*
X655999Y1118012D2*
X1197923D1*
X655999Y1093143D2*
X1222776D1*
X655999Y1068274D2*
X1238011D1*
X439104Y1043406D2*
X451268D1*
X463449D2*
X508469D1*
X655999D2*
X1238011D1*
X655999Y1018537D2*
X1238011D1*
X1393499D2*
X1408763D1*
X655999Y993668D2*
X1238011D1*
X655999Y968799D2*
X1238011D1*
X439104Y943931D2*
X448133D1*
X466566D2*
X489328D1*
X649992D2*
X1170139D1*
X712639Y919062D2*
X1166868D1*
X737492Y894193D2*
X1176731D1*
X649992Y869324D2*
X689524D1*
X751019D2*
X1176731D1*
X1232708D2*
X1244016D1*
X434685Y844456D2*
X445041D1*
X469633D2*
X488449D1*
X649992D2*
X698068D1*
X751019D2*
X1176731D1*
X1232708D2*
X1244016D1*
X434685Y819587D2*
X476096D1*
X649992D2*
X694211D1*
X751019D2*
X1017015D1*
X1068011D2*
X1177219D1*
X434685Y794718D2*
X451193D1*
X587347D2*
X601761D1*
X861907D2*
X1003928D1*
X1081145D2*
X1195872D1*
X1259465D2*
X1363889D1*
X903313Y769849D2*
X990403D1*
X1095452D2*
X1179368D1*
X1284416D2*
X1339816D1*
X714348Y744981D2*
X727341D1*
X755852D2*
X798264D1*
X903313D2*
X990403D1*
X1095452D2*
X1179368D1*
X1284416D2*
X1300120D1*
X714348Y720112D2*
X798264D1*
X903313D2*
X990403D1*
X1095452D2*
X1179368D1*
X1367180D2*
X1400461D1*
X714348Y695243D2*
X798264D1*
X903313D2*
X990403D1*
X1095452D2*
X1179368D1*
X1284416D2*
X1292991D1*
X1356877D2*
X1382103D1*
X714348Y670374D2*
X798264D1*
X903313D2*
X990403D1*
X1095452D2*
X1179368D1*
X1284416D2*
X1378879D1*
X714348Y645505D2*
X798264D1*
X903313D2*
X990403D1*
X1095452D2*
X1179368D1*
X1284416D2*
X1344504D1*
X714348Y620637D2*
X798264D1*
X903313D2*
X990403D1*
X1095452D2*
X1179368D1*
X1284416D2*
X1319603D1*
X630949Y595768D2*
X692649D1*
X760100D2*
X893723D1*
X1038079D2*
X1057004D1*
X1231292D2*
X1294797D1*
X1371868D2*
X1382347D1*
X626604Y570899D2*
X688205D1*
X764544D2*
X891037D1*
X1235149D2*
X1288303D1*
X1346965D2*
X1378831D1*
X596575Y546030D2*
X619504D1*
X777923D2*
X786053D1*
X875383D2*
X912767D1*
X1245452D2*
X1288303D1*
X575481Y521162D2*
X596945D1*
X875383D2*
X926193D1*
X434685Y496293D2*
X594700D1*
X434685Y471424D2*
X594700D1*
X771037D2*
X786057D1*
X1001848D2*
X1021897D1*
X1245452D2*
X1322385D1*
X434685Y446555D2*
X594700D1*
X771037D2*
X786057D1*
X976995D2*
X1129515D1*
X1186663D2*
X1322385D1*
X1378361D2*
X1386781D1*
X885935Y2077143D2*
X807348D1*
Y2237114D1*
X432185Y2237107D1*
Y1837058D1*
X437620Y1839715D1*
X445086Y1842142D1*
X452839Y1843369D1*
X460689D1*
X468442Y1842142D1*
X475908Y1839715D1*
X482903Y1836151D1*
X489255Y1831537D1*
X494805Y1825987D1*
X499419Y1819635D1*
X502983Y1812641D1*
X504252Y1809201D1*
X510988Y1803335D1*
X516995D1*
X516981Y1847343D1*
X647508D1*
Y1803328D1*
X653500Y1803335D1*
Y1710587D1*
X647495D1*
X647508Y1632547D1*
X687172Y1632508D1*
X693051Y1631339D1*
X698495Y1628830D1*
X703431Y1624872D1*
X741045Y1587164D1*
X744374Y1582181D1*
X746449Y1576557D1*
X747141Y1570268D1*
X747285Y1451484D1*
X750979Y1447159D1*
X753950Y1442310D1*
X756128Y1437054D1*
X757456Y1431524D1*
X757902Y1425853D1*
X757456Y1420183D1*
X756128Y1414652D1*
X753950Y1409397D1*
X750979Y1404547D1*
X747285Y1400222D1*
X742960Y1396528D1*
X738110Y1393557D1*
X732855Y1391379D1*
X727324Y1390051D1*
X721654Y1389605D1*
X715983Y1390051D1*
X710453Y1391379D1*
X703713Y1394387D1*
X715348Y1382348D1*
X718105Y1377427D1*
X719637Y1371996D1*
X719932Y1368242D1*
Y1356865D1*
X725257Y1350965D1*
X728229Y1346116D1*
X730406Y1340860D1*
X731734Y1335330D1*
X732180Y1329659D1*
X731734Y1323988D1*
X730406Y1318458D1*
X728229Y1313202D1*
X725257Y1308353D1*
X721563Y1304028D1*
X717238Y1300334D1*
X712389Y1297362D1*
X707133Y1295185D1*
X701603Y1293857D1*
X695932Y1293411D1*
X690261Y1293857D1*
X683427Y1295666D1*
X683449Y1282357D1*
X714158Y1251675D1*
X744191Y1251691D1*
X750086Y1257016D1*
X754935Y1259987D1*
X760191Y1262164D1*
X765721Y1263492D1*
X771391Y1263939D1*
X777062Y1263492D1*
X782592Y1262164D1*
X787848Y1259987D1*
X792697Y1257016D1*
X797023Y1253322D1*
X800717Y1248996D1*
X803688Y1244147D1*
X805865Y1238891D1*
X807193Y1233361D1*
X807639Y1227691D1*
X807193Y1222020D1*
X805865Y1216490D1*
X803688Y1211234D1*
X800717Y1206385D1*
X797023Y1202059D1*
X792697Y1198365D1*
X787848Y1195394D1*
X782592Y1193217D1*
X777062Y1191889D1*
X771391Y1191442D1*
X765721Y1191889D1*
X760191Y1193217D1*
X754935Y1195394D1*
X750086Y1198365D1*
X744243Y1203700D1*
X700445Y1203986D1*
X695015Y1205517D1*
X690093Y1208274D1*
X687229Y1210719D1*
X653496Y1244453D1*
X653500Y1160587D1*
X647495D1*
X647508Y1153328D1*
X653500Y1153335D1*
Y960587D1*
X647494D1*
X647768Y927937D1*
X695093Y927642D1*
X700524Y926110D1*
X705445Y923353D1*
X708310Y920908D1*
X743957Y884841D1*
X746714Y879920D1*
X748246Y874490D1*
X748541Y870735D1*
Y814843D1*
X755473Y812753D1*
X760541Y810172D1*
X765142Y806828D1*
X768750Y803256D1*
X844700Y802970D1*
X850130Y801439D1*
X855051Y798681D1*
X857916Y796236D1*
X869810Y783923D1*
X872567Y779002D1*
X873769Y775225D1*
X900815D1*
Y608240D1*
X800760D1*
Y755260D1*
X768729Y755265D1*
X762907Y749940D1*
X758058Y746969D1*
X752802Y744792D1*
X747272Y743463D1*
X741601Y743017D1*
X735931Y743463D1*
X730400Y744792D1*
X725145Y746969D1*
X720295Y749940D1*
X715970Y753634D1*
X711837Y758616D1*
X711839Y610587D1*
X717916Y612625D1*
X723534Y613515D1*
X729222D1*
X734840Y612625D1*
X740250Y610866D1*
X745318Y608285D1*
X749919Y604941D1*
X753941Y600919D1*
X757285Y596318D1*
X759866Y591250D1*
X761625Y585840D1*
X762515Y580222D1*
Y574534D1*
X761625Y568916D1*
X759866Y563507D1*
X756995Y558004D1*
X768532Y558008D1*
Y552100D1*
X772717Y548748D1*
X788565Y532900D1*
X788555Y558008D1*
X872862D1*
Y503559D1*
X928609Y503536D1*
X928701Y543453D1*
X923030Y543899D1*
X917500Y545227D1*
X912244Y547404D1*
X907395Y550376D1*
X903070Y554070D1*
X899376Y558395D1*
X896404Y563244D1*
X894227Y568500D1*
X892899Y574030D1*
X892453Y579701D1*
X892899Y585372D1*
X894227Y590902D1*
X896404Y596158D1*
X899376Y601007D1*
X903070Y605332D1*
X907395Y609026D1*
X912244Y611998D1*
X917500Y614175D1*
X923030Y615503D1*
X928701Y615949D1*
X934372Y615503D1*
X939902Y614175D1*
X945158Y611998D1*
X950007Y609026D1*
X954332Y605332D1*
X956698Y602692D1*
X1022456Y602406D1*
X1027886Y600874D1*
X1032807Y598117D1*
X1035672Y595672D1*
X1050828Y580515D1*
X1053404Y587158D1*
X1056376Y592007D1*
X1060070Y596332D1*
X1064395Y600026D1*
X1069244Y602998D1*
X1074500Y605175D1*
X1080030Y606503D1*
X1087935Y606861D1*
X1087965Y608295D1*
X992910D1*
Y775280D1*
X1010146D1*
X1008046Y780377D1*
X1006718Y785907D1*
X1006272Y791578D1*
X1006718Y797248D1*
X1008046Y802778D1*
X1010223Y808034D1*
X1013194Y812883D1*
X1016889Y817209D1*
X1021214Y820903D1*
X1026063Y823874D1*
X1031319Y826051D1*
X1036849Y827379D1*
X1042520Y827826D1*
X1048191Y827379D1*
X1053721Y826051D1*
X1058977Y823874D1*
X1063826Y820903D1*
X1068151Y817209D1*
X1071845Y812883D1*
X1074816Y808034D1*
X1076994Y802778D1*
X1078322Y797248D1*
X1078768Y791578D1*
X1078322Y785907D1*
X1076994Y780377D1*
X1074887Y775273D1*
X1092965Y775280D1*
Y610624D1*
X1097285Y612526D1*
X1102818Y613628D1*
X1181898Y613701D1*
X1181862Y775225D1*
X1206033D1*
X1205996Y787096D1*
X1184095Y809421D1*
X1181166Y814651D1*
X1179538Y820420D1*
X1179225Y824410D1*
X1179093Y901403D1*
X1175399Y905729D1*
X1172428Y910578D1*
X1170251Y915834D1*
X1168923Y921364D1*
X1168477Y927034D1*
X1168923Y932705D1*
X1170251Y938235D1*
X1172428Y943491D1*
X1175399Y948340D1*
X1179093Y952666D1*
X1183419Y956360D1*
X1188268Y959331D1*
X1193524Y961508D1*
X1199054Y962836D1*
X1204725Y963282D1*
X1210395Y962836D1*
X1215925Y961508D1*
X1221181Y959331D1*
X1226030Y956360D1*
X1230356Y952666D1*
X1233341Y949239D1*
X1240377Y950499D1*
X1246517Y950445D1*
X1246508Y960572D1*
X1240516Y960587D1*
X1240499Y1084788D1*
X1234730Y1086415D1*
X1229500Y1089344D1*
X1226457Y1091942D1*
X1195906Y1122939D1*
X1192977Y1128168D1*
X1191349Y1133937D1*
X1191036Y1137927D1*
X1190904Y1296285D1*
X1187210Y1300610D1*
X1184239Y1305460D1*
X1182062Y1310715D1*
X1180734Y1316246D1*
X1180288Y1321916D1*
X1180734Y1327587D1*
X1182062Y1333117D1*
X1184239Y1338373D1*
X1187210Y1343222D1*
X1190904Y1347547D1*
X1195230Y1351242D1*
X1200079Y1354213D1*
X1205335Y1356390D1*
X1210865Y1357718D1*
X1216536Y1358164D1*
X1222206Y1357718D1*
X1227736Y1356390D1*
X1232992Y1354213D1*
X1237841Y1351242D1*
X1240509Y1349079D1*
X1240516Y1353335D1*
X1246523D1*
X1246508Y1377467D1*
X953032Y1377461D1*
X948473Y1374664D1*
X943217Y1372487D1*
X937687Y1371159D1*
X932016Y1370713D1*
X926345Y1371159D1*
X920815Y1372487D1*
X915559Y1374664D1*
X910710Y1377635D1*
X906385Y1381330D1*
X902691Y1385655D1*
X899719Y1390504D1*
X897542Y1395760D1*
X896214Y1401290D1*
X895768Y1406961D1*
X896214Y1412631D1*
X897542Y1418162D1*
X899719Y1423418D1*
X902691Y1428267D1*
X906385Y1432592D1*
X910710Y1436286D1*
X915559Y1439257D1*
X920815Y1441435D1*
X926345Y1442763D1*
X932016Y1443209D1*
X937687Y1442763D1*
X943217Y1441435D1*
X948473Y1439257D1*
X953072Y1436453D1*
X1240561Y1436461D1*
X1240516Y1603335D1*
X1240566Y1753335D1*
X1240516Y1803335D1*
X1246523D1*
X1246508Y1847343D1*
X1377036D1*
Y1803328D1*
X1383028Y1803335D1*
X1382979Y1710587D1*
X1387099Y1710673D1*
Y1725729D1*
X1487154D1*
X1487382Y1681025D1*
X1488736Y1688394D1*
X1491175Y1695479D1*
X1494643Y1702121D1*
X1499066Y1708170D1*
X1504343Y1713490D1*
X1510355Y1717962D1*
X1516966Y1721487D1*
X1524032Y1723984D1*
X1531390Y1725399D1*
X1538877Y1725698D1*
X1546324Y1724876D1*
X1553566Y1722950D1*
X1560439Y1719965D1*
X1566788Y1715987D1*
X1572473Y1711105D1*
X1575708Y1707542D1*
X1575673Y1951718D1*
X1567612Y1945362D1*
X1559076Y1939659D1*
X1550120Y1934642D1*
X1540797Y1930345D1*
X1531166Y1926792D1*
X1521285Y1924005D1*
X1511217Y1922003D1*
X1501021Y1920795D1*
X1490764Y1920393D1*
X1480507Y1920795D1*
X1470311Y1922003D1*
X1460243Y1924005D1*
X1450362Y1926792D1*
X1440731Y1930345D1*
X1431408Y1934642D1*
X1422452Y1939659D1*
X1413916Y1945362D1*
X1405855Y1951718D1*
X1398315Y1958685D1*
X1391348Y1966225D1*
X1384992Y1974286D1*
X1379289Y1982822D1*
X1374272Y1991778D1*
X1369975Y2001101D1*
X1366421Y2010732D1*
X1363635Y2020613D1*
X1361633Y2030681D1*
X1360425Y2040877D1*
X1360023Y2051134D1*
X1360425Y2061391D1*
X1361633Y2071587D1*
X1363635Y2081655D1*
X1366421Y2091536D1*
X1369975Y2101167D1*
X1374272Y2110490D1*
X1379289Y2119446D1*
X1384992Y2127982D1*
X1391348Y2136044D1*
X1398315Y2143583D1*
X1405855Y2150550D1*
X1413916Y2156906D1*
X1422452Y2162609D1*
X1431408Y2167626D1*
X1440731Y2171923D1*
X1450362Y2175477D1*
X1460243Y2178263D1*
X1470311Y2180265D1*
X1480507Y2181473D1*
X1490764Y2181876D1*
X1501021Y2181473D1*
X1511217Y2180265D1*
X1521285Y2178263D1*
X1531166Y2175477D1*
X1540797Y2171923D1*
X1550120Y2167626D1*
X1559076Y2162609D1*
X1567612Y2156906D1*
X1575704Y2150524D1*
X1575689Y2237107D1*
X1107769D1*
X1107797Y2076750D1*
X1029428D1*
X1029429Y2075689D1*
X992954D1*
X992923Y2024876D1*
X1023739Y1993933D1*
X1026982Y1989470D1*
X1029486Y1984555D1*
X1031191Y1979309D1*
X1032053Y1973861D1*
X1032162Y1936971D1*
X1137390Y1936988D1*
Y1806461D1*
X1006626D1*
Y1807565D1*
X987419Y1807555D1*
X987390Y1806461D1*
X943377D1*
X943382Y1800469D1*
X850634D1*
Y1806475D1*
X756626Y1806461D1*
Y1936988D1*
X850639D1*
X850634Y1942981D1*
X943382D1*
Y1936974D1*
X961870Y1936988D1*
X961855Y1956540D1*
X931038Y1987511D1*
X927795Y1991974D1*
X925292Y1996889D1*
X923587Y2002135D1*
X922725Y2007583D1*
X922616Y2076504D1*
X885925Y2076477D1*
Y2077112D1*
X1281918Y700421D2*
Y608240D1*
X1217288Y607950D1*
X1226911Y598327D1*
X1230046Y593637D1*
X1231999Y588343D1*
X1232649Y582410D1*
X1232662Y552028D1*
X1242941Y551996D1*
Y525385D1*
X1286088Y525369D1*
X1290814Y530158D1*
X1290852Y580742D1*
X1292021Y586621D1*
X1294530Y592065D1*
X1298488Y597000D1*
X1348005Y646425D1*
X1352990Y649755D1*
X1358614Y651830D1*
X1364903Y652521D1*
X1386100Y652534D1*
X1382655Y662624D1*
X1381280Y671306D1*
Y680096D1*
X1382655Y688778D1*
X1385370Y697139D1*
X1389361Y704971D1*
X1394529Y712083D1*
X1400744Y718298D1*
X1407856Y723466D1*
X1411694Y725788D1*
X1404198Y730381D1*
X1397515Y736089D1*
X1391806Y742773D1*
X1390020Y745445D1*
X1361183Y716404D1*
X1360736Y710734D1*
X1359408Y705204D1*
X1357231Y699948D1*
X1354260Y695099D1*
X1350566Y690773D1*
X1346240Y687079D1*
X1341391Y684108D1*
X1336135Y681931D1*
X1330605Y680603D1*
X1324935Y680156D1*
X1319264Y680603D1*
X1313734Y681931D1*
X1308478Y684108D1*
X1303629Y687079D1*
X1299303Y690773D1*
X1295609Y695099D1*
X1292638Y699948D1*
X1290461Y705204D1*
X1289133Y710734D1*
X1288687Y716404D1*
X1289133Y722075D1*
X1290461Y727605D1*
X1292638Y732861D1*
X1295609Y737710D1*
X1299303Y742036D1*
X1303629Y745730D1*
X1308478Y748701D1*
X1313734Y750878D1*
X1319264Y752206D1*
X1325124Y752645D1*
X1366393Y793925D1*
X1366364Y816586D1*
X1248608Y816579D1*
X1252126Y812626D1*
X1255055Y807397D1*
X1256683Y801628D1*
X1256996Y797638D1*
Y775226D1*
X1281918Y775225D1*
X1281869Y683044D1*
X707376Y608240D2*
X628450D1*
X628167Y580891D1*
X626635Y575461D1*
X623878Y570540D1*
X621433Y567675D1*
X603477Y550138D1*
X598555Y547381D1*
X593125Y545849D1*
X589370Y545554D1*
X573013D1*
X572994Y519526D1*
X432126D1*
X432185Y432185D1*
X597175D1*
X597280Y512702D1*
X598449Y518582D1*
X600958Y524025D1*
X604916Y528961D1*
X628141Y552091D1*
X633124Y555421D1*
X638748Y557496D1*
X645037Y558188D1*
X695471Y558439D1*
X692890Y563507D1*
X691131Y568916D1*
X690242Y574534D1*
Y580222D1*
X691131Y585840D1*
X692890Y591250D1*
X695471Y596318D1*
X698815Y600919D1*
X702837Y604941D1*
X707374Y608242D1*
X432176Y1243537D2*
X433347D1*
X432185Y1249607D1*
Y1243503D1*
X433349Y1256009D1*
X433645Y1276196D1*
X435176Y1281626D1*
X437933Y1286547D1*
X440378Y1289412D1*
X490339Y1339372D1*
X490305Y1343508D1*
X432134Y1343469D1*
X432185Y1249607D1*
X490978Y856520D2*
X486755Y853036D1*
X480062Y848935D1*
X472809Y845931D1*
X465175Y844097D1*
X457349Y843482D1*
X449524Y844097D1*
X441890Y845931D1*
X434637Y848935D1*
X432160Y850322D1*
X432185Y771921D1*
X434900Y775823D1*
X490961Y831988D1*
Y856471D1*
X457853Y1543481D2*
X464589Y1542908D1*
X472223Y1541075D1*
X479477Y1538071D1*
X486170Y1533970D1*
X492139Y1528872D1*
X493524Y1527373D1*
X498408Y1531740D1*
X504460Y1535129D1*
X511133Y1537011D1*
X516083Y1537361D1*
X516981Y1539079D1*
Y1633620D1*
X512269Y1634655D1*
X507145Y1637017D1*
X502714Y1640509D1*
X488456Y1654769D1*
X482903Y1650841D1*
X475908Y1647277D1*
X468442Y1644851D1*
X460689Y1643624D1*
X458515Y1643494D1*
X465962Y1642671D1*
X473204Y1640746D1*
X480076Y1637760D1*
X486425Y1633782D1*
X492110Y1628900D1*
X497002Y1623223D1*
X500990Y1616881D1*
X503986Y1610013D1*
X505924Y1602774D1*
X506757Y1595328D1*
X506542Y1588504D1*
X505238Y1581126D1*
X502847Y1574025D1*
X499421Y1567360D1*
X495040Y1561282D1*
X489799Y1555927D1*
X483818Y1551415D1*
X477229Y1547845D1*
X470181Y1545302D1*
X462832Y1543837D1*
X458286Y1543502D1*
X1242941Y474408D2*
Y448004D1*
X1184104D1*
X1187977Y445201D1*
X1324940D1*
X1324894Y492141D1*
X1311576Y479239D1*
X1306347Y476310D1*
X1300578Y474683D1*
X1296588Y474369D1*
X1242925D1*
X1174382Y551981D2*
X1184685Y551996D1*
X1174382D1*
X1184685D1*
X1184662Y565673D1*
X1121574Y565701D1*
X1120175Y559500D1*
X1117998Y554244D1*
X1116882Y551996D1*
X1174382D1*
X1131956Y448004D2*
X1024382D1*
Y510553D1*
X1019692Y505553D1*
X1019406Y497946D1*
X1017874Y492516D1*
X1015117Y487595D1*
X1012672Y484730D1*
X972655Y444714D1*
X1132017Y444701D1*
X1130441Y448004D1*
X1125441D1*
X1246508Y818679D2*
Y878268D1*
X1240377Y878226D1*
X1234759Y879116D1*
X1230215Y880554D1*
X1230225Y834994D1*
X1249272Y815924D1*
X1383008Y1303335D2*
X1383028Y1290200D1*
X1385370Y1297139D1*
X1389361Y1304971D1*
X1394529Y1312083D1*
X1400744Y1318298D1*
X1407856Y1323466D1*
X1411694Y1325788D1*
X1404198Y1330381D1*
X1397515Y1336089D1*
X1391806Y1342773D1*
X1387213Y1350269D1*
X1383848Y1358390D1*
X1381797Y1366937D1*
X1381120Y1376028D1*
X1377036Y1374843D1*
Y1353328D1*
X1383028Y1353335D1*
Y1290835D1*
X1383008Y1753335D2*
X1383028Y1490200D1*
X1385370Y1497139D1*
X1389361Y1504971D1*
X1394529Y1512083D1*
X1400744Y1518298D1*
X1407856Y1523466D1*
X1415688Y1527457D1*
X1419541Y1528878D1*
X1410987Y1533046D1*
X1404635Y1537660D1*
X1399086Y1543210D1*
X1394471Y1549562D1*
X1390907Y1556557D1*
X1388481Y1564023D1*
X1387253Y1571776D1*
Y1579626D1*
X1388481Y1587379D1*
X1390907Y1594845D1*
X1394471Y1601840D1*
X1399086Y1608192D1*
X1404635Y1613742D1*
X1410987Y1618356D1*
X1417982Y1621920D1*
X1425448Y1624347D1*
X1433201Y1625574D1*
X1432154Y1625673D1*
X1387099D1*
Y1710673D1*
X1383028Y1703335D1*
X1382979Y1510587D1*
X647508Y1581571D2*
Y1431180D1*
X660710Y1430923D1*
X666141Y1429391D1*
X671062Y1426634D1*
X682765Y1415349D1*
X690120Y1407996D1*
X687180Y1414652D1*
X685852Y1420183D1*
X685406Y1425853D1*
X685852Y1431524D1*
X687180Y1437054D1*
X689357Y1442310D1*
X692328Y1447159D1*
X696162Y1451613D1*
X696154Y1560082D1*
X674586Y1581609D1*
X647524Y1581587D1*
X647508Y1567343D1*
X511008Y1010587D2*
X510988Y1123331D1*
X507348Y1121397D1*
X501918Y1119865D1*
X500004Y1119649D1*
X503568Y1112654D1*
X505995Y1105188D1*
X506761Y1101335D1*
X507222Y1089584D1*
X505995Y1081831D1*
X503568Y1074365D1*
X500004Y1067370D1*
X495390Y1061019D1*
X489840Y1055469D1*
X483488Y1050855D1*
X476494Y1047290D1*
X469028Y1044864D1*
X461274Y1043637D1*
X458439Y1043525D1*
X465175Y1042921D1*
X472809Y1041088D1*
X480062Y1038084D1*
X486755Y1033983D1*
X492725Y1028885D1*
X497823Y1022915D1*
X501924Y1016222D1*
X504928Y1008969D1*
X506761Y1001335D1*
X507377Y993509D1*
X506761Y985684D1*
X504928Y978050D1*
X501924Y970797D1*
X497823Y964104D1*
X492725Y958134D1*
X486755Y953036D1*
X480062Y948935D1*
X472809Y945931D1*
X465175Y944097D1*
X458439Y943525D1*
X465175Y942921D1*
X472809Y941088D1*
X480062Y938084D1*
X486755Y933983D1*
X490978Y930499D1*
X491256Y941419D1*
X492788Y946849D1*
X495545Y951771D1*
X497990Y954635D1*
X510986Y967630D1*
X511037Y1103335D1*
X506761Y1101335D1*
X507377Y1093509D1*
X507222Y1089584D1*
X647508Y879911D2*
Y816579D1*
X558104D1*
X565184Y814460D1*
X570252Y811878D1*
X574853Y808534D1*
X578876Y804512D1*
X582219Y799911D1*
X584801Y794843D1*
X586559Y789433D1*
X587449Y783815D1*
X587424Y777918D1*
X606891Y796975D1*
X611813Y799732D1*
X617243Y801264D1*
X620998Y801559D1*
X678664D1*
X700580Y823498D1*
X700541Y860832D1*
X681365Y879970D1*
X647508Y879843D1*
Y867343D1*
X1487154Y1673356D2*
Y1625673D1*
X1441051Y1625574D1*
X1448805Y1624347D1*
X1456271Y1621920D1*
X1463265Y1618356D1*
X1469617Y1613742D1*
X1475167Y1608192D1*
X1479781Y1601840D1*
X1483345Y1594845D1*
X1485772Y1587379D1*
X1486999Y1579626D1*
X1487110Y1576790D1*
X1487714Y1583526D1*
X1489547Y1591160D1*
X1492551Y1598414D1*
X1496652Y1605107D1*
X1501751Y1611076D1*
X1507721Y1616175D1*
X1514414Y1620276D1*
X1521667Y1623280D1*
X1529301Y1625113D1*
X1536037Y1625685D1*
X1528256Y1626466D1*
X1521003Y1628343D1*
X1514110Y1631282D1*
X1507734Y1635218D1*
X1502017Y1640062D1*
X1497088Y1645706D1*
X1493058Y1652023D1*
X1490015Y1658870D1*
X1488029Y1666095D1*
X1487154Y1673408D1*
X1436037Y1025717D2*
X1429301Y1026289D1*
X1421667Y1028122D1*
X1414414Y1031126D1*
X1407721Y1035227D1*
X1401751Y1040326D1*
X1396652Y1046295D1*
X1392551Y1052988D1*
X1391029Y1056292D1*
X1391036Y995137D1*
X1394471Y1001840D1*
X1399086Y1008192D1*
X1404635Y1013742D1*
X1410987Y1018356D1*
X1417982Y1021920D1*
X1425448Y1024347D1*
X1433201Y1025574D1*
X1436037Y1025685D1*
X1387858Y549114D2*
X1385370Y554263D1*
X1382655Y562624D1*
X1381280Y571306D1*
Y580096D1*
X1382655Y588778D1*
X1385370Y597139D1*
X1387439Y601538D1*
X1375079Y601534D1*
X1341753Y568158D1*
X1341932Y558869D1*
X1347550Y559759D1*
X1353238D1*
X1358856Y558869D1*
X1364265Y557110D1*
X1369334Y554529D1*
X1373935Y551185D1*
X1376154Y549114D1*
X1401919Y432177D2*
X1397515Y436089D1*
X1391806Y442773D1*
X1387213Y450269D1*
X1383848Y458390D1*
X1381797Y466937D1*
X1381107Y475701D1*
X1381797Y484465D1*
X1383848Y493012D1*
X1385824Y498122D1*
X1375886Y497862D1*
X1375894Y432154D1*
X1401862Y432185D1*
X768532Y482310D2*
Y444684D1*
X788561Y444701D1*
X788555Y479246D1*
X776711Y479515D1*
X770942Y481142D1*
X768748Y482191D1*
X768532Y469327D1*
X768483Y452244D1*
X788555D1*
Y477244D1*
X768532Y481236D1*
Y478736D1*
X925857Y543565D2*
X920239Y544454D1*
X914830Y546213D1*
X909761Y548794D1*
X905160Y552138D1*
X901138Y556160D1*
X897794Y560761D1*
X895213Y565830D1*
X893454Y571239D1*
X892565Y576857D1*
Y582545D1*
X893454Y588163D1*
X895213Y593572D1*
X897794Y598641D1*
X901138Y603242D1*
X905160Y607264D1*
X909761Y610608D1*
X914830Y613189D1*
X920239Y614948D1*
X925857Y615837D1*
X931545D1*
X937163Y614948D1*
X942572Y613189D1*
X947641Y610608D1*
X952242Y607264D1*
X956698Y602692D1*
X857769Y2177565D2*
D19*
Y2077192D1*
X807397Y2177565D2*
X857769D1*
X1057376Y2177171D2*
Y2076798D1*
Y2177171D2*
X1107748D1*
X1231890Y654331D2*
Y608289D1*
X1181911Y654331D2*
X1281869D1*
X1042937Y654386D2*
Y608344D1*
X992958Y654386D2*
X1092916D1*
X850788Y654331D2*
Y608289D1*
X800809Y654331D2*
X900767D1*
X661811D2*
Y608289D1*
Y654331D2*
X711790D1*
X456764Y1643475D2*
Y1543517D1*
Y1593496D2*
X506743D1*
X1108662Y551948D2*
Y448053D1*
X1311772Y856961D2*
Y816628D1*
X1246557Y856961D2*
X1311772D1*
X1246557Y1356961D2*
X1376987D1*
X1311772Y1847294D2*
Y1806961D1*
X1246557D2*
X1376987D1*
X1097008Y1936940D2*
Y1806509D1*
Y1871725D2*
X1137341D1*
X1047008Y1936940D2*
Y1806509D1*
X947008Y1936940D2*
Y1806509D1*
X847008Y1936940D2*
Y1806509D1*
X797008Y1936940D2*
Y1806509D1*
X756675Y1871725D2*
X797008D1*
X582244Y1847294D2*
Y1806961D1*
X517029D2*
X647460D1*
X517029Y1556961D2*
X647460D1*
X582244Y1156961D2*
X647460D1*
X582244Y856961D2*
Y816628D1*
Y856961D2*
X647460D1*
X1437126Y1725680D2*
Y1625722D1*
X1387147Y1675701D2*
X1487105D1*
X1537126Y1725680D2*
Y1625722D1*
X1487147Y1675701D2*
X1537126D1*
X726378Y453945D2*
X768483D1*
X830709Y557960D2*
Y530717D1*
X788604D2*
X872814D1*
D20*
X857769Y2177565D3*
D21*
X957769Y2177171D3*
D20*
X1057376D3*
D23*
X1231890Y654331D3*
Y729134D3*
X1042937Y654386D3*
Y729189D3*
X850788Y654331D3*
Y729134D3*
X661811Y654331D3*
Y729134D3*
D24*
X457349Y1193509D3*
D25*
Y1093509D3*
Y993509D3*
Y893509D3*
D24*
X456764Y1393496D3*
D25*
Y1493496D3*
Y1593496D3*
Y1693496D3*
Y1793496D3*
D27*
X1208662Y500000D3*
X1158662D3*
X1108662D3*
X1058662D3*
D22*
X453150Y697507D3*
X527953D3*
X452100Y569554D3*
X526903D3*
D30*
X1311772Y856961D3*
Y906961D3*
Y956961D3*
Y1006961D3*
Y1056961D3*
Y1106961D3*
Y1156961D3*
Y1206961D3*
Y1256961D3*
Y1306961D3*
Y1356961D3*
Y1406961D3*
Y1456961D3*
Y1506961D3*
Y1556961D3*
Y1606961D3*
Y1656961D3*
Y1706961D3*
Y1756961D3*
Y1806961D3*
D31*
X1097008Y1871725D3*
X1047008D3*
X997008D3*
X947008D3*
X897008D3*
X847008D3*
X797008D3*
D30*
X582244Y1806961D3*
Y1756961D3*
Y1706961D3*
Y1656961D3*
Y1606961D3*
Y1556961D3*
Y1506961D3*
Y1456961D3*
Y1406961D3*
Y1356961D3*
Y1306961D3*
Y1256961D3*
Y1206961D3*
Y1156961D3*
Y1106961D3*
Y1056961D3*
Y1006961D3*
Y956961D3*
Y906961D3*
Y856961D3*
D24*
X1437126Y1675701D3*
D25*
X1537126D3*
X1437126Y1575701D3*
X1537126D3*
X1437126Y1475701D3*
X1537126D3*
X1437126Y1375701D3*
X1537126D3*
X1437126Y1275701D3*
X1537126D3*
X1437126Y1175701D3*
X1537126D3*
X1437126Y1075701D3*
X1537126D3*
X1437126Y975701D3*
X1537126D3*
X1437126Y875701D3*
X1537126D3*
X1437126Y775701D3*
X1537126D3*
X1437126Y675701D3*
X1537126D3*
X1437126Y575701D3*
X1537126D3*
X1437126Y475701D3*
X1537126D3*
D33*
X726378Y530717D3*
Y505126D3*
Y479536D3*
Y453945D3*
X830709D3*
Y479536D3*
Y505126D3*
Y530717D3*
M02*
