G04 DipTrace 3.0.0.2*
G04 TopDimension.gbr*
%MOIN*%
G04 #@! TF.FileFunction,Drawing,Top*
G04 #@! TF.Part,Single*
%ADD13C,0.0015*%
%ADD62C,0.006176*%
%FSLAX26Y26*%
G04*
G70*
G90*
G75*
G01*
G04 TopDimension*
%LPD*%
X954832Y2262517D2*
D13*
Y2116323D1*
X953701Y1885701D2*
Y2155693D1*
Y2136008D2*
X954832D1*
X894646D2*
X914331D1*
G36*
X953701D2*
X914331Y2128134D1*
Y2143882D1*
X953701Y2136008D1*
G37*
X1013887D2*
D13*
X994202D1*
G36*
X954832D2*
X994202Y2143882D1*
Y2128134D1*
X954832Y2136008D1*
G37*
X1041941D2*
D13*
X954832D1*
X1490764Y2051134D2*
X1909449D1*
X1437126Y1675701D2*
X1909449D1*
X1889764Y1863418D2*
Y2011764D1*
G36*
Y2051134D2*
X1897638Y2011764D1*
X1881890D1*
X1889764Y2051134D1*
G37*
Y1863418D2*
D13*
Y1715071D1*
G36*
Y1675701D2*
X1881890Y1715071D1*
X1897638D1*
X1889764Y1675701D1*
G37*
X457349Y475722D2*
D13*
X568898D1*
X597449Y475607D2*
X529528D1*
X549213Y475722D2*
Y475607D1*
Y534777D2*
Y515092D1*
G36*
Y475722D2*
X541339Y515092D1*
X557087D1*
X549213Y475722D1*
G37*
Y416551D2*
D13*
Y436236D1*
G36*
Y475607D2*
X557087Y436236D1*
X541339D1*
X549213Y475607D1*
G37*
Y371297D2*
D13*
Y475722D1*
X456764Y1393496D2*
Y1224410D1*
Y1393496D2*
Y1224410D1*
Y1244095D2*
D3*
X397709D2*
X417394D1*
G36*
X456764D2*
X417394Y1236221D1*
Y1251969D1*
X456764Y1244095D1*
G37*
X515819D2*
D13*
X496134D1*
G36*
X456764D2*
X496134Y1251969D1*
Y1236221D1*
X456764Y1244095D1*
G37*
X522929D2*
D13*
X456764D1*
X1437126Y1675701D2*
Y1870079D1*
X1490764Y2051134D2*
Y1830709D1*
X1437126Y1850394D2*
X1490764D1*
X1378071D2*
X1397756D1*
G36*
X1437126D2*
X1397756Y1842520D1*
Y1858268D1*
X1437126Y1850394D1*
G37*
X1549819D2*
D13*
X1530134D1*
G36*
X1490764D2*
X1530134Y1858268D1*
Y1842520D1*
X1490764Y1850394D1*
G37*
X1649474D2*
D13*
X1490764D1*
X1297449Y475607D2*
X1696063D1*
X1437126Y475701D2*
X1696063D1*
X1676378D2*
Y475607D1*
Y534756D2*
Y515071D1*
G36*
Y475701D2*
X1668504Y515071D1*
X1684252D1*
X1676378Y475701D1*
G37*
Y416551D2*
D13*
Y436236D1*
G36*
Y475607D2*
X1684252Y436236D1*
X1668504D1*
X1676378Y475607D1*
G37*
Y371297D2*
D13*
Y475701D1*
X457349Y475722D2*
Y255906D1*
X597449Y475607D2*
Y255906D1*
X457349Y275591D2*
X597449D1*
X398294D2*
X417979D1*
G36*
X457349D2*
X417979Y267717D1*
Y283465D1*
X457349Y275591D1*
G37*
X656504D2*
D13*
X636819D1*
G36*
X597449D2*
X636819Y283465D1*
Y267717D1*
X597449Y275591D1*
G37*
X1437126Y475701D2*
D13*
Y259843D1*
X1297449Y475607D2*
Y259843D1*
X1367288Y279528D2*
X1397756D1*
G36*
X1437126D2*
X1397756Y271654D1*
Y287402D1*
X1437126Y279528D1*
G37*
X1367288D2*
D13*
X1336819D1*
G36*
X1297449D2*
X1336819Y287402D1*
Y271654D1*
X1297449Y279528D1*
G37*
X1617826D2*
D13*
X1437126D1*
X456764Y1393496D2*
X59055D1*
X456764Y1411213D2*
X59055D1*
X78740D2*
Y1393496D1*
Y1470268D2*
Y1450583D1*
G36*
Y1411213D2*
X70866Y1450583D1*
X86614D1*
X78740Y1411213D1*
G37*
Y1334441D2*
D13*
Y1354126D1*
G36*
Y1393496D2*
X86614Y1354126D1*
X70866D1*
X78740Y1393496D1*
G37*
Y1554668D2*
D13*
Y1411213D1*
X597008Y1835701D2*
Y1698032D1*
X456764Y1793496D2*
Y1698032D1*
X526886Y1717717D2*
X557638D1*
G36*
X597008D2*
X557638Y1709843D1*
Y1725591D1*
X597008Y1717717D1*
G37*
X526886D2*
D13*
X496134D1*
G36*
X456764D2*
X496134Y1725591D1*
Y1709843D1*
X456764Y1717717D1*
G37*
X781511D2*
D13*
X597008D1*
X1297008Y1835701D2*
Y1754725D1*
X1437126Y1675701D2*
Y1794095D1*
X1297008Y1774410D2*
X1437126D1*
X1237953D2*
X1257638D1*
G36*
X1297008D2*
X1257638Y1766536D1*
Y1782284D1*
X1297008Y1774410D1*
G37*
X1496181D2*
D13*
X1476496D1*
G36*
X1437126D2*
X1476496Y1782284D1*
Y1766536D1*
X1437126Y1774410D1*
G37*
X661811Y654331D2*
D13*
Y566142D1*
X850788Y654331D2*
Y566142D1*
X756299Y585827D2*
X701181D1*
G36*
X661811D2*
X701181Y593701D1*
Y577953D1*
X661811Y585827D1*
G37*
X756299D2*
D13*
X811418D1*
G36*
X850788D2*
X811418Y577953D1*
Y593701D1*
X850788Y585827D1*
G37*
Y654331D2*
D13*
Y574803D1*
X1042937Y654386D2*
Y574803D1*
X850788Y594488D2*
X1042937D1*
X791732D2*
X811418D1*
G36*
X850788D2*
X811418Y586614D1*
Y602362D1*
X850788Y594488D1*
G37*
X1101992D2*
D13*
X1082307D1*
G36*
X1042937D2*
X1082307Y602362D1*
Y586614D1*
X1042937Y594488D1*
G37*
Y654386D2*
D13*
Y567323D1*
X1231890Y654331D2*
Y567323D1*
X1137414Y587008D2*
X1082307D1*
G36*
X1042937D2*
X1082307Y594882D1*
Y579134D1*
X1042937Y587008D1*
G37*
X1137414D2*
D13*
X1192520D1*
G36*
X1231890D2*
X1192520Y579134D1*
Y594882D1*
X1231890Y587008D1*
G37*
X661811Y729134D2*
D13*
X597244D1*
X850788D2*
X597244D1*
X616929D2*
D3*
Y788189D2*
Y768504D1*
G36*
Y729134D2*
X609055Y768504D1*
X624803D1*
X616929Y729134D1*
G37*
Y670079D2*
D13*
Y689764D1*
G36*
Y729134D2*
X624803Y689764D1*
X609055D1*
X616929Y729134D1*
G37*
Y795299D2*
D13*
Y729134D1*
X850788D2*
X808268D1*
X1042937Y729189D2*
X808268D1*
X827953D2*
Y729134D1*
Y788244D2*
Y768559D1*
G36*
Y729189D2*
X820079Y768559D1*
X835827D1*
X827953Y729189D1*
G37*
Y670079D2*
D13*
Y689764D1*
G36*
Y729134D2*
X835827Y689764D1*
X820079D1*
X827953Y729134D1*
G37*
Y833498D2*
D13*
Y729189D1*
X1042937D2*
X1202362D1*
X1231890Y729134D2*
X1162992D1*
X1182677Y729189D2*
Y729134D1*
Y788244D2*
Y768559D1*
G36*
Y729189D2*
X1174803Y768559D1*
X1190551D1*
X1182677Y729189D1*
G37*
Y670079D2*
D13*
Y689764D1*
G36*
Y729134D2*
X1190551Y689764D1*
X1174803D1*
X1182677Y729134D1*
G37*
Y624825D2*
D13*
Y729189D1*
X661811Y654331D2*
Y811811D1*
X597008Y885701D2*
Y772441D1*
Y792126D2*
X661811D1*
X537953D2*
X557638D1*
G36*
X597008D2*
X557638Y784252D1*
Y800000D1*
X597008Y792126D1*
G37*
X720866D2*
D13*
X701181D1*
G36*
X661811D2*
X701181Y800000D1*
Y784252D1*
X661811Y792126D1*
G37*
X822378D2*
D13*
X661811D1*
X1231890Y654331D2*
Y809843D1*
X1297008Y885701D2*
Y770473D1*
X1231890Y790158D2*
X1297008D1*
X1172835D2*
X1192520D1*
G36*
X1231890D2*
X1192520Y782284D1*
Y798032D1*
X1231890Y790158D1*
G37*
X1356063D2*
D13*
X1336378D1*
G36*
X1297008D2*
X1336378Y798032D1*
Y782284D1*
X1297008Y790158D1*
G37*
X1438518D2*
D13*
X1297008D1*
X966929Y1433858D2*
Y1512205D1*
X974803Y1433858D2*
Y1512205D1*
X966929Y1492520D2*
X974803D1*
X907874D2*
X927559D1*
G36*
X966929D2*
X927559Y1484646D1*
Y1500394D1*
X966929Y1492520D1*
G37*
X1033858D2*
D13*
X1014173D1*
G36*
X974803D2*
X1014173Y1500394D1*
Y1484646D1*
X974803Y1492520D1*
G37*
X1094411D2*
D13*
X974803D1*
X678079Y1535701D2*
Y1351181D1*
X966929Y1433858D2*
Y1351181D1*
X822504Y1370866D2*
X717449D1*
G36*
X678079D2*
X717449Y1378740D1*
Y1362992D1*
X678079Y1370866D1*
G37*
X822504D2*
D13*
X927559D1*
G36*
X966929D2*
X927559Y1362992D1*
Y1378740D1*
X966929Y1370866D1*
G37*
X456764Y1393496D2*
D13*
X183016D1*
X457349Y1193509D2*
X183016D1*
X202701Y1393496D2*
Y1193509D1*
Y1452551D2*
Y1432866D1*
G36*
Y1393496D2*
X194827Y1432866D1*
X210575D1*
X202701Y1393496D1*
G37*
Y1134454D2*
D13*
Y1154139D1*
G36*
Y1193509D2*
X210575Y1154139D1*
X194827D1*
X202701Y1193509D1*
G37*
X1003466Y2180717D2*
D62*
X1007313Y2182663D1*
X1013061Y2188367D1*
Y2148219D1*
X1027313Y2152066D2*
X1025412Y2150120D1*
X1027313Y2148219D1*
X1029259Y2150120D1*
X1027313Y2152066D1*
X1041610Y2180717D2*
X1045457Y2182663D1*
X1051205Y2188367D1*
Y2148219D1*
X1942123Y1937649D2*
Y1916647D1*
X1926824Y1928099D1*
Y1922350D1*
X1924923Y1918548D1*
X1923021Y1916647D1*
X1917273Y1914701D1*
X1913471D1*
X1907723Y1916647D1*
X1903876Y1920449D1*
X1901975Y1926197D1*
Y1931945D1*
X1903876Y1937649D1*
X1905822Y1939550D1*
X1909624Y1941496D1*
X1901975Y1894700D2*
X1942123Y1875555D1*
Y1902350D1*
Y1840256D2*
Y1859357D1*
X1924923Y1861258D1*
X1926824Y1859357D1*
X1928769Y1853609D1*
Y1847905D1*
X1926824Y1842157D1*
X1923021Y1838310D1*
X1917273Y1836409D1*
X1913471D1*
X1907723Y1838310D1*
X1903876Y1842157D1*
X1901975Y1847905D1*
Y1853609D1*
X1903876Y1859357D1*
X1905822Y1861258D1*
X1909624Y1863204D1*
X1905822Y1822156D2*
X1903876Y1824058D1*
X1901975Y1822156D1*
X1903876Y1820211D1*
X1905822Y1822156D1*
X1901975Y1788714D2*
X1942123D1*
X1915372Y1807859D1*
Y1779164D1*
X601571Y415477D2*
X599670Y421225D1*
X593922Y425072D1*
X584371Y426973D1*
X578623D1*
X569073Y425072D1*
X563325Y421225D1*
X561424Y415477D1*
Y411674D1*
X563325Y405926D1*
X569073Y402124D1*
X578623Y400178D1*
X584371D1*
X593922Y402124D1*
X599670Y405926D1*
X601571Y411674D1*
Y415477D1*
X593922Y402124D2*
X569073Y425072D1*
X565270Y385926D2*
X563325Y387827D1*
X561424Y385926D1*
X563325Y383980D1*
X565270Y385926D1*
X593922Y371629D2*
X595868Y367782D1*
X601571Y362034D1*
X561424D1*
X516894Y1296453D2*
X511146Y1294552D1*
X507299Y1288804D1*
X505398Y1279253D1*
Y1273505D1*
X507299Y1263955D1*
X511146Y1258207D1*
X516894Y1256305D1*
X520696D1*
X526444Y1258207D1*
X530247Y1263955D1*
X532192Y1273505D1*
Y1279253D1*
X530247Y1288804D1*
X526444Y1294552D1*
X520696Y1296453D1*
X516894D1*
X530247Y1288804D2*
X507299Y1263955D1*
X1562346Y1902752D2*
X1543244D1*
X1541343Y1885553D1*
X1543244Y1887454D1*
X1548992Y1889399D1*
X1554696D1*
X1560444Y1887454D1*
X1564291Y1883651D1*
X1566192Y1877903D1*
Y1874101D1*
X1564291Y1868353D1*
X1560444Y1864506D1*
X1554696Y1862605D1*
X1548992D1*
X1543244Y1864506D1*
X1541343Y1866451D1*
X1539398Y1870254D1*
X1582390Y1902752D2*
X1603393D1*
X1591941Y1887454D1*
X1597689D1*
X1601492Y1885553D1*
X1603393Y1883651D1*
X1605338Y1877903D1*
Y1874101D1*
X1603393Y1868353D1*
X1599590Y1864506D1*
X1593842Y1862605D1*
X1588094D1*
X1582390Y1864506D1*
X1580489Y1866451D1*
X1578544Y1870254D1*
X1619591Y1866451D2*
X1617690Y1864506D1*
X1619591Y1862605D1*
X1621537Y1864506D1*
X1619591Y1866451D1*
X1656836Y1897049D2*
X1654935Y1900851D1*
X1649187Y1902752D1*
X1645384D1*
X1639636Y1900851D1*
X1635789Y1895103D1*
X1633888Y1885553D1*
Y1876002D1*
X1635789Y1868353D1*
X1639636Y1864506D1*
X1645384Y1862605D1*
X1647285D1*
X1652989Y1864506D1*
X1656836Y1868353D1*
X1658737Y1874101D1*
Y1876002D1*
X1656836Y1881750D1*
X1652989Y1885553D1*
X1647285Y1887454D1*
X1645384D1*
X1639636Y1885553D1*
X1635789Y1881750D1*
X1633888Y1876002D1*
X1728737Y415477D2*
X1726835Y421225D1*
X1721087Y425072D1*
X1711537Y426973D1*
X1705789D1*
X1696238Y425072D1*
X1690490Y421225D1*
X1688589Y415477D1*
Y411674D1*
X1690490Y405926D1*
X1696238Y402124D1*
X1705789Y400178D1*
X1711537D1*
X1721087Y402124D1*
X1726835Y405926D1*
X1728737Y411674D1*
Y415477D1*
X1721087Y402124D2*
X1696238Y425072D1*
X1692436Y385926D2*
X1690490Y387827D1*
X1688589Y385926D1*
X1690490Y383980D1*
X1692436Y385926D1*
X1721087Y371629D2*
X1723033Y367782D1*
X1728737Y362034D1*
X1688589D1*
X466521Y320300D2*
X470368Y322245D1*
X476116Y327949D1*
Y287802D1*
X507612D2*
Y327949D1*
X488467Y301199D1*
X517163D1*
X541010Y327949D2*
X535262Y326048D1*
X531416Y320300D1*
X529514Y310749D1*
Y305001D1*
X531416Y295451D1*
X535262Y289703D1*
X541010Y287802D1*
X544813D1*
X550561Y289703D1*
X554363Y295451D1*
X556309Y305001D1*
Y310749D1*
X554363Y320300D1*
X550561Y326048D1*
X544813Y327949D1*
X541010D1*
X554363Y320300D2*
X531416Y295451D1*
X570562Y291648D2*
X568660Y289703D1*
X570562Y287802D1*
X572507Y289703D1*
X570562Y291648D1*
X584858Y320300D2*
X588705Y322245D1*
X594453Y327949D1*
Y287802D1*
X1485760Y324237D2*
X1489607Y326183D1*
X1495355Y331886D1*
Y291739D1*
X1511553Y331886D2*
X1532555D1*
X1521103Y316588D1*
X1526851D1*
X1530654Y314686D1*
X1532555Y312785D1*
X1534501Y307037D1*
Y303235D1*
X1532555Y297487D1*
X1528753Y293640D1*
X1523005Y291739D1*
X1517257D1*
X1511553Y293640D1*
X1509651Y295585D1*
X1507706Y299388D1*
X1571745Y318533D2*
X1569800Y312785D1*
X1565997Y308938D1*
X1560249Y307037D1*
X1558348D1*
X1552600Y308938D1*
X1548798Y312785D1*
X1546852Y318533D1*
Y320434D1*
X1548798Y326183D1*
X1552600Y329985D1*
X1558348Y331886D1*
X1560249D1*
X1565997Y329985D1*
X1569800Y326183D1*
X1571745Y318533D1*
Y308938D1*
X1569800Y299388D1*
X1565997Y293640D1*
X1560249Y291739D1*
X1556447D1*
X1550699Y293640D1*
X1548798Y297487D1*
X1585998Y295585D2*
X1584097Y293640D1*
X1585998Y291739D1*
X1587944Y293640D1*
X1585998Y295585D1*
X1607944Y291739D2*
X1627090Y331886D1*
X1600295D1*
X34031Y1459846D2*
X32086Y1463693D1*
X26382Y1469441D1*
X66530D1*
Y1489442D2*
X26382Y1508587D1*
Y1481793D1*
X62683Y1522840D2*
X64628Y1520939D1*
X66530Y1522840D1*
X64628Y1524785D1*
X62683Y1522840D1*
X66530Y1544786D2*
X26382Y1563932D1*
Y1537137D1*
X645642Y1762426D2*
X649488Y1764371D1*
X655237Y1770075D1*
Y1729928D1*
X686733D2*
Y1770075D1*
X667588Y1743325D1*
X696284D1*
X720131Y1770075D2*
X714383Y1768174D1*
X710537Y1762426D1*
X708635Y1752875D1*
Y1747127D1*
X710537Y1737577D1*
X714383Y1731829D1*
X720131Y1729928D1*
X723934D1*
X729682Y1731829D1*
X733484Y1737577D1*
X735430Y1747127D1*
Y1752875D1*
X733484Y1762426D1*
X729682Y1768174D1*
X723934Y1770075D1*
X720131D1*
X733484Y1762426D2*
X710537Y1737577D1*
X749683Y1733774D2*
X747781Y1731829D1*
X749683Y1729928D1*
X751628Y1731829D1*
X749683Y1733774D1*
X765925Y1760525D2*
Y1762426D1*
X767826Y1766273D1*
X769727Y1768174D1*
X773574Y1770075D1*
X781224D1*
X785026Y1768174D1*
X786927Y1766273D1*
X788873Y1762426D1*
Y1758623D1*
X786927Y1754777D1*
X783125Y1749073D1*
X763979Y1729928D1*
X790774D1*
X1306189Y1819119D2*
X1310035Y1821064D1*
X1315784Y1826768D1*
Y1786620D1*
X1347280D2*
Y1826768D1*
X1328135Y1800018D1*
X1356831D1*
X1380678Y1826768D2*
X1374930Y1824867D1*
X1371084Y1819119D1*
X1369182Y1809568D1*
Y1803820D1*
X1371084Y1794270D1*
X1374930Y1788522D1*
X1380678Y1786620D1*
X1384481D1*
X1390229Y1788522D1*
X1394031Y1794270D1*
X1395977Y1803820D1*
Y1809568D1*
X1394031Y1819119D1*
X1390229Y1824867D1*
X1384481Y1826768D1*
X1380678D1*
X1394031Y1819119D2*
X1371084Y1794270D1*
X1410230Y1790467D2*
X1408328Y1788522D1*
X1410230Y1786620D1*
X1412175Y1788522D1*
X1410230Y1790467D1*
X1424526Y1819119D2*
X1428373Y1821064D1*
X1434121Y1826768D1*
Y1786620D1*
X716417Y630536D2*
X720263Y632482D1*
X726011Y638186D1*
Y598038D1*
X747913Y638186D2*
X742210Y636284D1*
X740264Y632482D1*
Y628635D1*
X742210Y624832D1*
X746012Y622887D1*
X753661Y620986D1*
X759409Y619084D1*
X763212Y615238D1*
X765113Y611435D1*
Y605687D1*
X763212Y601885D1*
X761311Y599939D1*
X755563Y598038D1*
X747913D1*
X742210Y599939D1*
X740264Y601885D1*
X738363Y605687D1*
Y611435D1*
X740264Y615238D1*
X744111Y619084D1*
X749815Y620986D1*
X757464Y622887D1*
X761311Y624832D1*
X763212Y628635D1*
Y632482D1*
X761311Y636284D1*
X755563Y638186D1*
X747913D1*
X802358Y624832D2*
X800413Y619084D1*
X796610Y615238D1*
X790862Y613336D1*
X788961D1*
X783213Y615238D1*
X779410Y619084D1*
X777465Y624832D1*
Y626734D1*
X779410Y632482D1*
X783213Y636284D1*
X788961Y638186D1*
X790862D1*
X796610Y636284D1*
X800413Y632482D1*
X802358Y624832D1*
Y615238D1*
X800413Y605687D1*
X796610Y599939D1*
X790862Y598038D1*
X787059D1*
X781311Y599939D1*
X779410Y603786D1*
X887885Y639198D2*
X891732Y641143D1*
X897480Y646847D1*
Y606699D1*
X934725Y633494D2*
X932779Y627746D1*
X928977Y623899D1*
X923229Y621998D1*
X921328D1*
X915579Y623899D1*
X911777Y627746D1*
X909831Y633494D1*
Y635395D1*
X911777Y641143D1*
X915579Y644946D1*
X921328Y646847D1*
X923229D1*
X928977Y644946D1*
X932779Y641143D1*
X934725Y633494D1*
Y623899D1*
X932779Y614348D1*
X928977Y608600D1*
X923229Y606699D1*
X919426D1*
X913678Y608600D1*
X911777Y612447D1*
X949022Y637296D2*
Y639198D1*
X950923Y643044D1*
X952824Y644946D1*
X956671Y646847D1*
X964320D1*
X968123Y644946D1*
X970024Y643044D1*
X971970Y639198D1*
Y635395D1*
X970024Y631548D1*
X966222Y625845D1*
X947076Y606699D1*
X973871D1*
X988124Y610546D2*
X986222Y608600D1*
X988124Y606699D1*
X990069Y608600D1*
X988124Y610546D1*
X1002420Y639198D2*
X1006267Y641143D1*
X1012015Y646847D1*
Y606699D1*
X1097531Y631717D2*
X1101377Y633663D1*
X1107126Y639367D1*
Y599219D1*
X1129027Y639367D2*
X1123324Y637465D1*
X1121378Y633663D1*
Y629816D1*
X1123324Y626014D1*
X1127126Y624068D1*
X1134776Y622167D1*
X1140524Y620265D1*
X1144326Y616419D1*
X1146227Y612616D1*
Y606868D1*
X1144326Y603066D1*
X1142425Y601120D1*
X1136677Y599219D1*
X1129027D1*
X1123324Y601120D1*
X1121378Y603066D1*
X1119477Y606868D1*
Y612616D1*
X1121378Y616419D1*
X1125225Y620265D1*
X1130929Y622167D1*
X1138578Y624068D1*
X1142425Y626014D1*
X1144326Y629816D1*
Y633663D1*
X1142425Y637465D1*
X1136677Y639367D1*
X1129027D1*
X1183472Y626014D2*
X1181527Y620265D1*
X1177724Y616419D1*
X1171976Y614517D1*
X1170075D1*
X1164327Y616419D1*
X1160524Y620265D1*
X1158579Y626014D1*
Y627915D1*
X1160524Y633663D1*
X1164327Y637465D1*
X1170075Y639367D1*
X1171976D1*
X1177724Y637465D1*
X1181527Y633663D1*
X1183472Y626014D1*
Y616419D1*
X1181527Y606868D1*
X1177724Y601120D1*
X1171976Y599219D1*
X1168174D1*
X1162426Y601120D1*
X1160524Y604967D1*
X564571Y789264D2*
X566472Y783516D1*
X572220Y779669D1*
X581771Y777768D1*
X587519D1*
X597069Y779669D1*
X602817Y783516D1*
X604719Y789264D1*
Y793066D1*
X602817Y798814D1*
X597069Y802617D1*
X587519Y804562D1*
X581771D1*
X572220Y802617D1*
X566472Y798814D1*
X564571Y793066D1*
Y789264D1*
X572220Y802617D2*
X597069Y779669D1*
X775594Y789319D2*
X777496Y783571D1*
X783244Y779724D1*
X792794Y777823D1*
X798542D1*
X808093Y779724D1*
X813841Y783571D1*
X815742Y789319D1*
Y793121D1*
X813841Y798869D1*
X808093Y802672D1*
X798542Y804617D1*
X792794D1*
X783244Y802672D1*
X777496Y798869D1*
X775594Y793121D1*
Y789319D1*
X783244Y802672D2*
X808093Y779724D1*
X811895Y818870D2*
X813841Y816969D1*
X815742Y818870D1*
X813841Y820816D1*
X811895Y818870D1*
X783244Y833167D2*
X781298Y837014D1*
X775594Y842762D1*
X815742D1*
X1235036Y669004D2*
X1233135Y674752D1*
X1227387Y678599D1*
X1217836Y680500D1*
X1212088D1*
X1202537Y678599D1*
X1196789Y674752D1*
X1194888Y669004D1*
Y665202D1*
X1196789Y659454D1*
X1202537Y655651D1*
X1212088Y653706D1*
X1217836D1*
X1227387Y655651D1*
X1233135Y659454D1*
X1235036Y665202D1*
Y669004D1*
X1227387Y655651D2*
X1202537Y678599D1*
X1198735Y639453D2*
X1196789Y641354D1*
X1194888Y639453D1*
X1196789Y637508D1*
X1198735Y639453D1*
X1227387Y625156D2*
X1229332Y621309D1*
X1235036Y615561D1*
X1194888D1*
X733393Y838781D2*
X731492Y842583D1*
X725743Y844485D1*
X721941D1*
X716193Y842583D1*
X712346Y836835D1*
X710445Y827285D1*
Y817734D1*
X712346Y810085D1*
X716193Y806238D1*
X721941Y804337D1*
X723842D1*
X729546Y806238D1*
X733393Y810085D1*
X735294Y815833D1*
Y817734D1*
X733393Y823482D1*
X729546Y827285D1*
X723842Y829186D1*
X721941D1*
X716193Y827285D1*
X712346Y823482D1*
X710445Y817734D1*
X766791Y804337D2*
Y844485D1*
X747645Y817734D1*
X776341D1*
X790594Y808184D2*
X788693Y806238D1*
X790594Y804337D1*
X792540Y806238D1*
X790594Y808184D1*
X814442Y844485D2*
X808738Y842583D1*
X806792Y838781D1*
Y834934D1*
X808738Y831132D1*
X812540Y829186D1*
X820190Y827285D1*
X825938Y825384D1*
X829740Y821537D1*
X831641Y817734D1*
Y811986D1*
X829740Y808184D1*
X827839Y806238D1*
X822091Y804337D1*
X814442D1*
X808738Y806238D1*
X806792Y808184D1*
X804891Y811986D1*
Y817734D1*
X806792Y821537D1*
X810639Y825384D1*
X816343Y827285D1*
X823992Y829186D1*
X827839Y831132D1*
X829740Y834934D1*
Y838781D1*
X827839Y842583D1*
X822091Y844485D1*
X814442D1*
X1368590Y836812D2*
X1366688Y840615D1*
X1360940Y842516D1*
X1357138D1*
X1351390Y840615D1*
X1347543Y834867D1*
X1345642Y825316D1*
Y815766D1*
X1347543Y808116D1*
X1351390Y804270D1*
X1357138Y802368D1*
X1359039D1*
X1364743Y804270D1*
X1368590Y808116D1*
X1370491Y813865D1*
Y815766D1*
X1368590Y821514D1*
X1364743Y825316D1*
X1359039Y827218D1*
X1357138D1*
X1351390Y825316D1*
X1347543Y821514D1*
X1345642Y815766D1*
X1405790Y842516D2*
X1386689D1*
X1384788Y825316D1*
X1386689Y827218D1*
X1392437Y829163D1*
X1398141D1*
X1403889Y827218D1*
X1407736Y823415D1*
X1409637Y817667D1*
Y813865D1*
X1407736Y808116D1*
X1403889Y804270D1*
X1398141Y802368D1*
X1392437D1*
X1386689Y804270D1*
X1384788Y806215D1*
X1382842Y810018D1*
X1423890Y806215D2*
X1421988Y804270D1*
X1423890Y802368D1*
X1425835Y804270D1*
X1423890Y806215D1*
X1438187Y834867D2*
X1442033Y836812D1*
X1447781Y842516D1*
Y802368D1*
X1031086Y1504731D2*
X1050232Y1544878D1*
X1023437D1*
X1064484Y1508577D2*
X1062583Y1506632D1*
X1064484Y1504731D1*
X1066430Y1506632D1*
X1064484Y1508577D1*
X1103675Y1531525D2*
X1101729Y1525777D1*
X1097927Y1521931D1*
X1092179Y1520029D1*
X1090277D1*
X1084529Y1521931D1*
X1080727Y1525777D1*
X1078781Y1531525D1*
Y1533427D1*
X1080727Y1539175D1*
X1084529Y1542977D1*
X1090277Y1544878D1*
X1092179D1*
X1097927Y1542977D1*
X1101729Y1539175D1*
X1103675Y1531525D1*
Y1521931D1*
X1101729Y1512380D1*
X1097927Y1506632D1*
X1092179Y1504731D1*
X1088376D1*
X1082628Y1506632D1*
X1080727Y1510479D1*
X748317Y1413674D2*
Y1415576D1*
X750218Y1419422D1*
X752119Y1421324D1*
X755966Y1423225D1*
X763615D1*
X767418Y1421324D1*
X769319Y1419422D1*
X771265Y1415576D1*
Y1411773D1*
X769319Y1407926D1*
X765517Y1402222D1*
X746371Y1383077D1*
X773166D1*
X795068Y1423225D2*
X789364Y1421324D1*
X787419Y1417521D1*
Y1413674D1*
X789364Y1409872D1*
X793167Y1407926D1*
X800816Y1406025D1*
X806564Y1404124D1*
X810367Y1400277D1*
X812268Y1396474D1*
Y1390726D1*
X810367Y1386924D1*
X808465Y1384978D1*
X802717Y1383077D1*
X795068D1*
X789364Y1384978D1*
X787419Y1386924D1*
X785517Y1390726D1*
Y1396474D1*
X787419Y1400277D1*
X791265Y1404124D1*
X796969Y1406025D1*
X804619Y1407926D1*
X808465Y1409872D1*
X810367Y1413674D1*
Y1417521D1*
X808465Y1421324D1*
X802717Y1423225D1*
X795068D1*
X834170D2*
X828466Y1421324D1*
X826521Y1417521D1*
Y1413674D1*
X828466Y1409872D1*
X832269Y1407926D1*
X839918Y1406025D1*
X845666Y1404124D1*
X849468Y1400277D1*
X851370Y1396474D1*
Y1390726D1*
X849468Y1386924D1*
X847567Y1384978D1*
X841819Y1383077D1*
X834170D1*
X828466Y1384978D1*
X826521Y1386924D1*
X824619Y1390726D1*
Y1396474D1*
X826521Y1400277D1*
X830367Y1404124D1*
X836071Y1406025D1*
X843720Y1407926D1*
X847567Y1409872D1*
X849468Y1413674D1*
Y1417521D1*
X847567Y1421324D1*
X841819Y1423225D1*
X834170D1*
X865622Y1386924D2*
X863721Y1384978D1*
X865622Y1383077D1*
X867568Y1384978D1*
X865622Y1386924D1*
X904813Y1409872D2*
X902867Y1404124D1*
X899065Y1400277D1*
X893317Y1398376D1*
X891415D1*
X885667Y1400277D1*
X881865Y1404124D1*
X879919Y1409872D1*
Y1411773D1*
X881865Y1417521D1*
X885667Y1421324D1*
X891415Y1423225D1*
X893317D1*
X899065Y1421324D1*
X902867Y1417521D1*
X904813Y1409872D1*
Y1400277D1*
X902867Y1390726D1*
X899065Y1384978D1*
X893317Y1383077D1*
X889514D1*
X883766Y1384978D1*
X881865Y1388825D1*
X159893Y1245993D2*
X157992D1*
X154145Y1247894D1*
X152244Y1249795D1*
X150342Y1253642D1*
Y1261291D1*
X152244Y1265094D1*
X154145Y1266995D1*
X157992Y1268941D1*
X161794D1*
X165641Y1266995D1*
X171345Y1263193D1*
X190490Y1244047D1*
Y1270842D1*
X150342Y1294689D2*
X152244Y1288941D1*
X157992Y1285095D1*
X167542Y1283193D1*
X173290D1*
X182841Y1285095D1*
X188589Y1288941D1*
X190490Y1294689D1*
Y1298492D1*
X188589Y1304240D1*
X182841Y1308043D1*
X173290Y1309988D1*
X167542D1*
X157992Y1308043D1*
X152244Y1304240D1*
X150342Y1298492D1*
Y1294689D1*
X157992Y1308043D2*
X182841Y1285095D1*
X150342Y1333835D2*
X152244Y1328087D1*
X157992Y1324241D1*
X167542Y1322339D1*
X173290D1*
X182841Y1324241D1*
X188589Y1328087D1*
X190490Y1333835D1*
Y1337638D1*
X188589Y1343386D1*
X182841Y1347189D1*
X173290Y1349134D1*
X167542D1*
X157992Y1347189D1*
X152244Y1343386D1*
X150342Y1337638D1*
Y1333835D1*
X157992Y1347189D2*
X182841Y1324241D1*
M02*
