G04 DipTrace 3.0.0.2*
G04 TopPaste.gbr*
%MOIN*%
G04 #@! TF.FileFunction,Paste,Top*
G04 #@! TF.Part,Single*
%ADD41R,0.035433X0.005709*%
%ADD43R,0.03189X0.081654*%
%ADD45R,0.081654X0.03189*%
%ADD49R,0.019685X0.055118*%
%ADD55R,0.051181X0.043307*%
%ADD57R,0.043307X0.051181*%
%ADD59R,0.025591X0.151969*%
%ADD61R,0.051969X0.151969*%
%FSLAX26Y26*%
G04*
G70*
G90*
G75*
G01*
G04 TopPaste*
%LPD*%
D61*
X857769Y2177565D3*
D59*
X957769Y2177171D3*
D61*
X1057376D3*
D55*
X1231890Y654331D3*
Y729134D3*
X1042937Y654386D3*
Y729189D3*
X850788Y654331D3*
Y729134D3*
X661811Y654331D3*
Y729134D3*
D49*
X1208662Y500000D3*
X1158662D3*
X1108662D3*
X1058662D3*
D57*
X453150Y697507D3*
X527953D3*
X452100Y569554D3*
X526903D3*
D45*
X1311772Y856961D3*
Y906961D3*
Y956961D3*
Y1006961D3*
Y1056961D3*
Y1106961D3*
Y1156961D3*
Y1206961D3*
Y1256961D3*
Y1306961D3*
Y1356961D3*
Y1406961D3*
Y1456961D3*
Y1506961D3*
Y1556961D3*
Y1606961D3*
Y1656961D3*
Y1706961D3*
Y1756961D3*
Y1806961D3*
D43*
X1097008Y1871725D3*
X1047008D3*
X997008D3*
X947008D3*
X897008D3*
X847008D3*
X797008D3*
D45*
X582244Y1806961D3*
Y1756961D3*
Y1706961D3*
Y1656961D3*
Y1606961D3*
Y1556961D3*
Y1506961D3*
Y1456961D3*
Y1406961D3*
Y1356961D3*
Y1306961D3*
Y1256961D3*
Y1206961D3*
Y1156961D3*
Y1106961D3*
Y1056961D3*
Y1006961D3*
Y956961D3*
Y906961D3*
Y856961D3*
D41*
X726378Y530717D3*
Y505126D3*
Y479536D3*
Y453945D3*
X830709D3*
Y479536D3*
Y505126D3*
Y530717D3*
M02*
