G04 DipTrace 3.0.0.2*
G04 TopSilk.gbr*
%MOIN*%
G04 #@! TF.FileFunction,Legend,Top*
G04 #@! TF.Part,Single*
%ADD10C,0.01*%
%ADD26C,0.005906*%
%ADD32C,0.015751*%
%ADD62C,0.006176*%
%FSLAX26Y26*%
G04*
G70*
G90*
G75*
G01*
G04 TopSilk*
%LPD*%
X1257461Y616950D2*
D10*
X1206319D1*
X1068508Y617005D2*
X1017366D1*
X876358Y616950D2*
X825217D1*
X687382D2*
X636240D1*
X407349Y843509D2*
X507349D1*
X407349Y1243509D2*
Y843509D1*
X507349Y1243509D2*
Y843509D1*
X407349Y1243509D2*
X507349D1*
X506764Y1843496D2*
X406764D1*
X506764Y1343496D2*
Y1843496D1*
X406764Y1343496D2*
Y1843496D1*
X506764Y1343496D2*
X406764D1*
X1271457Y409449D2*
D26*
X995866D1*
Y535433D1*
X1271457D1*
Y409449D1*
X770993Y1856905D2*
D10*
X597026D1*
Y1833050D1*
X1124989Y1856905D2*
X1296990D1*
Y1833050D1*
X1387126Y425701D2*
X1587126D1*
X1387126Y1725701D2*
X1587126D1*
Y425701D1*
X1387126Y1725701D2*
Y425701D1*
X831557Y547449D2*
X725532D1*
X831557Y437213D2*
X725532D1*
D32*
X798224Y531702D3*
X873030D3*
X1145528Y2182018D2*
D62*
X1105336Y2166676D1*
X1145528Y2151377D1*
X1132131Y2157125D2*
Y2176270D1*
X1113030Y2194370D2*
X1111084Y2198217D1*
X1105380Y2203965D1*
X1145528D1*
X1143784Y661467D2*
X1183976D1*
Y674864D1*
X1182031Y680612D1*
X1178228Y684459D1*
X1174381Y686361D1*
X1168677Y688262D1*
X1159083D1*
X1153335Y686361D1*
X1149532Y684459D1*
X1145685Y680613D1*
X1143784Y674865D1*
Y661467D1*
X1151478Y700613D2*
X1149532Y704460D1*
X1143828Y710208D1*
X1183976D1*
X954831Y652922D2*
X995023D1*
Y666320D1*
X993078Y672068D1*
X989275Y675914D1*
X985428Y677816D1*
X979725Y679717D1*
X970130D1*
X964382Y677816D1*
X960579Y675914D1*
X956733Y672068D1*
X954831Y666320D1*
Y652922D1*
X964426Y694014D2*
X962525D1*
X958678Y695915D1*
X956777Y697816D1*
X954875Y701663D1*
Y709312D1*
X956777Y713115D1*
X958678Y715016D1*
X962525Y716962D1*
X966327D1*
X970174Y715016D1*
X975878Y711214D1*
X995023Y692068D1*
Y718863D1*
X762682Y652867D2*
X802874D1*
Y666265D1*
X800928Y672013D1*
X797126Y675859D1*
X793279Y677761D1*
X787575Y679662D1*
X777980D1*
X772232Y677761D1*
X768430Y675859D1*
X764583Y672013D1*
X762682Y666265D1*
Y652867D1*
X762726Y695860D2*
Y716862D1*
X778024Y705411D1*
Y711159D1*
X779926Y714961D1*
X781827Y716862D1*
X787575Y718808D1*
X791378D1*
X797126Y716862D1*
X800972Y713060D1*
X802874Y707312D1*
Y701564D1*
X800972Y695860D1*
X799027Y693959D1*
X795224Y692013D1*
X573705Y651917D2*
X613897D1*
Y665314D1*
X611952Y671062D1*
X608149Y674909D1*
X604302Y676810D1*
X598599Y678711D1*
X589004D1*
X583256Y676810D1*
X579453Y674909D1*
X575607Y671062D1*
X573705Y665314D1*
Y651917D1*
X613897Y710208D2*
X573749D1*
X600500Y691063D1*
Y719759D1*
X520916Y1042109D2*
X551514D1*
X557262Y1040208D1*
X559163Y1038262D1*
X561108Y1034460D1*
Y1030613D1*
X559163Y1026811D1*
X557262Y1024909D1*
X551513Y1022964D1*
X547711D1*
X528610Y1054460D2*
X526664Y1058307D1*
X520961Y1064055D1*
X561108D1*
X446764Y1902075D2*
Y1871478D1*
X444862Y1865729D1*
X442917Y1863828D1*
X439114Y1861883D1*
X435268D1*
X431465Y1863828D1*
X429564Y1865729D1*
X427618Y1871478D1*
Y1875280D1*
X461061Y1892480D2*
Y1894381D1*
X462962Y1898228D1*
X464863Y1900129D1*
X468710Y1902031D1*
X476359D1*
X480162Y1900129D1*
X482063Y1898228D1*
X484008Y1894381D1*
Y1890579D1*
X482063Y1886732D1*
X478260Y1881028D1*
X459115Y1861883D1*
X485910D1*
X1091642Y594012D2*
Y553820D1*
X1114589D1*
X1153736Y588264D2*
X1149933Y592110D1*
X1144185Y594012D1*
X1136536D1*
X1130788Y592110D1*
X1126941Y588264D1*
Y584461D1*
X1128886Y580614D1*
X1130788Y578713D1*
X1134590Y576812D1*
X1146086Y572965D1*
X1149933Y571064D1*
X1151834Y569118D1*
X1153736Y565316D1*
Y559568D1*
X1149933Y555765D1*
X1144185Y553820D1*
X1136536D1*
X1130788Y555765D1*
X1126941Y559568D1*
X1166087Y586318D2*
X1169934Y588264D1*
X1175682Y593968D1*
Y553820D1*
X458554Y766467D2*
X475754D1*
X481502Y768413D1*
X483447Y770314D1*
X485348Y774117D1*
Y777963D1*
X483447Y781766D1*
X481502Y783712D1*
X475754Y785613D1*
X458554D1*
Y745421D1*
X471951Y766467D2*
X485348Y745421D1*
X520648Y779865D2*
X518746Y783667D1*
X512998Y785569D1*
X509196D1*
X503448Y783667D1*
X499601Y777919D1*
X497700Y768369D1*
Y758818D1*
X499601Y751169D1*
X503448Y747322D1*
X509196Y745421D1*
X511097D1*
X516801Y747322D1*
X520648Y751169D1*
X522549Y756917D1*
Y758818D1*
X520648Y764566D1*
X516801Y768369D1*
X511097Y770270D1*
X509196D1*
X503448Y768369D1*
X499601Y764566D1*
X497700Y758818D1*
X456553Y638515D2*
X473753D1*
X479501Y640460D1*
X481447Y642361D1*
X483348Y646164D1*
Y650011D1*
X481447Y653813D1*
X479501Y655759D1*
X473753Y657660D1*
X456553D1*
Y617468D1*
X469951Y638515D2*
X483348Y617468D1*
X505250Y657616D2*
X499546Y655715D1*
X497601Y651912D1*
Y648065D1*
X499546Y644263D1*
X503349Y642317D1*
X510998Y640416D1*
X516746Y638515D1*
X520549Y634668D1*
X522450Y630865D1*
Y625117D1*
X520549Y621315D1*
X518647Y619369D1*
X512899Y617468D1*
X505250D1*
X499546Y619369D1*
X497601Y621315D1*
X495699Y625117D1*
Y630865D1*
X497601Y634668D1*
X501447Y638515D1*
X507151Y640416D1*
X514800Y642317D1*
X518647Y644263D1*
X520549Y648065D1*
Y651912D1*
X518647Y655715D1*
X512899Y657616D1*
X505250D1*
X1359623Y1975067D2*
Y1946371D1*
X1361525Y1940623D1*
X1365372Y1936820D1*
X1371120Y1934875D1*
X1374922D1*
X1380670Y1936820D1*
X1384517Y1940623D1*
X1386418Y1946371D1*
Y1975067D1*
X1398770Y1967373D2*
X1402616Y1969319D1*
X1408364Y1975023D1*
Y1934875D1*
X759845Y606027D2*
Y577332D1*
X761746Y571584D1*
X765593Y567781D1*
X771341Y565835D1*
X775143D1*
X780891Y567781D1*
X784738Y571584D1*
X786639Y577332D1*
Y606027D1*
X821939Y605983D2*
X802838D1*
X800936Y588783D1*
X802838Y590685D1*
X808586Y592630D1*
X814289D1*
X820038Y590685D1*
X823884Y586882D1*
X825786Y581134D1*
Y577332D1*
X823884Y571584D1*
X820038Y567737D1*
X814289Y565835D1*
X808586D1*
X802838Y567737D1*
X800936Y569682D1*
X798991Y573485D1*
M02*
